<?xml version="1.0" encoding="utf-8"?>
<!-- Generator: Adobe Illustrator 25.0.1, SVG Export Plug-In . SVG Version: 6.00 Build 0)  -->
<svg version="1.1" id="Layer_1" xmlns="http://www.w3.org/2000/svg" xmlns:xlink="http://www.w3.org/1999/xlink" x="0px" y="0px"
	 viewBox="0 0 113.49 100" style="enable-background:new 0 0 113.49 100;" xml:space="preserve">
<style type="text/css">
	.st0{fill:#BED73C;}
	.st1{fill:none;stroke:#004357;stroke-linecap:round;stroke-miterlimit:10;}
	.st2{fill:none;stroke:#004357;stroke-width:0.5;stroke-miterlimit:10;}
	.st3{fill:#1C8A70;}
</style>
<g>
	<path class="st0" d="M72.61,89.17c-5.92,0-10.75-4.82-10.75-10.75s4.82-10.75,10.75-10.75s10.75,4.82,10.75,10.75
		S78.54,89.17,72.61,89.17z"/>
</g>
<polyline class="st1" points="91.22,53.57 91.22,95 22.85,95 22.85,5 91.22,5 91.22,38.35 "/>
<path class="st2" d="M91.22,55.57"/>
<path class="st2" d="M91.22,38.35"/>
<path class="st3" d="M111.65,57.43L97.58,43.36c-0.34-0.34-0.89-0.34-1.22,0c-0.34,0.34-0.34,0.89,0,1.22l13.46,13.46l-0.43,0.43
	c-0.13-0.27-0.3-0.51-0.52-0.72L74.64,24.66c-0.72-0.7-1.99-1.7-2.84-2.24l-4.54-2.91c-0.73-0.47-1.5-0.75-2.05-0.75
	c-0.46,0-0.73,0.18-0.89,0.34c-0.83,0.83,0.11,2.46,0.41,2.94l2.91,4.54c0.54,0.84,1.55,2.12,2.24,2.84l33.09,34.23
	c0.49,0.51,1.14,0.78,1.85,0.78c0.68,0,1.33-0.27,1.81-0.75l2.26-2.26c0.06-0.06,0.1-0.12,0.15-0.19c0.03-0.02,0.07-0.04,0.1-0.07
	l2.5-2.5C111.99,58.32,111.99,57.77,111.65,57.43z"/>
<line class="st2" x1="38" y1="18.95" x2="63.09" y2="18.95"/>
<line class="st2" x1="31.94" y1="31.93" x2="68.29" y2="31.93"/>
<line class="st2" x1="31.94" y1="36.26" x2="72.61" y2="36.26"/>
<line class="st2" x1="31.94" y1="40.59" x2="76.61" y2="40.59"/>
<line class="st2" x1="31.94" y1="44.92" x2="80.61" y2="44.92"/>
<line class="st2" x1="31.94" y1="49.24" x2="82.61" y2="49.24"/>
<line class="st2" x1="31.94" y1="53.57" x2="82.61" y2="53.57"/>
<line class="st2" x1="31.94" y1="57.9" x2="82.61" y2="57.9"/>
<line class="st2" x1="31.94" y1="62.22" x2="82.61" y2="62.22"/>
<line class="st2" x1="31.94" y1="66.55" x2="70.02" y2="66.55"/>
<g>
	<path class="st2" d="M47.79,78.31c2.18-0.04,4.53-0.09,4.53-0.09c1.1-0.02,1.58,0.76,1.07,1.73l-4.6,4.81
		c-0.95,0.55-0.93,0.59,0.05,0.09l4.88-2.79c0.93-0.59,1.86-0.45,2.05,0.3c0.2,0.75,0.67,2.43,1.2,2.03c0.53-0.4,1.9-1.25,1.89-0.99
		c-0.01,0.26,0.77,0.61,1.4,0.32s2.35-0.27,2.33,0.24c-0.02,0.51,0.81,1.69,1.89,1.51c0,0,9.53-1.62,15.36-1.66"/>
</g>
</svg>
