<?xml version="1.0" encoding="utf-8"?>
<!-- Generator: Adobe Illustrator 25.0.1, SVG Export Plug-In . SVG Version: 6.00 Build 0)  -->
<svg version="1.1" id="Layer_1" xmlns="http://www.w3.org/2000/svg" xmlns:xlink="http://www.w3.org/1999/xlink" x="0px" y="0px"
	 viewBox="0 0 100 100" style="enable-background:new 0 0 100 100;" xml:space="preserve">
<style type="text/css">
	.st0{fill:#BCDA27;}
	.st1{fill:#FFFFFF;}
	.st2{fill:none;stroke:#004358;stroke-width:0.5;stroke-miterlimit:10;}
	.st3{fill:none;stroke:#004358;stroke-miterlimit:10;}
	.st4{fill:#004358;}
</style>
<rect x="3.78" y="3.45" class="st0" width="61.65" height="61.65"/>
<rect x="35.34" y="34.71" class="st1" width="30.39" height="30.39"/>
<rect x="3.78" y="3.45" class="st2" width="61.8" height="61.8"/>
<rect x="34.88" y="34.55" class="st3" width="61.8" height="61.8"/>
<g>
	<g>
		<circle class="st4" cx="4.55" cy="1.87" r="0.47"/>
		<circle class="st4" cx="10.02" cy="1.87" r="0.47"/>
		<circle class="st4" cx="15.49" cy="1.87" r="0.47"/>
		<circle class="st4" cx="20.96" cy="1.87" r="0.47"/>
		<circle class="st4" cx="26.44" cy="1.87" r="0.47"/>
		<circle class="st4" cx="31.91" cy="1.87" r="0.47"/>
		<circle class="st4" cx="37.38" cy="1.87" r="0.47"/>
		<circle class="st4" cx="48.32" cy="1.87" r="0.47"/>
		<circle class="st4" cx="42.85" cy="1.87" r="0.47"/>
		<circle class="st4" cx="53.79" cy="1.87" r="0.47"/>
		<circle class="st4" cx="59.26" cy="1.87" r="0.47"/>
		<circle class="st4" cx="7.29" cy="4.67" r="0.47"/>
		<circle class="st4" cx="12.76" cy="4.67" r="0.47"/>
		<circle class="st4" cx="1.81" cy="4.67" r="0.47"/>
		<circle class="st4" cx="18.23" cy="4.67" r="0.47"/>
		<circle class="st4" cx="23.7" cy="4.67" r="0.47"/>
		<circle class="st4" cx="29.17" cy="4.67" r="0.47"/>
		<circle class="st4" cx="34.64" cy="4.67" r="0.47"/>
		<circle class="st4" cx="40.11" cy="4.67" r="0.47"/>
		<circle class="st4" cx="51.06" cy="4.67" r="0.47"/>
		<circle class="st4" cx="45.58" cy="4.67" r="0.47"/>
		<circle class="st4" cx="56.53" cy="4.67" r="0.47"/>
		<circle class="st4" cx="62" cy="4.67" r="0.47"/>
		<circle class="st4" cx="9.98" cy="7.3" r="0.47"/>
		<circle class="st4" cx="15.45" cy="7.3" r="0.47"/>
		<circle class="st4" cx="20.92" cy="7.3" r="0.47"/>
		<circle class="st4" cx="26.39" cy="7.3" r="0.47"/>
		<circle class="st4" cx="31.87" cy="7.3" r="0.47"/>
		<circle class="st4" cx="37.34" cy="7.3" r="0.47"/>
		<circle class="st4" cx="42.81" cy="7.3" r="0.47"/>
		<circle class="st4" cx="53.75" cy="7.3" r="0.47"/>
		<circle class="st4" cx="48.28" cy="7.3" r="0.47"/>
		<circle class="st4" cx="59.22" cy="7.3" r="0.47"/>
		<circle class="st4" cx="12.72" cy="10.1" r="0.47"/>
		<circle class="st4" cx="18.19" cy="10.1" r="0.47"/>
		<circle class="st4" cx="7.25" cy="10.1" r="0.47"/>
		<circle class="st4" cx="23.66" cy="10.1" r="0.47"/>
		<circle class="st4" cx="29.13" cy="10.1" r="0.47"/>
		<circle class="st4" cx="34.6" cy="10.1" r="0.47"/>
		<circle class="st4" cx="40.07" cy="10.1" r="0.47"/>
		<circle class="st4" cx="45.54" cy="10.1" r="0.47"/>
		<circle class="st4" cx="56.49" cy="10.1" r="0.47"/>
		<circle class="st4" cx="51.02" cy="10.1" r="0.47"/>
		<circle class="st4" cx="61.96" cy="10.1" r="0.47"/>
		<circle class="st4" cx="1.81" cy="10.1" r="0.47"/>
		<circle class="st4" cx="4.58" cy="12.7" r="0.47"/>
		<circle class="st4" cx="10.05" cy="12.7" r="0.47"/>
		<circle class="st4" cx="15.52" cy="12.7" r="0.47"/>
		<circle class="st4" cx="20.99" cy="12.7" r="0.47"/>
		<circle class="st4" cx="26.46" cy="12.7" r="0.47"/>
		<circle class="st4" cx="31.93" cy="12.7" r="0.47"/>
		<circle class="st4" cx="37.41" cy="12.7" r="0.47"/>
		<circle class="st4" cx="48.35" cy="12.7" r="0.47"/>
		<circle class="st4" cx="42.88" cy="12.7" r="0.47"/>
		<circle class="st4" cx="53.82" cy="12.7" r="0.47"/>
		<circle class="st4" cx="59.29" cy="12.7" r="0.47"/>
		<circle class="st4" cx="7.31" cy="15.5" r="0.47"/>
		<circle class="st4" cx="12.79" cy="15.5" r="0.47"/>
		<circle class="st4" cx="1.84" cy="15.5" r="0.47"/>
		<circle class="st4" cx="18.26" cy="15.5" r="0.47"/>
		<circle class="st4" cx="23.73" cy="15.5" r="0.47"/>
		<circle class="st4" cx="29.2" cy="15.5" r="0.47"/>
		<circle class="st4" cx="34.67" cy="15.5" r="0.47"/>
		<circle class="st4" cx="40.14" cy="15.5" r="0.47"/>
		<circle class="st4" cx="51.08" cy="15.5" r="0.47"/>
		<circle class="st4" cx="45.61" cy="15.5" r="0.47"/>
		<circle class="st4" cx="56.56" cy="15.5" r="0.47"/>
		<circle class="st4" cx="62.03" cy="15.5" r="0.47"/>
		<circle class="st4" cx="4.55" cy="18.55" r="0.47"/>
		<circle class="st4" cx="10.02" cy="18.55" r="0.47"/>
		<circle class="st4" cx="15.49" cy="18.55" r="0.47"/>
		<circle class="st4" cx="20.96" cy="18.55" r="0.47"/>
		<circle class="st4" cx="26.44" cy="18.55" r="0.47"/>
		<circle class="st4" cx="31.91" cy="18.55" r="0.47"/>
		<circle class="st4" cx="37.38" cy="18.55" r="0.47"/>
		<circle class="st4" cx="48.32" cy="18.55" r="0.47"/>
		<circle class="st4" cx="42.85" cy="18.55" r="0.47"/>
		<circle class="st4" cx="53.79" cy="18.55" r="0.47"/>
		<circle class="st4" cx="59.26" cy="18.55" r="0.47"/>
		<circle class="st4" cx="7.29" cy="21.35" r="0.47"/>
		<circle class="st4" cx="12.76" cy="21.35" r="0.47"/>
		<circle class="st4" cx="1.81" cy="21.35" r="0.47"/>
		<circle class="st4" cx="18.23" cy="21.35" r="0.47"/>
		<circle class="st4" cx="23.7" cy="21.35" r="0.47"/>
		<circle class="st4" cx="29.17" cy="21.35" r="0.47"/>
		<circle class="st4" cx="34.64" cy="21.35" r="0.47"/>
		<circle class="st4" cx="40.11" cy="21.35" r="0.47"/>
		<circle class="st4" cx="51.06" cy="21.35" r="0.47"/>
		<circle class="st4" cx="45.58" cy="21.35" r="0.47"/>
		<circle class="st4" cx="56.53" cy="21.35" r="0.47"/>
		<circle class="st4" cx="62" cy="21.35" r="0.47"/>
		<circle class="st4" cx="9.98" cy="23.98" r="0.47"/>
		<circle class="st4" cx="4.58" cy="7.3" r="0.47"/>
		<circle class="st4" cx="4.58" cy="23.98" r="0.47"/>
		<circle class="st4" cx="15.45" cy="23.98" r="0.47"/>
		<circle class="st4" cx="20.92" cy="23.98" r="0.47"/>
		<circle class="st4" cx="26.39" cy="23.98" r="0.47"/>
		<circle class="st4" cx="31.87" cy="23.98" r="0.47"/>
		<circle class="st4" cx="37.34" cy="23.98" r="0.47"/>
		<circle class="st4" cx="42.81" cy="23.98" r="0.47"/>
		<circle class="st4" cx="53.75" cy="23.98" r="0.47"/>
		<circle class="st4" cx="48.28" cy="23.98" r="0.47"/>
		<circle class="st4" cx="59.22" cy="23.98" r="0.47"/>
		<circle class="st4" cx="12.72" cy="26.78" r="0.47"/>
		<circle class="st4" cx="18.19" cy="26.78" r="0.47"/>
		<circle class="st4" cx="7.25" cy="26.78" r="0.47"/>
		<circle class="st4" cx="23.66" cy="26.78" r="0.47"/>
		<circle class="st4" cx="29.13" cy="26.78" r="0.47"/>
		<circle class="st4" cx="34.6" cy="26.78" r="0.47"/>
		<circle class="st4" cx="40.07" cy="26.78" r="0.47"/>
		<circle class="st4" cx="45.54" cy="26.78" r="0.47"/>
		<circle class="st4" cx="56.49" cy="26.78" r="0.47"/>
		<circle class="st4" cx="51.02" cy="26.78" r="0.47"/>
		<circle class="st4" cx="61.96" cy="26.78" r="0.47"/>
		<circle class="st4" cx="1.81" cy="26.78" r="0.47"/>
		<circle class="st4" cx="4.58" cy="29.38" r="0.47"/>
		<circle class="st4" cx="10.05" cy="29.38" r="0.47"/>
		<circle class="st4" cx="15.52" cy="29.38" r="0.47"/>
		<circle class="st4" cx="20.99" cy="29.38" r="0.47"/>
		<circle class="st4" cx="26.46" cy="29.38" r="0.47"/>
		<circle class="st4" cx="31.93" cy="29.38" r="0.47"/>
		<circle class="st4" cx="37.41" cy="29.38" r="0.47"/>
		<circle class="st4" cx="48.35" cy="29.38" r="0.47"/>
		<circle class="st4" cx="42.88" cy="29.38" r="0.47"/>
		<circle class="st4" cx="53.82" cy="29.38" r="0.47"/>
		<circle class="st4" cx="59.29" cy="29.38" r="0.47"/>
		<circle class="st4" cx="7.31" cy="32.18" r="0.47"/>
		<circle class="st4" cx="12.79" cy="32.18" r="0.47"/>
		<circle class="st4" cx="1.84" cy="32.18" r="0.47"/>
		<circle class="st4" cx="18.26" cy="32.18" r="0.47"/>
		<circle class="st4" cx="23.73" cy="32.18" r="0.47"/>
		<circle class="st4" cx="29.2" cy="32.18" r="0.47"/>
	</g>
	<g>
		<circle class="st4" cx="4.55" cy="34.71" r="0.47"/>
		<circle class="st4" cx="10.02" cy="34.71" r="0.47"/>
		<circle class="st4" cx="15.49" cy="34.71" r="0.47"/>
		<circle class="st4" cx="20.96" cy="34.71" r="0.47"/>
		<circle class="st4" cx="26.44" cy="34.71" r="0.47"/>
		<circle class="st4" cx="7.29" cy="37.51" r="0.47"/>
		<circle class="st4" cx="12.76" cy="37.51" r="0.47"/>
		<circle class="st4" cx="1.81" cy="37.51" r="0.47"/>
		<circle class="st4" cx="18.23" cy="37.51" r="0.47"/>
		<circle class="st4" cx="23.7" cy="37.51" r="0.47"/>
		<circle class="st4" cx="29.17" cy="37.51" r="0.47"/>
		<circle class="st4" cx="9.98" cy="40.14" r="0.47"/>
		<circle class="st4" cx="15.45" cy="40.14" r="0.47"/>
		<circle class="st4" cx="20.92" cy="40.14" r="0.47"/>
		<circle class="st4" cx="26.39" cy="40.14" r="0.47"/>
		<circle class="st4" cx="12.72" cy="42.94" r="0.47"/>
		<circle class="st4" cx="18.19" cy="42.94" r="0.47"/>
		<circle class="st4" cx="7.25" cy="42.94" r="0.47"/>
		<circle class="st4" cx="23.66" cy="42.94" r="0.47"/>
		<circle class="st4" cx="29.13" cy="42.94" r="0.47"/>
		<circle class="st4" cx="1.81" cy="42.94" r="0.47"/>
		<circle class="st4" cx="4.58" cy="45.54" r="0.47"/>
		<circle class="st4" cx="10.05" cy="45.54" r="0.47"/>
		<circle class="st4" cx="15.52" cy="45.54" r="0.47"/>
		<circle class="st4" cx="20.99" cy="45.54" r="0.47"/>
		<circle class="st4" cx="26.46" cy="45.54" r="0.47"/>
		<circle class="st4" cx="7.31" cy="48.34" r="0.47"/>
		<circle class="st4" cx="12.79" cy="48.34" r="0.47"/>
		<circle class="st4" cx="1.84" cy="48.34" r="0.47"/>
		<circle class="st4" cx="18.26" cy="48.34" r="0.47"/>
		<circle class="st4" cx="23.73" cy="48.34" r="0.47"/>
		<circle class="st4" cx="29.2" cy="48.34" r="0.47"/>
		<circle class="st4" cx="4.55" cy="51.39" r="0.47"/>
		<circle class="st4" cx="10.02" cy="51.39" r="0.47"/>
		<circle class="st4" cx="15.49" cy="51.39" r="0.47"/>
		<circle class="st4" cx="20.96" cy="51.39" r="0.47"/>
		<circle class="st4" cx="26.44" cy="51.39" r="0.47"/>
		<circle class="st4" cx="7.29" cy="54.19" r="0.47"/>
		<circle class="st4" cx="12.76" cy="54.19" r="0.47"/>
		<circle class="st4" cx="1.81" cy="54.19" r="0.47"/>
		<circle class="st4" cx="18.23" cy="54.19" r="0.47"/>
		<circle class="st4" cx="23.7" cy="54.19" r="0.47"/>
		<circle class="st4" cx="29.17" cy="54.19" r="0.47"/>
		<circle class="st4" cx="9.98" cy="56.82" r="0.47"/>
		<circle class="st4" cx="4.58" cy="40.14" r="0.47"/>
		<circle class="st4" cx="4.58" cy="56.82" r="0.47"/>
		<circle class="st4" cx="15.45" cy="56.82" r="0.47"/>
		<circle class="st4" cx="20.92" cy="56.82" r="0.47"/>
		<circle class="st4" cx="26.39" cy="56.82" r="0.47"/>
		<circle class="st4" cx="12.72" cy="59.62" r="0.47"/>
		<circle class="st4" cx="18.19" cy="59.62" r="0.47"/>
		<circle class="st4" cx="7.25" cy="59.62" r="0.47"/>
		<circle class="st4" cx="23.66" cy="59.62" r="0.47"/>
		<circle class="st4" cx="29.13" cy="59.62" r="0.47"/>
		<circle class="st4" cx="1.81" cy="59.62" r="0.47"/>
		<path class="st4" d="M4.58,61.75"/>
		<path class="st4" d="M10.05,61.75"/>
		<path class="st4" d="M15.52,61.75"/>
		<path class="st4" d="M20.99,61.75"/>
		<path class="st4" d="M26.46,61.75"/>
		<path class="st4" d="M31.93,61.75"/>
	</g>
</g>
<g>
	<g>
		<circle class="st4" cx="68.76" cy="38.22" r="0.47"/>
		<circle class="st4" cx="74.23" cy="38.22" r="0.47"/>
		<circle class="st4" cx="85.18" cy="38.22" r="0.47"/>
		<circle class="st4" cx="79.7" cy="38.22" r="0.47"/>
		<circle class="st4" cx="90.65" cy="38.22" r="0.47"/>
		<circle class="st4" cx="96.12" cy="38.22" r="0.47"/>
		<circle class="st4" cx="71.5" cy="41.02" r="0.47"/>
		<circle class="st4" cx="76.97" cy="41.02" r="0.47"/>
		<circle class="st4" cx="87.91" cy="41.02" r="0.47"/>
		<circle class="st4" cx="82.44" cy="41.02" r="0.47"/>
		<circle class="st4" cx="93.38" cy="41.02" r="0.47"/>
		<circle class="st4" cx="98.85" cy="41.02" r="0.47"/>
		<circle class="st4" cx="68.72" cy="43.65" r="0.47"/>
		<circle class="st4" cx="74.19" cy="43.65" r="0.47"/>
		<circle class="st4" cx="79.66" cy="43.65" r="0.47"/>
		<circle class="st4" cx="90.61" cy="43.65" r="0.47"/>
		<circle class="st4" cx="85.14" cy="43.65" r="0.47"/>
		<circle class="st4" cx="96.08" cy="43.65" r="0.47"/>
		<circle class="st4" cx="71.46" cy="46.45" r="0.47"/>
		<circle class="st4" cx="76.93" cy="46.45" r="0.47"/>
		<circle class="st4" cx="82.4" cy="46.45" r="0.47"/>
		<circle class="st4" cx="93.34" cy="46.45" r="0.47"/>
		<circle class="st4" cx="87.87" cy="46.45" r="0.47"/>
		<circle class="st4" cx="98.81" cy="46.45" r="0.47"/>
		<circle class="st4" cx="68.79" cy="49.06" r="0.47"/>
		<circle class="st4" cx="74.26" cy="49.06" r="0.47"/>
		<circle class="st4" cx="85.2" cy="49.06" r="0.47"/>
		<circle class="st4" cx="79.73" cy="49.06" r="0.47"/>
		<circle class="st4" cx="90.68" cy="49.06" r="0.47"/>
		<circle class="st4" cx="96.15" cy="49.06" r="0.47"/>
		<circle class="st4" cx="71.53" cy="51.85" r="0.47"/>
		<circle class="st4" cx="77" cy="51.85" r="0.47"/>
		<circle class="st4" cx="87.94" cy="51.85" r="0.47"/>
		<circle class="st4" cx="82.47" cy="51.85" r="0.47"/>
		<circle class="st4" cx="93.41" cy="51.85" r="0.47"/>
		<circle class="st4" cx="98.88" cy="51.85" r="0.47"/>
		<circle class="st4" cx="68.76" cy="54.9" r="0.47"/>
		<circle class="st4" cx="74.23" cy="54.9" r="0.47"/>
		<circle class="st4" cx="85.18" cy="54.9" r="0.47"/>
		<circle class="st4" cx="79.7" cy="54.9" r="0.47"/>
		<circle class="st4" cx="90.65" cy="54.9" r="0.47"/>
		<circle class="st4" cx="96.12" cy="54.9" r="0.47"/>
		<circle class="st4" cx="71.5" cy="57.7" r="0.47"/>
		<circle class="st4" cx="76.97" cy="57.7" r="0.47"/>
		<circle class="st4" cx="87.91" cy="57.7" r="0.47"/>
		<circle class="st4" cx="82.44" cy="57.7" r="0.47"/>
		<circle class="st4" cx="93.38" cy="57.7" r="0.47"/>
		<circle class="st4" cx="98.85" cy="57.7" r="0.47"/>
		<circle class="st4" cx="68.72" cy="60.33" r="0.47"/>
		<circle class="st4" cx="74.19" cy="60.33" r="0.47"/>
		<circle class="st4" cx="79.66" cy="60.33" r="0.47"/>
		<circle class="st4" cx="90.61" cy="60.33" r="0.47"/>
		<circle class="st4" cx="85.14" cy="60.33" r="0.47"/>
		<circle class="st4" cx="96.08" cy="60.33" r="0.47"/>
		<circle class="st4" cx="71.46" cy="63.13" r="0.47"/>
		<circle class="st4" cx="76.93" cy="63.13" r="0.47"/>
		<circle class="st4" cx="82.4" cy="63.13" r="0.47"/>
		<circle class="st4" cx="93.34" cy="63.13" r="0.47"/>
		<circle class="st4" cx="87.87" cy="63.13" r="0.47"/>
		<circle class="st4" cx="98.81" cy="63.13" r="0.47"/>
		<circle class="st4" cx="68.79" cy="65.73" r="0.47"/>
		<circle class="st4" cx="74.26" cy="65.73" r="0.47"/>
		<circle class="st4" cx="85.2" cy="65.73" r="0.47"/>
		<circle class="st4" cx="79.73" cy="65.73" r="0.47"/>
		<circle class="st4" cx="90.68" cy="65.73" r="0.47"/>
		<circle class="st4" cx="96.15" cy="65.73" r="0.47"/>
		<circle class="st4" cx="44.17" cy="68.53" r="0.47"/>
		<circle class="st4" cx="49.64" cy="68.53" r="0.47"/>
		<circle class="st4" cx="38.7" cy="68.53" r="0.47"/>
		<circle class="st4" cx="55.11" cy="68.53" r="0.47"/>
		<circle class="st4" cx="60.58" cy="68.53" r="0.47"/>
		<circle class="st4" cx="66.05" cy="68.53" r="0.47"/>
		<circle class="st4" cx="71.53" cy="68.53" r="0.47"/>
		<circle class="st4" cx="77" cy="68.53" r="0.47"/>
		<circle class="st4" cx="87.94" cy="68.53" r="0.47"/>
		<circle class="st4" cx="82.47" cy="68.53" r="0.47"/>
		<circle class="st4" cx="93.41" cy="68.53" r="0.47"/>
		<circle class="st4" cx="98.88" cy="68.53" r="0.47"/>
	</g>
	<g>
		<circle class="st4" cx="41.41" cy="71.06" r="0.47"/>
		<circle class="st4" cx="46.88" cy="71.06" r="0.47"/>
		<circle class="st4" cx="52.35" cy="71.06" r="0.47"/>
		<circle class="st4" cx="57.82" cy="71.06" r="0.47"/>
		<circle class="st4" cx="63.29" cy="71.06" r="0.47"/>
		<circle class="st4" cx="68.76" cy="71.06" r="0.47"/>
		<circle class="st4" cx="74.23" cy="71.06" r="0.47"/>
		<circle class="st4" cx="85.18" cy="71.06" r="0.47"/>
		<circle class="st4" cx="79.7" cy="71.06" r="0.47"/>
		<circle class="st4" cx="90.65" cy="71.06" r="0.47"/>
		<circle class="st4" cx="96.12" cy="71.06" r="0.47"/>
		<circle class="st4" cx="44.14" cy="73.86" r="0.47"/>
		<circle class="st4" cx="49.61" cy="73.86" r="0.47"/>
		<circle class="st4" cx="38.67" cy="73.86" r="0.47"/>
		<circle class="st4" cx="55.08" cy="73.86" r="0.47"/>
		<circle class="st4" cx="60.56" cy="73.86" r="0.47"/>
		<circle class="st4" cx="66.03" cy="73.86" r="0.47"/>
		<circle class="st4" cx="71.5" cy="73.86" r="0.47"/>
		<circle class="st4" cx="76.97" cy="73.86" r="0.47"/>
		<circle class="st4" cx="87.91" cy="73.86" r="0.47"/>
		<circle class="st4" cx="82.44" cy="73.86" r="0.47"/>
		<circle class="st4" cx="93.38" cy="73.86" r="0.47"/>
		<circle class="st4" cx="98.85" cy="73.86" r="0.47"/>
		<circle class="st4" cx="46.84" cy="76.49" r="0.47"/>
		<circle class="st4" cx="52.31" cy="76.49" r="0.47"/>
		<circle class="st4" cx="57.78" cy="76.49" r="0.47"/>
		<circle class="st4" cx="63.25" cy="76.49" r="0.47"/>
		<circle class="st4" cx="68.72" cy="76.49" r="0.47"/>
		<circle class="st4" cx="74.19" cy="76.49" r="0.47"/>
		<circle class="st4" cx="79.66" cy="76.49" r="0.47"/>
		<circle class="st4" cx="90.61" cy="76.49" r="0.47"/>
		<circle class="st4" cx="85.14" cy="76.49" r="0.47"/>
		<circle class="st4" cx="96.08" cy="76.49" r="0.47"/>
		<circle class="st4" cx="49.57" cy="79.29" r="0.47"/>
		<circle class="st4" cx="55.04" cy="79.29" r="0.47"/>
		<circle class="st4" cx="44.1" cy="79.29" r="0.47"/>
		<circle class="st4" cx="60.52" cy="79.29" r="0.47"/>
		<circle class="st4" cx="65.99" cy="79.29" r="0.47"/>
		<circle class="st4" cx="71.46" cy="79.29" r="0.47"/>
		<circle class="st4" cx="76.93" cy="79.29" r="0.47"/>
		<circle class="st4" cx="82.4" cy="79.29" r="0.47"/>
		<circle class="st4" cx="93.34" cy="79.29" r="0.47"/>
		<circle class="st4" cx="87.87" cy="79.29" r="0.47"/>
		<circle class="st4" cx="98.81" cy="79.29" r="0.47"/>
		<circle class="st4" cx="38.67" cy="79.29" r="0.47"/>
		<circle class="st4" cx="41.43" cy="81.9" r="0.47"/>
		<circle class="st4" cx="46.91" cy="81.9" r="0.47"/>
		<circle class="st4" cx="52.38" cy="81.9" r="0.47"/>
		<circle class="st4" cx="57.85" cy="81.9" r="0.47"/>
		<circle class="st4" cx="63.32" cy="81.9" r="0.47"/>
		<circle class="st4" cx="68.79" cy="81.9" r="0.47"/>
		<circle class="st4" cx="74.26" cy="81.9" r="0.47"/>
		<circle class="st4" cx="85.2" cy="81.9" r="0.47"/>
		<circle class="st4" cx="79.73" cy="81.9" r="0.47"/>
		<circle class="st4" cx="90.68" cy="81.9" r="0.47"/>
		<circle class="st4" cx="96.15" cy="81.9" r="0.47"/>
		<circle class="st4" cx="44.17" cy="84.7" r="0.47"/>
		<circle class="st4" cx="49.64" cy="84.7" r="0.47"/>
		<circle class="st4" cx="38.7" cy="84.7" r="0.47"/>
		<circle class="st4" cx="55.11" cy="84.7" r="0.47"/>
		<circle class="st4" cx="60.58" cy="84.7" r="0.47"/>
		<circle class="st4" cx="66.05" cy="84.7" r="0.47"/>
		<circle class="st4" cx="71.53" cy="84.7" r="0.47"/>
		<circle class="st4" cx="77" cy="84.7" r="0.47"/>
		<circle class="st4" cx="87.94" cy="84.7" r="0.47"/>
		<circle class="st4" cx="82.47" cy="84.7" r="0.47"/>
		<circle class="st4" cx="93.41" cy="84.7" r="0.47"/>
		<circle class="st4" cx="98.88" cy="84.7" r="0.47"/>
		<circle class="st4" cx="41.41" cy="87.74" r="0.47"/>
		<circle class="st4" cx="46.88" cy="87.74" r="0.47"/>
		<circle class="st4" cx="52.35" cy="87.74" r="0.47"/>
		<circle class="st4" cx="57.82" cy="87.74" r="0.47"/>
		<circle class="st4" cx="63.29" cy="87.74" r="0.47"/>
		<circle class="st4" cx="68.76" cy="87.74" r="0.47"/>
		<circle class="st4" cx="74.23" cy="87.74" r="0.47"/>
		<circle class="st4" cx="85.18" cy="87.74" r="0.47"/>
		<circle class="st4" cx="79.7" cy="87.74" r="0.47"/>
		<circle class="st4" cx="90.65" cy="87.74" r="0.47"/>
		<circle class="st4" cx="96.12" cy="87.74" r="0.47"/>
		<circle class="st4" cx="44.14" cy="90.54" r="0.47"/>
		<circle class="st4" cx="49.61" cy="90.54" r="0.47"/>
		<circle class="st4" cx="38.67" cy="90.54" r="0.47"/>
		<circle class="st4" cx="55.08" cy="90.54" r="0.47"/>
		<circle class="st4" cx="60.56" cy="90.54" r="0.47"/>
		<circle class="st4" cx="66.03" cy="90.54" r="0.47"/>
		<circle class="st4" cx="71.5" cy="90.54" r="0.47"/>
		<circle class="st4" cx="76.97" cy="90.54" r="0.47"/>
		<circle class="st4" cx="87.91" cy="90.54" r="0.47"/>
		<circle class="st4" cx="82.44" cy="90.54" r="0.47"/>
		<circle class="st4" cx="93.38" cy="90.54" r="0.47"/>
		<circle class="st4" cx="98.85" cy="90.54" r="0.47"/>
		<circle class="st4" cx="46.84" cy="93.17" r="0.47"/>
		<circle class="st4" cx="41.43" cy="76.49" r="0.47"/>
		<circle class="st4" cx="41.43" cy="93.17" r="0.47"/>
		<circle class="st4" cx="52.31" cy="93.17" r="0.47"/>
		<circle class="st4" cx="57.78" cy="93.17" r="0.47"/>
		<circle class="st4" cx="63.25" cy="93.17" r="0.47"/>
		<circle class="st4" cx="68.72" cy="93.17" r="0.47"/>
		<circle class="st4" cx="74.19" cy="93.17" r="0.47"/>
		<circle class="st4" cx="79.66" cy="93.17" r="0.47"/>
		<circle class="st4" cx="90.61" cy="93.17" r="0.47"/>
		<circle class="st4" cx="85.14" cy="93.17" r="0.47"/>
		<circle class="st4" cx="96.08" cy="93.17" r="0.47"/>
		<circle class="st4" cx="49.57" cy="95.97" r="0.47"/>
		<circle class="st4" cx="55.04" cy="95.97" r="0.47"/>
		<circle class="st4" cx="44.1" cy="95.97" r="0.47"/>
		<circle class="st4" cx="60.52" cy="95.97" r="0.47"/>
		<circle class="st4" cx="65.99" cy="95.97" r="0.47"/>
		<circle class="st4" cx="71.46" cy="95.97" r="0.47"/>
		<circle class="st4" cx="76.93" cy="95.97" r="0.47"/>
		<circle class="st4" cx="82.4" cy="95.97" r="0.47"/>
		<circle class="st4" cx="93.34" cy="95.97" r="0.47"/>
		<circle class="st4" cx="87.87" cy="95.97" r="0.47"/>
		<circle class="st4" cx="98.81" cy="95.97" r="0.47"/>
		<circle class="st4" cx="38.67" cy="95.97" r="0.47"/>
	</g>
</g>
<line class="st2" x1="42.67" y1="48.07" x2="7.13" y2="83.61"/>
<line class="st2" x1="36.76" y1="58.72" x2="1.22" y2="94.26"/>
</svg>
