<?xml version="1.0" encoding="utf-8"?>
<!-- Generator: Adobe Illustrator 25.0.1, SVG Export Plug-In . SVG Version: 6.00 Build 0)  -->
<svg version="1.1" id="Layer_1" xmlns="http://www.w3.org/2000/svg" xmlns:xlink="http://www.w3.org/1999/xlink" x="0px" y="0px"
	 viewBox="0 0 100 100" style="enable-background:new 0 0 100 100;" xml:space="preserve">
<style type="text/css">
	.st0{fill:#004358;}
	.st1{fill:#BCDA27;}
</style>
<g>
	<path class="st0" d="M36.25,90.5c-5.62,0-10.23-4.45-10.49-10.01C16.75,80.23,9.5,72.82,9.5,63.75v-17.5
		c0-7.69,6.13-13.98,13.76-14.24c0.25-6.78,5.72-12.25,12.5-12.5C36.02,13.95,40.63,9.5,46.25,9.5h0.5l0,70.5
		c0,5.62-4.44,10.22-10,10.49v0.01L36.25,90.5z M45.75,10.51c-5.01,0.26-9,4.42-9,9.49v0.5h-0.5c-6.62,0-12,5.38-12,12V33h-0.5
		c-7.31,0-13.25,5.94-13.25,13.25v17.5c0,8.68,7.07,15.75,15.75,15.75h0.5l0,0.5c0,5.17,4.15,9.39,9.29,9.5l0.21,0
		c5.24,0,9.5-4.26,9.5-9.5L45.75,10.51z"/>
</g>
<g>
	<rect x="26.25" y="79.5" class="st0" width="10" height="1"/>
</g>
<g>
	<path class="st0" d="M40,70.5H23.75c-3.03,0-5.5-2.47-5.5-5.5v-8.75h1l0,8.75c0,2.48,2.02,4.5,4.5,4.5H40V70.5z"/>
</g>
<g>
	<path class="st0" d="M29.25,60h-1V46.25c0-2.48-2.02-4.5-4.5-4.5c-2.48,0-4.5,2.02-4.5,4.5h-1c0-3.03,2.47-5.5,5.5-5.5
		c3.03,0,5.5,2.47,5.5,5.5V60z"/>
</g>
<g>
	<path class="st0" d="M38.83,27.42c-0.01-0.01-0.01-0.01-0.02-0.02c-1.97-1.98-3.06-4.61-3.06-7.41l0,0l0,0h1
		c0,2.53,0.99,4.91,2.77,6.71c0,0,0,0,0.01,0.01L38.83,27.42z"/>
</g>
<g>
	<path class="st0" d="M46.25,60.5c-1.27,0-2.47-0.26-3.58-0.72c0,0,0,0,0,0c0,0,0,0,0,0c-3.32-1.4-5.66-4.7-5.67-8.53l0-5
		c0-3.54-1.38-6.87-3.88-9.37l0.71-0.71c0,0,0,0,0,0c2.68,2.68,4.16,6.24,4.17,10.03c0,0,0,0,0,0c0,0.01,0,0.03,0,0.04l0,5
		c0,3.73,2.49,6.89,5.89,7.91c0,0,0,0,0,0c0,0,0,0,0,0c0,0,0,0,0,0c0.7,0.21,1.44,0.33,2.21,0.34c0,0,0.01,0,0.01,0
		c0.01,0,0.01,0,0.02,0c0.01,0,0.01,0,0.02,0c0.03,0,0.06,0,0.09,0V60.5z"/>
</g>
<g>
	<path class="st1" d="M53.75,80c0,5.52,4.48,10,10,10l0,0c5.52,0,10-4.48,10-10h0C82.72,80,90,72.72,90,63.75v-17.5
		c0-7.59-6.15-13.75-13.75-13.75c0-6.9-5.6-12.5-12.5-12.5c0-5.52-4.48-10-10-10L53.75,80z"/>
</g>
<g>
	<rect x="63.75" y="79.62" class="st0" width="10" height="0.75"/>
</g>
<g>
	<path class="st0" d="M76.25,70.38H60v-0.75h16.25c2.55,0,4.62-2.08,4.62-4.62v-8.75h0.75V65C81.62,67.96,79.21,70.38,76.25,70.38z"
		/>
</g>
<g>
	<path class="st0" d="M71.63,60h-0.75V46.25c0-2.96,2.41-5.37,5.38-5.37c2.96,0,5.37,2.41,5.37,5.37h-0.75
		c0-2.55-2.07-4.62-4.62-4.62s-4.62,2.07-4.62,4.62V60z"/>
</g>
<g>
	<path class="st0" d="M61.09,27.34l-0.53-0.53c1.82-1.82,2.82-4.24,2.82-6.8h0.75C64.12,22.77,63.04,25.37,61.09,27.34z"/>
</g>
<g>
	<path class="st0" d="M53.75,60.38v-0.75c4.62,0,8.37-3.76,8.37-8.38l0-5c0-3.76,1.46-7.3,4.11-9.96c0.01-0.01,0.02-0.02,0.03-0.03
		l0,0l0.53,0.53c-0.01,0.01-0.02,0.02-0.03,0.02c-2.51,2.52-3.89,5.87-3.89,9.43l0,5l0,0v0c0,5-4.05,9.08-9.04,9.13
		C53.81,60.38,53.78,60.38,53.75,60.38z"/>
</g>
</svg>
