<svg xmlns="http://www.w3.org/2000/svg" fill="none" viewBox="0 0 355 328">
  <mask id="mask0" width="355" height="328" x="0" y="0" maskUnits="userSpaceOnUse">
    <path fill="#fff" d="M0 0h355v328H0z"/>
  </mask>
  <g mask="url(#mask0)">
    <path fill="#fff" fill-rule="evenodd" stroke="#004357" stroke-width="1.1" d="M255.1 32.7V163L325 296.8a9.5 9.5 0 01-8.4 13.9H146a9.5 9.5 0 01-8.4-13.9l69.5-133.3V32.7h48z" clip-rule="evenodd"/>
    <path fill="#BED73C" fill-rule="evenodd" d="M211.4 230.9c18.3-2 21.5-9.7 35.7-9.7a45 45 0 0127.3 9.7l30.8 59a4.5 4.5 0 01-4 6.6H161.8a4.5 4.5 0 01-4-6.7l32.7-62.7c1.7 3.8 8.7 5 20.9 3.8z" clip-rule="evenodd"/>
    <path fill="#fff" stroke="#004357" stroke-width="1.1" d="M268.1 17H194v15.7H268V17z"/>
    <path fill="#fff" fill-rule="evenodd" d="M84.9 310.1l.1-19 19 .2c.2.3-.6 9.5.3 9.2 4.6-.2 11 3.3 10.6 9.8l-30-.2z" clip-rule="evenodd"/>
    <path fill="#004357" fill-rule="evenodd" d="M104.4 291v9c.7 0 11 .3 11 10.8l-31-.3.2-19.7 19.8.1zm-.9.8l-18-.2-.2 18 29.2.3c.1-6-6-9.2-10.2-9a.9.9 0 01-.8-.9v-8.2z" clip-rule="evenodd"/>
    <path fill="#004357" fill-rule="evenodd" d="M114 307L85 307v-1l29.1.3v.9zM104.3 300.9c-2.7 0-4-2.1-4-4.2 0-2 1.4-4 4-4v.8c-2.1 0-3.1 1.7-3.2 3.3 0 1.5 1 3.2 3.2 3.2v.9z" clip-rule="evenodd"/>
    <path fill="#BED73C" fill-rule="evenodd" d="M110.3 291l-29.6-.3 1.1-143a14.9 14.9 0 1129.6.2l-1.1 143z" clip-rule="evenodd"/>
    <path fill="#004357" fill-rule="evenodd" d="M93 143c-1.3 0-1.5-2-.2-2 1.3-.2 1.5 1.8.2 2zM106.9 143c-1.3.2-1.5-1.9-.2-2 1.3-.1 1.5 2 .2 2zM86.6 152.2c-1.3.2-1.5-1.9-.2-2 1.3-.1 1.5 2 .2 2zM100.5 152.3c-1.3.2-1.5-1.9-.2-2 1.3-.1 1.5 2 .2 2zM92.8 161.6c-1.3.1-1.4-2-.1-2 1.3-.2 1.4 2 .1 2zM106.7 161.7c-1.3.1-1.5-2-.2-2 1.3-.1 1.5 2 .2 2zM86.4 170.9c-1.3.1-1.5-2-.2-2 1.4-.2 1.5 1.9.2 2zM100.3 171c-1.3.1-1.5-2-.2-2 1.3-.2 1.5 1.9.2 2zM92.7 180.3c-1.3 0-1.5-2-.2-2 1.3-.2 1.5 1.9.2 2zM106.6 180.4c-1.3.1-1.5-2-.2-2 1.3-.2 1.5 1.9.2 2zM86.3 189.5c-1.3.2-1.5-1.9-.2-2 1.3-.1 1.5 2 .2 2zM100.2 189.6c-1.3.2-1.5-1.9-.2-2 1.3-.1 1.5 2 .2 2zM92.5 199c-1.3 0-1.4-2-.1-2.1 1.3-.1 1.4 2 .1 2zM106.4 199c-1.3.2-1.5-2-.2-2 1.3-.1 1.5 2 .2 2zM86.1 208.2c-1.3.1-1.5-2-.1-2 1.3-.2 1.4 1.9.1 2zM100 208.3c-1.3.1-1.5-2-.2-2 1.3-.2 1.5 1.9.2 2zM92.4 217.6c-1.3.1-1.5-2-.2-2 1.3-.2 1.5 1.9.2 2zM106.3 217.7c-1.3.1-1.5-2-.2-2 1.3-.2 1.5 1.9.2 2zM86 226.8c-1.3.2-1.5-1.9-.2-2 1.3-.1 1.5 2 .2 2zM99.9 227c-1.3 0-1.5-2-.2-2 1.3-.2 1.5 1.9.2 2zM92.2 236.2c-1.3.2-1.4-2-.1-2 1.3-.1 1.4 2 .1 2zM106.1 236.3c-1.3.2-1.5-1.9-.2-2 1.3-.1 1.5 2 .2 2zM85.8 245.5c-1.3.1-1.5-2-.1-2 1.3-.2 1.4 1.9.1 2zM99.7 245.6c-1.3.1-1.5-2-.2-2 1.3-.2 1.5 2 .2 2zM92 254.9c-1.2.1-1.4-2 0-2 1.2-.2 1.4 1.9 0 2zM106 255c-1.3.1-1.5-2-.2-2 1.3-.2 1.5 1.9.2 2zM85.7 264.2c-1.3 0-1.5-2-.2-2 1.3-.2 1.5 1.9.2 2zM99.6 264.3c-1.3.1-1.5-2-.2-2 1.3-.2 1.5 1.9.2 2zM92 273.5c-1.4.2-1.5-1.9-.2-2 1.3-.1 1.4 2 .1 2zM105.8 273.6c-1.3.2-1.5-1.9-.2-2 1.4-.1 1.5 2 .2 2zM85.5 282.7c-1.3.2-1.4-1.9-.1-2 1.3-.1 1.4 2 .1 2zM99.4 282.9c-1.3 0-1.5-2-.2-2 1.3-.2 1.5 1.9.2 2z" clip-rule="evenodd"/>
    <path fill="#004357" fill-rule="evenodd" d="M54 141.9c.1-32 57.3-32 57.4 0-.1 31.9-57.3 31.9-57.4 0z" clip-rule="evenodd"/>
    <path fill="#004357" fill-rule="evenodd" d="M82.8 290.7l-29.6-.2 1-143c.2-8.3 6.8-14.9 15-14.8 8.2 0 14.8 6.8 14.7 15l-1.1 143z" clip-rule="evenodd"/>
    <path fill="#fff" fill-rule="evenodd" d="M57.4 309.9l.1-19 19 .2c.1.3-.6 9.5.3 9.2 4.6-.2 11 3.3 10.6 9.8l-30-.2z" clip-rule="evenodd"/>
    <path fill="#004357" fill-rule="evenodd" d="M76.9 290.7l-.1 9.1c.7 0 11.1.3 11 10.8l-30.9-.3.2-19.8 19.8.2zm-.9.9l-18-.2-.2 18 29.2.3c0-6-6-9.2-10.2-9a.9.9 0 01-.9-.9l.1-8.2z" clip-rule="evenodd"/>
    <path fill="#004357" fill-rule="evenodd" d="M86.5 306.9l-29.1-.3v-.8l29.1.2v.9zM76.8 300.7c-2.7 0-4-2.1-4-4.2 0-2 1.4-4 4-4v.8c-2.2 0-3.2 1.7-3.2 3.2 0 1.6 1 3.3 3.2 3.3v.9z" clip-rule="evenodd"/>
    <path fill="#fff" fill-rule="evenodd" d="M170.3 51.5c-24 1.9-19.9-4.8-20 19.8l20.3.3c0-6.8 0-13.5-.3-20.1z" clip-rule="evenodd"/>
    <path fill="#004357" fill-rule="evenodd" d="M150.7 70.9l19.5.3c0-6 0-12.3-.3-19.3-5 .4-8.7.4-11.4.4-4 0-6 0-7 1-1.1 1.1-1 3.7-1 9l.2 8.6zm19.9 1.2l-20.4-.4a.4.4 0 01-.4-.4v-9c-.2-5.6-.3-8.2 1-9.6 1.3-1.2 3.4-1.2 7.7-1.2 2.8 0 6.7 0 11.7-.5a.4.4 0 01.5.4A357.4 357.4 0 01171 72l-.3.2z" clip-rule="evenodd"/>
    <path fill="#fff" fill-rule="evenodd" d="M155 53.3c0-3.1-.2-6.3-.4-9.5-.2-4-5.3-3.6-5 .3l.5 11.5" clip-rule="evenodd"/>
    <path fill="#004357" fill-rule="evenodd" d="M150 56a.4.4 0 01-.4-.4c0-3.6-.3-7.5-.5-11.4-.1-2.3 1.3-3.5 2.8-3.6 2-.1 3 1.5 3.1 3.2l.5 9.5a.4.4 0 11-.9 0c0-3-.2-6-.4-9.4-.1-1.8-1.3-2.5-2.3-2.5-1 .1-2 1-2 2.7l.6 11.5c0 .3-.2.5-.4.5z" clip-rule="evenodd"/>
    <path fill="#fff" fill-rule="evenodd" d="M155 53.3c0-3.1-.2-6.3-.4-9.5 0-1.6 1-3 2.4-3.2 1.4 0 2.6 1.2 2.7 3l.5 9.5" clip-rule="evenodd"/>
    <path fill="#004357" fill-rule="evenodd" d="M155 53.7a.4.4 0 01-.4-.4c0-3-.2-6-.4-9.4-.1-2 1.1-3.6 2.7-3.7.7 0 1.4.2 2 .7.7.6 1.2 1.6 1.2 2.6l.5 9.6a.4.4 0 01-.9 0c0-3-.2-6.1-.4-9.5a3 3 0 00-1-2c-.4-.4-.8-.6-1.3-.5-1.2 0-2 1.3-2 2.7l.5 9.5c0 .2-.2.4-.4.4z" clip-rule="evenodd"/>
    <path fill="#fff" fill-rule="evenodd" d="M160.2 53.1l-.5-9.6c-.1-1.7 1-3.1 2.3-3.2 1.4 0 2.7 1.2 2.8 3l.4 9.6" clip-rule="evenodd"/>
    <path fill="#004357" fill-rule="evenodd" d="M160.2 53.6a.4.4 0 01-.5-.5c0-3-.2-6.1-.4-9.5-.2-2 1-3.6 2.7-3.7.7 0 1.4.2 2 .7.7.6 1.1 1.6 1.2 2.6l.5 9.7a.4.4 0 11-.9 0l-.5-9.6a3 3 0 00-.9-2c-.4-.4-.9-.6-1.3-.6-1.2.1-2 1.4-2 2.8l.5 9.6c0 .2-.2.4-.4.5z" clip-rule="evenodd"/>
    <path fill="#fff" fill-rule="evenodd" d="M152.4 71c-6.4.3-8.1-2.4-7.7-8.5-.3-4.2 0-8.5 5.3-9l2.3 4.5" clip-rule="evenodd"/>
    <path fill="#fff" fill-rule="evenodd" d="M150.2 71.3l-5.1-.1v-8.7c-.3-4 0-8.6 4.9-9l.1 4.6" clip-rule="evenodd"/>
    <path fill="#004357" fill-rule="evenodd" d="M150.2 71.7h-5.1a.4.4 0 01-.4-.5v-8.7c-.2-2.3-.3-5.6 1.4-7.6 1-1 2.2-1.7 3.9-1.8a.4.4 0 01.4.4v1l.2 3.6a.4.4 0 01-.9 0l-.1-3.5V54c-1.2.2-2.1.6-2.8 1.4-1.5 1.8-1.4 5-1.2 7v8.4h4.6a.4.4 0 010 1z" clip-rule="evenodd"/>
    <path fill="#fff" fill-rule="evenodd" d="M150.2 58.7l-.2-5.2c-.2-3.9-5.2-3.7-5.1.2l.3 11.3" clip-rule="evenodd"/>
    <path fill="#004357" fill-rule="evenodd" d="M145.2 65.5a.4.4 0 01-.5-.4c0-3.6 0-7.4-.2-11.3-.1-2.2 1.3-3.5 2.8-3.5 2 0 3 1.6 3.1 3.2l.2 5.2a.4.4 0 01-.9 0l-.1-5.1c-.1-1.8-1.2-2.5-2.3-2.5-1 0-2 1-2 2.6l.3 11.3c0 .3-.2.5-.4.5z" clip-rule="evenodd"/>
    <path fill="#fff" fill-rule="evenodd" d="M165.2 53c.4-3-2-10.3 2-10.8 4.2 0 2.6 7.6 3.1 10.5" clip-rule="evenodd"/>
    <path fill="#004357" fill-rule="evenodd" d="M165.2 53.4a.4.4 0 01-.4-.5c.1-.8 0-2-.1-3.2-.4-3.4-.8-7.5 2.5-8 3.5.1 3.5 4.4 3.4 7.8 0 1.2 0 2.4.2 3.1a.4.4 0 11-.9.2c-.2-.8-.1-2-.1-3.3 0-3.8-.1-6.8-2.5-6.9-2.3.3-2.2 3.2-1.8 7 .2 1.3.3 2.5.2 3.4 0 .2-.2.4-.5.4z" clip-rule="evenodd"/>
    <path fill="#fff" fill-rule="evenodd" d="M149 62.4h24.2V22.6H149v39.8z" clip-rule="evenodd"/>
    <path fill="#004357" fill-rule="evenodd" d="M149.4 62h23.4V23h-23.4v39zm-.8.8h25V22.2h-25v40.6z" clip-rule="evenodd"/>
    <path fill="#004357" fill-rule="evenodd" d="M153.3 30h15.6v-1h-15.6v1zM153.3 33.6h15.6v-.9h-15.6v.9zM153.3 37.2h15.6v-.8h-15.6v.8zM153.3 41h15.6v-1h-15.6v1zM153.3 44.6h15.6v-.9h-15.6v.9zM153.3 48.2h15.6v-.8h-15.6v.8zM153.3 52h15.6v-1h-15.6v1zM153.3 55.6h15.6v-.9h-15.6v.9zM142.5 70.8c-.3 9.9-.6 19.7-3.3 29-6.7-5.4-19.5-26.4-35.8-26.5-16.2 0-8.6 20.8-6.2 24.4 4.2 5.9 8.5 11.5 13.5 17 8.7 9.3 20.5 19 34.1 17.2 26.6-4.5 27.4-39.6 28-60.7l-30.3-.4z" clip-rule="evenodd"/>
    <path fill="#BED73C" fill-rule="evenodd" d="M114.8 147.7H51c-2 0-3.8-1.6-4.1-3.6l3.3-57.8c-1-6.9 2.3-13 9.3-13h43.8c9 0 16.2 8.1 15.5 17.1v52.9a4 4 0 01-4 4.4z" clip-rule="evenodd"/>
    <path fill="#BED73C" fill-rule="evenodd" d="M100 73.3c-5.2-22-44-6.5-18.8 11.9.4.4 1 .3 1.5 0l3-3 3-3 5.8 5.6c2.2 2.2 5.7-8.7 5.5-11.5z" clip-rule="evenodd"/>
    <path fill="#BED73C" fill-rule="evenodd" d="M87.6 86.7l-3-3 4.2-4.3 4.2 4.2-3 3 3 9.2 7-22.5H72.8l13.6 22.6 1.2-9.2z" clip-rule="evenodd"/>
    <path fill="#004357" fill-rule="evenodd" d="M93.6 123.3L90 86.7l3-3-4.2-4.3-4.3 4.2 3 3-4.8 36.8c6.4 7.8 5 9.1 10.9-.1z" clip-rule="evenodd"/>
    <path fill="#004357" fill-rule="evenodd" d="M82.1 85.6a3 3 0 01-1.3-.4c-3.3-1.7-8.8-8.5-8.3-12a.3.3 0 01.6.1c-.2 1.4.8 3.7 2.7 6.2 1.6 2.3 3.8 4.4 5.3 5.2.4.2 1 .5 1.4.2l3.3-3.4 2.6-2.6h.5l5.8 5.6c.2.3.4.3.7.2 1.8-.8 4.4-9 4.3-11.4a.3.3 0 01.6 0c.2 2.5-2.4 11-4.7 12-.5.2-1 .1-1.4-.3l-5.5-5.4-2.4 2.4-3.4 3.3c-.2.2-.5.3-.8.3zM96.3 94.3v5.4c-.2 3.5-.3 6 1.2 7.5 1.4 1.3 4.3 1.8 9.6 1.4 1.5 0 2.5-.4 3.3-1.3 1.8-2 1.6-5.8 1.4-9.3v-3.7H96.3zm7.7 15c-3.6 0-5.7-.5-7-1.7-1.6-1.6-1.5-4.3-1.4-8v-6h16.9v.4c-.2 1-.1 2.5 0 4 .2 3.6.4 7.6-1.7 9.8a5 5 0 01-3.6 1.4l-3.2.2zM88.2 147.7h.7V130h-.7v17.7z" clip-rule="evenodd"/>
    <path fill="#fff" fill-rule="evenodd" d="M116.4 131c-10.5-21.5-2.8-20.2-25.8-11.3l7.2 19c6.3-2.4 12.5-5 18.6-7.6z" clip-rule="evenodd"/>
    <path fill="#004357" fill-rule="evenodd" d="M91.1 120l7 18.2c5.6-2.1 11.4-4.6 17.7-7.4-2.1-4.4-3.5-7.8-4.5-10.4-1.5-3.6-2.3-5.6-3.5-6.1-1.5-.6-3.9.4-8.6 2.4l-8 3.2zm6.7 19.2h-.2a.4.4 0 01-.2-.3l-7.2-19c-.1-.3 0-.5.2-.6 3.5-1.3 6.2-2.5 8.4-3.4 5.2-2.2 7.5-3.2 9.3-2.4 1.6.6 2.4 2.6 4 6.6a145 145 0 004.7 11.1c0 .1 0 .2-.2.2a356.8 356.8 0 01-18.8 7.8z" clip-rule="evenodd"/>
    <path fill="#fff" fill-rule="evenodd" d="M109.1 117.6l8.7-4c3.6-1.6 1.4-6.2-2.2-4.5l-10.5 4.7" clip-rule="evenodd"/>
    <path fill="#004357" fill-rule="evenodd" d="M109.1 118a.4.4 0 01-.2-.8l8.7-4c1.6-.7 1.8-2 1.4-3-.4-.8-1.6-1.5-3.2-.8l-10.5 4.8a.4.4 0 01-.4-.8c3.4-1.5 7-3 10.5-4.7 2-1 3.8-.1 4.4 1.2.8 1.8-.3 3.4-1.9 4.2a527.6 527.6 0 01-8.8 4z" clip-rule="evenodd"/>
    <path fill="#fff" fill-rule="evenodd" d="M109.1 117.6l8.7-4c1.5-.6 3.2-.2 3.8 1 .6 1.4-.2 3-1.7 3.7l-8.7 4" clip-rule="evenodd"/>
    <path fill="#004357" fill-rule="evenodd" d="M111.2 122.7a.4.4 0 01-.2-.8l8.7-4a3 3 0 001.5-1.6c.2-.5.2-1 0-1.4-.5-1-2-1.4-3.3-.8l-8.6 3.9a.4.4 0 01-.4-.8l8.7-4c1.7-.7 3.7-.2 4.4 1.3.3.6.3 1.4 0 2.1-.3.9-1 1.6-2 2a538 538 0 01-8.8 4z" clip-rule="evenodd"/>
    <path fill="#fff" fill-rule="evenodd" d="M111.2 122.2c2.9-1.2 5.8-2.6 8.7-4 1.5-.6 3.3-.2 3.9 1 .6 1.4-.2 3-1.8 3.7l-8.8 4" clip-rule="evenodd"/>
    <path fill="#004357" fill-rule="evenodd" d="M113.2 127.3a.4.4 0 01-.2-.8l8.9-4a3 3 0 001.5-1.6c.2-.5.2-1 0-1.4-.5-1-2-1.4-3.3-.8a538 538 0 01-8.8 4 .4.4 0 01-.3-.8l8.7-4c1.8-.8 3.8-.3 4.5 1.2.3.6.3 1.4 0 2.1-.3.9-1 1.7-2 2.1a544.8 544.8 0 01-9 4z" clip-rule="evenodd"/>
    <path fill="#fff" fill-rule="evenodd" d="M91.8 121.6c-2.7-5.8-.9-8.4 5-10.2 3.7-2 8-3.1 10.3 1.6l-3.4 3.8" clip-rule="evenodd"/>
    <path fill="#fff" fill-rule="evenodd" d="M90.6 119.7l-1.8-4.8 8.1-3.2c3.6-1.8 8-3.2 10.2 1.2l-4.2 1.8" clip-rule="evenodd"/>
    <path fill="#004357" fill-rule="evenodd" d="M90.6 120.1a.4.4 0 01-.4-.2l-1.8-4.9a.4.4 0 01.3-.5c2.2-.8 5.8-2.2 8-3.2 2.1-1 5.1-2.3 7.7-1.4 1.3.4 2.3 1.4 3 2.8a.4.4 0 01-.2.6l-1 .4c-1 .5-2 1-3.2 1.4a.4.4 0 01-.3-.8l3.2-1.3.6-.3c-.6-1-1.4-1.7-2.4-2-1.7-.6-4-.1-7 1.4l-7.7 3 1.6 4.4a.4.4 0 01-.4.6z" clip-rule="evenodd"/>
    <path fill="#fff" fill-rule="evenodd" d="M102.3 115l4.7-2c3.6-1.7 1.5-6.3-2-4.7l-10.4 4.4" clip-rule="evenodd"/>
    <path fill="#004357" fill-rule="evenodd" d="M102.3 115.4a.4.4 0 01-.2-.8l4.7-2c1.6-.8 1.9-2 1.5-3-.4-1-1.6-1.6-3.2-1-3.6 1.7-7 3.2-10.4 4.5a.4.4 0 11-.3-.8l10.4-4.4c2-.9 3.7 0 4.3 1.4.8 1.7-.4 3.4-1.9 4a443.9 443.9 0 01-4.9 2.1z" clip-rule="evenodd"/>
    <path fill="#fff" fill-rule="evenodd" d="M113.2 127c2.9-.8 8.7-5.7 10.7-2.2 1.5 4-6.2 5.2-8.6 6.8" clip-rule="evenodd"/>
    <path fill="#004357" fill-rule="evenodd" d="M115.3 132a.4.4 0 01-.3-.8c.7-.5 1.8-.9 3-1.3 3.6-1.4 6.4-2.7 5.6-4.9-1.2-2-3.8-.8-7.2 1-1.1.5-2.2 1.1-3 1.3a.4.4 0 01-.3-.8c.8-.2 1.8-.8 3-1.3 2.9-1.6 6.6-3.5 8.2-.6 1.3 3.3-2.8 4.8-6 6l-2.8 1.3-.2.1zM99 140.7l-10.8-28.4c-9.3 3.4-18.5 6.7-28.1 7.6a73.8 73.8 0 017.1-15.4c1.5-2.6 3-5.1 4.7-7.6 4.3-6.6 2-15.4-4.2-20.3a14.5 14.5 0 00-21.1 3.5c-4 6-7.6 12.2-10.8 18.8-4.3 9-8 19.3-6.4 29.3a25.5 25.5 0 0021.3 21.4c16.5 2.7 33.2-3.5 48.3-8.9zM85.5 61.4a5.7 5.7 0 11-11.4 0 5.7 5.7 0 0111.4 0z" clip-rule="evenodd"/>
    <path fill="#004357" fill-rule="evenodd" d="M102.2 51.1c0 6.6-5.9 11.9-13 11.9C81.8 63 76 57.7 76 51c0-6.6 5.8-11.9 13-11.9s13 5.3 13 11.9z" clip-rule="evenodd"/>
    <path fill="#fff" fill-rule="evenodd" d="M88.4 74.6c-4.1 0-7.9-3.1-7.9-6.9L84 55c0-3.8-1-6.8 3-6.8h4.4c4.1 0 3.1 3 3.1 6.8v13c0 3.7-2 6.7-6.1 6.7z" clip-rule="evenodd"/>
    <path fill="#004357" fill-rule="evenodd" d="M81 67.8c0 3.4 3.5 6.4 7.4 6.4 4.2 0 5.7-3.3 5.7-6.4v-13V53c.1-1.7.2-3.1-.5-3.8-.4-.5-1.1-.7-2.2-.7h-4.3c-1 0-1.8.2-2.2.7-.7.7-.6 2.1-.5 3.8v1.9L81 67.8zm7.4 7.2C84 75 80 71.6 80 67.7l3.5-12.9V53c-.2-1.8-.2-3.4.7-4.4.6-.6 1.5-1 2.8-1h4.3c1.3 0 2.2.4 2.8 1 1 1 .9 2.6.8 4.4V68c0 4.3-2.6 7.1-6.6 7.1z" clip-rule="evenodd"/>
    <path fill="#fff" fill-rule="evenodd" d="M102.7 53.2a3.3 3.3 0 11-6.6 0 3.3 3.3 0 016.6 0z" clip-rule="evenodd"/>
    <path fill="#004357" fill-rule="evenodd" d="M99.4 50.3a2.9 2.9 0 100 5.7 2.9 2.9 0 000-5.7zm0 6.6a3.7 3.7 0 110-7.5 3.7 3.7 0 010 7.5z" clip-rule="evenodd"/>
    <path fill="#fff" fill-rule="evenodd" d="M90.9 63.4a9.4 9.4 0 01-8.7-5.7l-.1-.3a9.4 9.4 0 0117.3-7.5l.1.3a9.4 9.4 0 01-4.9 12.4c-1.2.5-2.4.8-3.7.8z" clip-rule="evenodd"/>
    <path fill="#004357" fill-rule="evenodd" d="M90.7 43.8a9.8 9.8 0 00-9.1 6.2c-1 2.4-1 5.1 0 7.5l.2.4A9.9 9.9 0 10100 50l-.1-.3a9.9 9.9 0 00-9-6zm0 .8a9 9 0 018.3 5.5l.1.3a9 9 0 11-16.5 7.1l-.1-.3a9 9 0 018.2-12.6z" clip-rule="evenodd"/>
    <path fill="#fff" fill-rule="evenodd" d="M82 56.4a3.3 3.3 0 11.7-6.5" clip-rule="evenodd"/>
    <path fill="#004357" fill-rule="evenodd" d="M82 56.9a3.7 3.7 0 11.8-7.4.4.4 0 11-.2.9l-.5-.1a2.9 2.9 0 000 5.7.4.4 0 010 .9zM102.7 48H91.6c-4 0-7.3-3.2-7.3-7.2 0-.9 3.2-1.6 4-1.6h7c4 0 7.4 3.3 7.4 7.3v1.6z" clip-rule="evenodd"/>
    <path fill="#004357" d="M84.2 50.9a3 3 0 100-6 3 3 0 000 6z"/>
    <path fill="#BED73C" fill-rule="evenodd" d="M92.2 56.9h1.6c.5 0 .8-.7.7-1.3l-.7-4.7c-.1-1.1-1.1-1.2-1.3-.1l-1 4.7c-.1.7.2 1.4.7 1.4z" clip-rule="evenodd"/>
    <path fill="#004357" fill-rule="evenodd" d="M92.6 59.3c-1.1 0-2.2-.4-3.1-1.2a.4.4 0 11.6-.7 3.5 3.5 0 005 0 .4.4 0 11.6.7c-.8.8-2 1.2-3 1.2zM90 51.8a1 1 0 11-.1-2 1 1 0 01.2 2zM95.5 51.8a1 1 0 11-.2-2 1 1 0 01.2 2z" clip-rule="evenodd"/>
    <path fill="#004357" fill-rule="evenodd" d="M92 48c.3 0 .5.2.5.5v1.2l.4-.2c.3 0 .6 0 .8.2v-1.2c0-.3.2-.4.5-.4h5.3c.2 0 .4.1.4.4v2.3c0 1.2-1 2.3-2.3 2.3h-2.2c-1 0-1.7-.8-1.7-1.7v-.7c-.2-.2-.4-.3-.7-.3-.2 0-.4.3-.5.4v.6c0 .9-.8 1.7-1.7 1.7h-2.4C87 53 86 52 86 50.8V50l-2.9.6a.4.4 0 11-.2-.8l3-.7v-.7c0-.3.3-.4.5-.4H92zm-.4 1H87v1.8c0 .8.7 1.4 1.5 1.4h2.4c.4 0 .8-.4.8-.8v-2.5zm7.4 0h-4.4v2.4c0 .4.4.8.8.8h2.2c.8 0 1.4-.6 1.4-1.4v-1.9zM319.7 146.4A39 39 0 00297 135h-.3v-.2a28 28 0 00-26-32.6c-7-.3-13.7 2-19 6.4h-.2a80 80 0 00-110 3.5l-.3-.3a80.4 80.4 0 01110.4-3.7 28.1 28.1 0 0137.8 2 28.4 28.4 0 017.8 24.5c8.8 1.2 16.7 5 23 11.3l-.4.4z" clip-rule="evenodd"/>
    <path fill="#004357" fill-rule="evenodd" d="M127.5 206.6a80.4 80.4 0 0139-103.3l.3.4a80 80 0 00-38.9 102.7l-.4.2zM310.8 194l-.3-.4a27.8 27.8 0 00-13.9-50.4v-.4a28.4 28.4 0 0114.2 51.1zM288 221.2h-.2a.3.3 0 010-.5l17.3-17.3a.3.3 0 11.4.5l-17.3 17.3h-.2zM149.8 180.6l-.2-.1a.3.3 0 010-.4l58.6-58.7a.3.3 0 11.4.5L150 180.5h-.2zM179.2 234.6a.3.3 0 01-.2-.5l95.8-100a.3.3 0 01.5.5l-96 100h-.1zM148 197.2l-.1-.1a.3.3 0 010-.4l54.8-54.9a.3.3 0 11.4.5L148.3 197h-.2zM220.2 230l-.2-.1a.3.3 0 010-.5l59.1-59a.3.3 0 11.4.3l-59 59.2h-.3zM249.7 213.8h-.2a.3.3 0 010-.5l28.1-28.1a.3.3 0 11.4.4l-28 28.1-.3.1z" clip-rule="evenodd"/>
    <path fill="#BED73C" d="M148.2 157.7l30.4-30.4 30.4 30.4-30.4 30.4-30.4-30.4z"/>
    <path fill="#8EBC41" fill-rule="evenodd" d="M257.2 170.4a14.4 14.4 0 11-20.3-20.3 14.4 14.4 0 0120.3 20.3z" clip-rule="evenodd"/>
    <path fill="#1C8A70" fill-rule="evenodd" d="M225.4 214a14.4 14.4 0 11-20.3-20.3 14.4 14.4 0 0120.3 20.3z" clip-rule="evenodd"/>
    <path fill="#BED73C" fill-rule="evenodd" d="M280.3 213.8a7.3 7.3 0 11-10.4-10.3 7.3 7.3 0 0110.4 10.3z" clip-rule="evenodd"/>
    <path fill="#004357" fill-rule="evenodd" d="M170.8 163.4a.6.6 0 111 .8.6.6 0 01-1-.8zM164.3 170a.6.6 0 111 .8.6.6 0 01-1-.8zM169.6 155.8a.6.6 0 111 .8.6.6 0 01-1-.8zM162.8 162.5a.6.6 0 111 .8.6.6 0 01-1-.8zM162.2 154.5a.6.6 0 111 .8.6.6 0 01-1-.8zM155.4 161a.6.6 0 111 .8.6.6 0 01-1-.8zM160.6 147a.6.6 0 111 .7.6.6 0 01-1-.8zM153.8 153.6a.6.6 0 111 .8.6.6 0 01-1-.8zM153 145.4a.6.6 0 111 .8.6.6 0 01-1-.8zM187.8 174.1a.6.6 0 111 .8.6.6 0 01-1-.8zM180.3 172.6a.6.6 0 111 .8.6.6 0 01-1-.8zM178.8 165.2a.6.6 0 111 .8.6.6 0 01-1-.8zM172.2 171.8a.6.6 0 111 .8.6.6 0 01-1-.8zM201.4 160.6a.6.6 0 111 .8.6.6 0 01-1-.8zM194.6 167.2a.6.6 0 111 .8.6.6 0 01-1-.8zM193.8 159.1a.6.6 0 111 .8.6.6 0 01-1-.8zM187.2 165.8a.6.6 0 111 .8.6.6 0 01-1-.8zM192.5 151.6a.6.6 0 111 .8.6.6 0 01-1-.8zM185.7 158.2a.6.6 0 111 .8.6.6 0 01-1-.8zM275.7 211.3a.6.6 0 111 .8.6.6 0 01-1-.8zM274.2 203.7a.6.6 0 111 .8.6.6 0 01-1-.8zM254.6 163.8a.6.6 0 111 .8.6.6 0 01-1-.8zM247.8 170.6a.6.6 0 111 .8.6.6 0 01-1-.8zM247 162.5a.6.6 0 111 .8.6.6 0 01-1-.8zM240.4 169a.6.6 0 111 .9.6.6 0 01-1-.8zM245.6 154.8a.6.6 0 111 .8.6.6 0 01-1-.8zM239 161.6a.6.6 0 111 .8.6.6 0 01-1-.8zM220.8 207.7a.6.6 0 111 .9.6.6 0 01-1-.9zM214 214.4a.6.6 0 111 .8.6.6 0 01-1-.8zM213.3 206.4a.6.6 0 111 .8.6.6 0 01-1-.8zM206.6 213a.6.6 0 111 .8.6.6 0 01-1-.8zM205.2 205.5a.6.6 0 111 .8.6.6 0 01-1-.8zM204.3 197.4a.6.6 0 111 .8.6.6 0 01-1-.8z" clip-rule="evenodd"/>
    <path fill="#BED73C" fill-rule="evenodd" d="M57.2 255.6A7.3 7.3 0 1147 245.3a7.3 7.3 0 0110.3 10.3z" clip-rule="evenodd"/>
  </g>
</svg>
