<svg xmlns="http://www.w3.org/2000/svg" fill="none" viewBox="0 0 355 328">
  <mask id="mask0" width="355" height="328" x="0" y="0" maskUnits="userSpaceOnUse">
    <path fill="#fff" d="M0 0h355v328H0z"/>
  </mask>
  <g mask="url(#mask0)">
    <path fill="#fff" fill-rule="evenodd" stroke="#004357" stroke-width=".5" d="M249.3 19.6H136c-5.7 0-10.3 4.6-10.3 10.3v143.8H259.6V29.9c0-5.7-4.6-10.3-10.3-10.3z" clip-rule="evenodd"/>
    <path fill="#fff" fill-rule="evenodd" stroke="#004357" stroke-width=".5" d="M255.5 169.4H129.8c-6.2 0-11.3.2-11.3.4V174.6c0 .2 5 .4 11.3.4h125.6c6.4 0 11.4-.2 11.4-.4V169.8c0-.2-5-.4-11.3-.4z" clip-rule="evenodd"/>
    <path fill="#004357" fill-rule="evenodd" d="M149.6 97.4h13.8v-12h-13.8v12zm-.7.7h15.2V84.8h-15.2V98z" clip-rule="evenodd"/>
    <path fill="#004357" fill-rule="evenodd" d="M164 97.4h13.8v-12h-13.7v12zm-.6.7h15.2V84.8h-15.2V98z" clip-rule="evenodd"/>
    <path fill="#004357" fill-rule="evenodd" d="M178.6 97.4h13.7v-12h-13.8v12zm-.8.7H193V84.8h-15.2V98z" clip-rule="evenodd"/>
    <path fill="#004357" fill-rule="evenodd" d="M193 97.4h13.8v-12H193v12zm-.7.7h15.2V84.8h-15.2V98z" clip-rule="evenodd"/>
    <path fill="#004357" fill-rule="evenodd" d="M207.5 97.4h13.7v-12h-13.7v12zm-.7.7h15.1V84.8h-15.1V98z" clip-rule="evenodd"/>
    <path fill="#004357" fill-rule="evenodd" d="M222 97.4h13.7v-12h-13.8v12zm-.8.7h15.2V84.8h-15.2V98zM149.6 84.8h13.8V72.9h-13.8v11.9zm-.7.7h15.2V72.2h-15.2v13.3z" clip-rule="evenodd"/>
    <path fill="#004357" fill-rule="evenodd" d="M164 84.8h13.8V72.9h-13.7v11.9zm-.6.7h15.2V72.2h-15.2v13.3z" clip-rule="evenodd"/>
    <path fill="#004357" fill-rule="evenodd" d="M178.6 84.8h13.7V72.9h-13.8v11.9zm-.8.7H193V72.2h-15.2v13.3z" clip-rule="evenodd"/>
    <path fill="#004357" fill-rule="evenodd" d="M193 84.8h13.8V72.9H193v11.9zm-.7.7h15.2V72.2h-15.2v13.3z" clip-rule="evenodd"/>
    <path fill="#004357" fill-rule="evenodd" d="M207.5 84.8h13.7V72.9h-13.7v11.9zm-.7.7h15.1V72.2h-15.1v13.3z" clip-rule="evenodd"/>
    <path fill="#004357" fill-rule="evenodd" d="M222 84.8h13.7V72.9h-13.8v11.9zm-.8.7h15.2V72.2h-15.2v13.3zM149.6 72.2h13.8V60.3h-13.8v11.9zm-.7.7h15.2V59.6h-15.2v13.3z" clip-rule="evenodd"/>
    <path fill="#004357" fill-rule="evenodd" d="M164 72.2h13.8V60.3h-13.7v11.9zm-.6.7h15.2V59.6h-15.2v13.3z" clip-rule="evenodd"/>
    <path fill="#004357" fill-rule="evenodd" d="M178.6 72.2h13.7V60.3h-13.8v11.9zm-.8.7H193V59.6h-15.2v13.3z" clip-rule="evenodd"/>
    <path fill="#004357" fill-rule="evenodd" d="M193 72.2h13.8V60.3H193v11.9zm-.7.7h15.2V59.6h-15.2v13.3z" clip-rule="evenodd"/>
    <path fill="#004357" fill-rule="evenodd" d="M207.5 72.2h13.7V60.3h-13.7v11.9zm-.7.7h15.1V59.6h-15.1v13.3z" clip-rule="evenodd"/>
    <path fill="#004357" fill-rule="evenodd" d="M222 72.2h13.7V60.3h-13.8v11.9zm-.8.7h15.2V59.6h-15.2v13.3zM149.6 59.6h13.8V47.7h-13.8v11.9zm-.7.7h15.2V47h-15.2v13.3z" clip-rule="evenodd"/>
    <path fill="#004357" fill-rule="evenodd" d="M164 59.6h13.8V47.7h-13.7v11.9zm-.6.7h15.2V47h-15.2v13.3z" clip-rule="evenodd"/>
    <path fill="#004357" fill-rule="evenodd" d="M178.6 59.6h13.7V47.7h-13.8v11.9zm-.8.7H193V47h-15.2v13.3z" clip-rule="evenodd"/>
    <path fill="#004357" fill-rule="evenodd" d="M193 59.6h13.8V47.7H193v11.9zm-.7.7h15.2V47h-15.2v13.3z" clip-rule="evenodd"/>
    <path fill="#004357" fill-rule="evenodd" d="M207.5 59.6h13.7V47.7h-13.7v11.9zm-.7.7h15.1V47h-15.1v13.3z" clip-rule="evenodd"/>
    <path fill="#004357" fill-rule="evenodd" d="M222 59.6h13.7V47.7h-13.8v11.9zm-.8.7h15.2V47h-15.2v13.3zM149.6 47h13.8V35h-13.8V47zm-.7.7h15.2V34.4h-15.2v13.3z" clip-rule="evenodd"/>
    <path fill="#004357" fill-rule="evenodd" d="M164 47h13.8V35h-13.7V47zm-.6.7h15.2V34.4h-15.2v13.3z" clip-rule="evenodd"/>
    <path fill="#004357" fill-rule="evenodd" d="M178.6 47h13.7V35h-13.8V47zm-.8.7H193V34.4h-15.2v13.3z" clip-rule="evenodd"/>
    <path fill="#004357" fill-rule="evenodd" d="M193 47h13.8V35H193V47zm-.7.7h15.2V34.4h-15.2v13.3z" clip-rule="evenodd"/>
    <path fill="#004357" fill-rule="evenodd" d="M207.5 47h13.7V35h-13.7V47zm-.7.7h15.1V34.4h-15.1v13.3z" clip-rule="evenodd"/>
    <path fill="#004357" fill-rule="evenodd" d="M222 47h13.7V35h-13.8V47zm-.8.7h15.2V34.4h-15.2v13.3z" clip-rule="evenodd"/>
    <path fill="#BED73C" fill-rule="evenodd" d="M149.3 97.3a.6.6 0 01-.4-1.1l34.9-30.4c.2-.2.6-.2.8 0l14 12.2L214 64a.6.6 0 011 .1l1.9 2.7 9.7-16a.6.6 0 111.1.7l-10.2 16.7a.6.6 0 01-1 0l-2.1-2.8L199 79.3c-.2.2-.6.2-.8 0l-14.1-12.2-34.5 30-.4.2zM181.1 121a18.2 18.2 0 11-13.6-6.1v18.1l13.6-12z" clip-rule="evenodd"/>
    <path fill="#004357" fill-rule="evenodd" d="M236 121.3h-43.3a.4.4 0 110-.7H236a.4.4 0 110 .7zM236 129.4h-43.3a.4.4 0 110-.7H236a.4.4 0 110 .7zM236 137.4h-43.3a.4.4 0 110-.7H236a.4.4 0 110 .7zM236 145.4h-43.3a.4.4 0 110-.7H236a.4.4 0 110 .7z" clip-rule="evenodd"/>
    <path fill="#fff" fill-rule="evenodd" d="M-20 186.6a65.2 65.2 0 0024.3 14.6l-4.3 13a79.6 79.6 0 01-23.8-12.7c-.5-.3-.6.4-1.4 1-3 3-7.6 2.4-10.3-.6l15.5-15.3z" clip-rule="evenodd"/>
    <path fill="#004357" fill-rule="evenodd" d="M.2 214.7c-8.7-2.9-16.9-7.4-24.1-13-3 4-8.5 4.3-12.3 0l16.4-15.4A64.7 64.7 0 004.7 201L.2 214.7zm-.4-.8l4.1-12.5c-8.9-3-17.1-8-24-14.5-3.3 3.5-11.6 11.8-14.9 15 3.2 3.3 8 2.8 10.5-.6.2-.3.7-.3 1 0A79 79 0 00-.3 213.7z" clip-rule="evenodd"/>
    <path fill="#fff" fill-rule="evenodd" d="M54.3 279c.2-11.2.8-22.2 1.7-33.2l13.7 1.1c-.7 8.3-1.2 16.6-1.5 24.9 0 .1.1.3.3.3 3.4 0 7.8 2.6 7.6 7.1l-21.8-.3z" clip-rule="evenodd"/>
    <path fill="#004357" fill-rule="evenodd" d="M70 246.6c-.7 8.4-1.2 16.8-1.5 25.2 3.6 0 8.2 2.8 7.9 7.7l-22.4-.2c.1-11.3.8-22.6 1.7-33.9l14.3 1.2zm-.7.6l-13-1c-1 10.7-1.5 21.6-1.7 32.4l21.2.3c0-4.2-4.3-6.5-7.3-6.5a.6.6 0 01-.6-.6c.3-8.2.7-16.4 1.4-24.6z" clip-rule="evenodd"/>
    <path fill="#fff" fill-rule="evenodd" d="M68.2 271.2l-.2 6.3z" clip-rule="evenodd"/>
    <path fill="#004357" fill-rule="evenodd" d="M68 277.9a.3.3 0 01-.3-.4l.2-6.3c0-.2.1-.3.3-.3.2 0 .3.2.3.3l-.2 6.4c0 .1-.1.3-.3.3z" clip-rule="evenodd"/>
    <path fill="#fff" fill-rule="evenodd" d="M71.3 272.7l-.1 5z" clip-rule="evenodd"/>
    <path fill="#004357" fill-rule="evenodd" d="M71.2 278a.3.3 0 01-.4-.4l.2-4.5v-.4a.3.3 0 01.6 0v.4l-.1 4.5c0 .2-.2.3-.3.3z" clip-rule="evenodd"/>
    <path fill="#BED73C" fill-rule="evenodd" d="M73 265.4l-21.4-1c.9-19.7 3-39.4 6.4-59l7.5-44.7a10.7 10.7 0 1121.2 3.7c-3.2 18.5-6.3 37-9.3 55.7-2.3 15-3.6 30.2-4.3 45.3z" clip-rule="evenodd"/>
    <path fill="#004357" fill-rule="evenodd" d="M54.4 264.8a.3.3 0 01-.4-.3c1.2-29.8 6.4-59.8 11.5-88.7l3.7-22.2c0-.2.2-.3.4-.3s.3.2.3.4L66 176c-5 29-10.3 58.8-11.4 88.6 0 .2-.2.3-.3.3zM59.7 265.1a.3.3 0 01-.3-.3c1.1-30.1 6.4-60.3 11.5-89.5l4.1-23.9a.3.3 0 01.6.1l-4 23.9A679 679 0 0060 264.8c0 .2-.2.3-.3.3zM65 265.3a.3.3 0 01-.3-.3c1.1-29.8 6.4-59.7 11.4-88.7l4.1-24a.3.3 0 01.7.1l-4.1 24c-5.1 29-10.3 58.9-11.5 88.6 0 .2-.2.3-.3.3zM70.3 265.6a.3.3 0 01-.3-.3c1-29.1 6.2-58.2 11-86.4l4-22.6a.3.3 0 11.6.1l-4 22.6c-4.8 28.2-9.9 57.3-11 86.3 0 .2-.2.3-.3.3zM76 278l-21.7-.4v-.6l21.7.4v.6z" clip-rule="evenodd"/>
    <path fill="#004357" fill-rule="evenodd" d="M46.4 159c.1-23.3 41.6-23.3 41.7 0 0 23.1-41.6 23.1-41.7 0z" clip-rule="evenodd"/>
    <path fill="#004357" fill-rule="evenodd" d="M-20.6 209.4l11.8-18c9 5.8 19.6 9.5 30.4 9.5 4.5 0 9.3-.5 12.8-3.5 7-6.1 9.2-16 10.7-25 .6-3.7 1-7.4 1-11 .3-5.9 4.9-10.7 10.8-11.1 6.4-.5 11 5.5 10.8 12a89.5 89.5 0 01-9.8 39.8 38 38 0 01-24.6 19.1 74 74 0 01-53.9-11.8z" clip-rule="evenodd"/>
    <path fill="#fff" fill-rule="evenodd" d="M131.2 91.3c-17.3 1.3-14.4-3.5-14.5 14.4l14.7.2c.1-5 0-9.8-.2-14.6z" clip-rule="evenodd"/>
    <path fill="#004357" fill-rule="evenodd" d="M117 105.4l14.1.2c0-4.4 0-9-.2-14-3.5.3-6.3.3-8.2.3-2.9 0-4.4 0-5.1.7-.8.8-.8 2.7-.7 6.5v6.3zm14.4.8l-14.7-.2a.3.3 0 01-.4-.3V99c-.1-4-.1-6 .8-7 .9-.8 2.5-.8 5.6-.8 2 0 4.8 0 8.5-.4a.3.3 0 01.3.3 258.3 258.3 0 01.2 15h-.3z" clip-rule="evenodd"/>
    <path fill="#fff" fill-rule="evenodd" d="M120.2 92.6l-.4-6.9c-.1-2.9-3.8-2.6-3.6.2l.3 8.4" clip-rule="evenodd"/>
    <path fill="#004357" fill-rule="evenodd" d="M116.5 94.6a.3.3 0 01-.3-.3c0-2.7-.2-5.5-.4-8.3 0-1.7 1-2.6 2-2.6 1.5-.1 2.3 1 2.4 2.3 0 2.5.2 4.7.3 6.9a.3.3 0 01-.6 0l-.4-6.9c0-1.2-.9-1.8-1.6-1.7-.7 0-1.5.7-1.4 2l.3 8.3c0 .1 0 .3-.3.3z" clip-rule="evenodd"/>
    <path fill="#fff" fill-rule="evenodd" d="M120.2 92.6l-.4-6.9c0-1.2.7-2.2 1.7-2.3 1 0 2 .9 2 2.1l.4 7" clip-rule="evenodd"/>
    <path fill="#004357" fill-rule="evenodd" d="M120.2 93a.3.3 0 01-.3-.4l-.4-6.9c0-1.3.8-2.5 2-2.6.5 0 1 .1 1.5.5.5.5.8 1.1.8 1.9l.4 7a.3.3 0 11-.6 0l-.4-7c0-.6-.3-1-.7-1.4-.2-.3-.6-.4-1-.4-.8 0-1.4 1-1.3 2 0 2.5.2 4.7.3 6.9 0 .2-.1.3-.3.3z" clip-rule="evenodd"/>
    <path fill="#fff" fill-rule="evenodd" d="M123.9 92.5l-.4-7c0-1.2.7-2.3 1.7-2.3 1-.1 2 .9 2 2l.4 7.1" clip-rule="evenodd"/>
    <path fill="#004357" fill-rule="evenodd" d="M123.9 92.8a.3.3 0 01-.3-.3l-.4-7c0-1.4.8-2.6 2-2.6.5 0 1 .1 1.4.5.6.4.9 1.1 1 1.9 0 2.5.2 4.8.3 7a.3.3 0 11-.7 0l-.3-7c0-.6-.3-1.1-.7-1.5-.3-.2-.6-.3-1-.3-.8 0-1.4 1-1.4 2l.4 7c0 .1-.1.3-.3.3z" clip-rule="evenodd"/>
    <path fill="#fff" fill-rule="evenodd" d="M118.3 105.4c-4.7.2-6-1.7-5.6-6.1-.3-3 0-6.2 3.8-6.6l1.7 3.3" clip-rule="evenodd"/>
    <path fill="#fff" fill-rule="evenodd" d="M116.7 105.7l-3.8-.1v-6.3c-.2-2.9 0-6.3 3.6-6.6v3.4" clip-rule="evenodd"/>
    <path fill="#004357" fill-rule="evenodd" d="M116.7 106l-3.8-.1-.2-.1v-.2-6.3c-.2-1.7-.3-4 1-5.6.6-.7 1.6-1.2 2.8-1.3l.2.1v.2l.1.8.1 2.6a.3.3 0 01-.6 0l-.1-2.6v-.4a3 3 0 00-2 1c-1.1 1.3-1 3.6-1 5.2v6h3.5a.3.3 0 010 .7z" clip-rule="evenodd"/>
    <path fill="#fff" fill-rule="evenodd" d="M116.6 96.5l-.1-3.7c-.1-2.9-3.8-2.7-3.7.1l.2 8.2" clip-rule="evenodd"/>
    <path fill="#004357" fill-rule="evenodd" d="M113 101.4a.3.3 0 01-.3-.3l-.2-8.2c0-1.6 1-2.5 2-2.5 1.4 0 2.2 1.1 2.3 2.4l.1 3.7a.3.3 0 11-.6 0l-.1-3.7c0-1.3-.9-1.8-1.6-1.8-.8 0-1.5.7-1.5 2l.2 8.1c0 .2-.1.3-.3.3z" clip-rule="evenodd"/>
    <path fill="#fff" fill-rule="evenodd" d="M127.6 92.3c.2-2.1-1.5-7.4 1.4-7.8 3 .1 1.8 5.6 2.3 7.7" clip-rule="evenodd"/>
    <path fill="#004357" fill-rule="evenodd" d="M127.6 92.6a.3.3 0 01-.4-.3V90c-.3-2.5-.6-5.5 1.8-5.8 2.5 0 2.5 3.2 2.5 5.7V92a.3.3 0 11-.6.1v-2.4c0-2.7-.1-4.9-1.9-5-1.6.3-1.5 2.4-1.2 5v2.6c0 .1 0 .2-.2.2z" clip-rule="evenodd"/>
    <path fill="#fff" fill-rule="evenodd" d="M115.8 99.2h17.5V70.3h-17.5v28.9z" clip-rule="evenodd"/>
    <path fill="#004357" fill-rule="evenodd" d="M116 98.9h17V70.6h-17V99zm-.6.6h18.2V70h-18.2v29.5z" clip-rule="evenodd"/>
    <path fill="#004357" fill-rule="evenodd" d="M118.9 75.6h11.3V75H119v.6zM118.9 78.3h11.3v-.6H119v.6zM118.9 81h11.3v-.7H119v.6zM118.9 83.6h11.3V83H119v.6zM118.9 86.3h11.3v-.7H119v.7zM118.9 89h11.3v-.7H119v.6zM118.9 91.6h11.3V91H119v.6zM118.9 94.3h11.3v-.7H119v.7zM111 105.3a80 80 0 01-2.4 21c-4.8-3.9-14.1-19.1-26-19.2-11.7 0-6.2 15.1-4.4 17.7 3 4.3 6.2 8.4 9.8 12.3 6.3 6.8 14.9 13.8 24.7 12.5 19.3-3.2 20-28.7 20.4-44l-22-.3z" clip-rule="evenodd"/>
    <path fill="#BED73C" fill-rule="evenodd" d="M91 161.1H44.5a3 3 0 01-3-2.6l2.4-42c-.6-5 1.7-9.4 6.8-9.4h31.8c6.6 0 11.8 6 11.2 12.5v38.3a3 3 0 01-2.9 3.2z" clip-rule="evenodd"/>
    <path fill="#BED73C" fill-rule="evenodd" d="M80.2 107.1c-3.8-16-32-4.7-13.7 8.6.4.3.8.3 1.1 0l2.2-2.2 2.2-2.1 4.2 4c1.6 1.7 4.1-6.3 4-8.3z" clip-rule="evenodd"/>
    <path fill="#BED73C" fill-rule="evenodd" d="M71.2 116.8l-2.2-2.2 3-3 3.1 3-2.2 2.2 2.2 6.6 5.1-16.3H60.5l9.8 16.4.9-6.7z" clip-rule="evenodd"/>
    <path fill="#004357" fill-rule="evenodd" d="M75.5 143.4L73 116.8l2.2-2.2-3-3-3.1 3 2.2 2.2-3.6 26.7c4.7 5.6 3.7 6.6 8-.1z" clip-rule="evenodd"/>
    <path fill="#004357" fill-rule="evenodd" d="M67.2 116c-.3 0-.6 0-1-.2-2.3-1.3-6.3-6.2-6-8.7a.2.2 0 01.5 0c-.2 1 .6 2.7 1.9 4.5 1.2 1.7 2.8 3.2 3.8 3.8.3.1.8.3 1 .1l2.5-2.4 1.9-2h.3l4.2 4.2c.2.1.3.2.5 0 1.4-.5 3.3-6.4 3.2-8.2 0-.1 0-.2.2-.2.1 0 .2 0 .2.2.2 1.8-1.8 8-3.4 8.7-.3.2-.7.1-1-.2l-4-4-1.8 1.8-2.4 2.5-.6.2zM77.5 122.3v4c-.1 2.5-.2 4.4.9 5.4 1 1 3.1 1.3 7 1a3 3 0 002.3-.9c1.3-1.4 1.2-4.2 1-6.7v-2.8H77.5zm5.6 11c-2.6 0-4.1-.4-5-1.3-1.3-1.1-1.2-3-1.1-5.7v-4.4h12.3v.2c-.2.8-.1 1.8 0 3 0 2.5.2 5.5-1.2 7-.7.7-1.6 1-2.7 1.1h-2.3zM71.6 161.1h.5v-12.8h-.5V161z" clip-rule="evenodd"/>
    <path fill="#fff" fill-rule="evenodd" d="M92.1 149c-7.7-15.6-2-14.6-18.7-8.2l5.2 13.8c4.6-1.7 9-3.6 13.5-5.6z" clip-rule="evenodd"/>
    <path fill="#004357" fill-rule="evenodd" d="M73.8 141l5 13.2c4-1.5 8.3-3.3 12.9-5.3-1.6-3.2-2.6-5.7-3.3-7.6-1-2.6-1.6-4-2.6-4.5-1-.4-2.7.3-6.2 1.8l-5.8 2.4zm4.8 14h-.1l-.2-.3L73 141l.1-.4 6.1-2.5c3.8-1.5 5.5-2.3 6.8-1.7 1.1.5 1.7 1.9 2.9 4.8a105.6 105.6 0 003.4 8c0 .1 0 .2-.2.2a259 259 0 01-13.6 5.6z" clip-rule="evenodd"/>
    <path fill="#fff" fill-rule="evenodd" d="M86.8 139.3l6.3-2.9c2.6-1.2 1-4.5-1.6-3.3l-7.6 3.4" clip-rule="evenodd"/>
    <path fill="#004357" fill-rule="evenodd" d="M86.8 139.6a.3.3 0 01-.1-.6L93 136c1.1-.5 1.3-1.5 1-2.1-.3-.7-1.2-1.2-2.3-.6l-7.7 3.4a.3.3 0 01-.2-.6l7.6-3.4c1.5-.7 2.7 0 3.1 1 .6 1.2-.2 2.4-1.3 3a384.4 384.4 0 01-6.4 2.8z" clip-rule="evenodd"/>
    <path fill="#fff" fill-rule="evenodd" d="M86.8 139.3l6.3-2.9c1-.5 2.3-.2 2.8.8.4.9-.1 2-1.3 2.6l-6.3 2.9" clip-rule="evenodd"/>
    <path fill="#004357" fill-rule="evenodd" d="M88.3 143a.3.3 0 01-.1-.6l6.3-3c.5-.2 1-.6 1.1-1v-1.1c-.4-.8-1.4-1-2.4-.6l-6.3 2.9a.3.3 0 11-.2-.6L93 136c1.2-.5 2.6-.1 3.2 1 .2.4.2 1 0 1.5-.2.6-.7 1.1-1.4 1.5a383.3 383.3 0 01-6.5 2.9z" clip-rule="evenodd"/>
    <path fill="#fff" fill-rule="evenodd" d="M88.3 142.7l6.3-3c1.2-.4 2.4-.1 2.8.8.5 1 0 2.1-1.2 2.6l-6.4 3" clip-rule="evenodd"/>
    <path fill="#004357" fill-rule="evenodd" d="M89.8 146.3a.3.3 0 01-.1-.6l6.4-2.9c.5-.2 1-.6 1-1.1.2-.4.2-.7 0-1-.3-.8-1.4-1-2.3-.6l-6.4 2.8a.3.3 0 11-.2-.5l6.3-3c1.3-.5 2.7-.1 3.2 1 .2.4.3 1 0 1.5-.2.6-.7 1.2-1.4 1.5a384.6 384.6 0 01-6.5 3z" clip-rule="evenodd"/>
    <path fill="#fff" fill-rule="evenodd" d="M74.2 142.2c-2-4.3-.6-6.1 3.6-7.4 2.8-1.4 5.8-2.3 7.5 1.1l-2.4 2.8" clip-rule="evenodd"/>
    <path fill="#fff" fill-rule="evenodd" d="M73.4 140.8l-1.3-3.5 5.8-2.3c2.6-1.3 5.8-2.3 7.4.9l-3 1.3" clip-rule="evenodd"/>
    <path fill="#004357" fill-rule="evenodd" d="M73.4 141.1c-.2 0-.3 0-.3-.2a402.5 402.5 0 01-1.3-3.7c0-.1 0-.2.2-.2l5.8-2.3c1.5-.7 3.7-1.7 5.6-1 1 .3 1.7 1 2.2 2v.3l-.2.2-.7.3-2.3 1a.3.3 0 01-.2-.6l2.3-1 .4-.2a3 3 0 00-1.7-1.5c-1.3-.4-2.9 0-5.1 1v.1l-5.6 2.2 1.2 3.2a.3.3 0 01-.3.4z" clip-rule="evenodd"/>
    <path fill="#fff" fill-rule="evenodd" d="M81.9 137.4l3.4-1.5c2.6-1.2 1-4.5-1.5-3.4l-7.6 3.2" clip-rule="evenodd"/>
    <path fill="#004357" fill-rule="evenodd" d="M81.9 137.7c-.2 0-.3 0-.3-.2l.1-.4 3.5-1.5c1.1-.5 1.3-1.5 1-2.1-.3-.7-1.1-1.2-2.3-.7a269 269 0 01-7.5 3.2.3.3 0 11-.3-.6l7.6-3.2c1.4-.6 2.6 0 3 1 .7 1.3-.2 2.5-1.3 3a319.7 319.7 0 01-3.5 1.5z" clip-rule="evenodd"/>
    <path fill="#fff" fill-rule="evenodd" d="M89.8 146c2-.5 6.3-4 7.8-1.5 1 2.8-4.5 3.8-6.3 5" clip-rule="evenodd"/>
    <path fill="#004357" fill-rule="evenodd" d="M91.3 149.7a.3.3 0 01-.2-.5c.5-.4 1.3-.7 2.2-1 2.6-1 4.6-2 4-3.5-.8-1.5-2.8-.6-5.2.6-.8.5-1.6.9-2.2 1a.3.3 0 01-.2-.6c.6-.1 1.3-.5 2.1-1 2.2-1 4.9-2.4 6-.3 1 2.4-2 3.5-4.3 4.4a13.2 13.2 0 00-2.2 1zM79.5 156l-7.9-20.6a80 80 0 01-20.4 5.5c1.2-3.9 3.1-7.5 5.2-11.2l3.4-5.5c3.1-4.8 1.5-11.1-3-14.7-4.9-3.8-12-2.7-15.4 2.6-2.9 4.3-5.5 8.8-7.8 13.6-3.1 6.5-5.8 14-4.7 21.3 1 8 7.7 14.3 15.5 15.5 12 2 24.1-2.5 35-6.4zM69.6 98.4a4.1 4.1 0 11-8.2 0 4.1 4.1 0 018.2 0z" clip-rule="evenodd"/>
    <path fill="#004357" fill-rule="evenodd" d="M81.8 91c0 4.8-4.3 8.6-9.5 8.6s-9.5-3.8-9.5-8.6 4.3-8.6 9.5-8.6 9.5 3.8 9.5 8.6z" clip-rule="evenodd"/>
    <path fill="#fff" fill-rule="evenodd" d="M71.8 108c-3 0-5.7-2.2-5.7-5l2.5-9.3c0-2.7-.7-4.9 2.2-4.9H74c3 0 2.2 2.2 2.2 5v9.3c0 2.8-1.5 5-4.4 5z" clip-rule="evenodd"/>
    <path fill="#004357" fill-rule="evenodd" d="M66.4 103.1c0 2.5 2.5 4.7 5.4 4.7 3 0 4-2.4 4-4.7v-9.4l.1-1.3c0-1.2.1-2.3-.4-2.8-.3-.3-.8-.5-1.5-.5h-3.2c-.7 0-1.3.2-1.6.5-.5.5-.4 1.6-.3 2.8v1.3l-2.5 9.4zm5.4 5.3c-3.2 0-6-2.5-6-5.3l2.5-9.4v-1.3c-.1-1.4-.2-2.5.5-3.2.4-.5 1-.7 2-.7H74c.9 0 1.6.2 2 .7.7.7.6 1.8.6 3.2V103c0 3.2-2 5.3-4.8 5.3z" clip-rule="evenodd"/>
    <path fill="#fff" fill-rule="evenodd" d="M82.1 92.5a2.4 2.4 0 11-4.7 0 2.4 2.4 0 014.7 0z" clip-rule="evenodd"/>
    <path fill="#004357" fill-rule="evenodd" d="M79.8 90.4a2 2 0 100 4.2 2 2 0 000-4.2zm0 4.8a2.7 2.7 0 110-5.4 2.7 2.7 0 010 5.4z" clip-rule="evenodd"/>
    <path fill="#fff" fill-rule="evenodd" d="M73.6 100a6.8 6.8 0 01-6.3-4.2l-.1-.3a6.9 6.9 0 0112.6-5.4v.3a6.8 6.8 0 01-3.5 9c-.9.3-1.8.5-2.7.5z" clip-rule="evenodd"/>
    <path fill="#004357" fill-rule="evenodd" d="M73.5 85.7a7.1 7.1 0 00-6.7 4.5 7.1 7.1 0 00.1 5.5l.1.2a7.2 7.2 0 1013.1-5.7V90a7.2 7.2 0 00-6.6-4.3zm0 .6c2.5 0 4.9 1.5 6 4v.2a6.5 6.5 0 11-12 5.2v-.3a6.5 6.5 0 016-9.1z" clip-rule="evenodd"/>
    <path fill="#fff" fill-rule="evenodd" d="M67.2 94.9a2.4 2.4 0 11.4-4.7" clip-rule="evenodd"/>
    <path fill="#004357" fill-rule="evenodd" d="M67.2 95.2a2.7 2.7 0 11.5-5.4.3.3 0 01-.1.7 2 2 0 10-.4 4.1.3.3 0 010 .6zM82.1 88.8h-8c-3 0-5.3-2.4-5.3-5.3 0-.6 2.3-1.1 3-1.1h5c3 0 5.3 2.3 5.3 5.3v1.1z" clip-rule="evenodd"/>
    <path fill="#004357" d="M68.7 90.8a2.2 2.2 0 100-4.4 2.2 2.2 0 000 4.4z"/>
    <path fill="#BED73C" fill-rule="evenodd" d="M74.5 95.2h1.2c.3 0 .6-.5.5-1l-.5-3.4c-.1-.8-.8-.8-1 0l-.6 3.4c-.1.5.1 1 .4 1z" clip-rule="evenodd"/>
    <path fill="#004357" fill-rule="evenodd" d="M76.9 95.8a.3.3 0 01.3.4c0 .4-.3 1-.9 1.4v.5a1.4 1.4 0 01-2.7 0v-.3c-.7-.4-1-1.1-1.1-1.6a.3.3 0 01.3-.4h4zm-1.2 1.3h-1.5v.9a.7.7 0 001.5 0v-1zM71.9 92a.3.3 0 01-.2-.5l1-.7-1-.7a.3.3 0 11.3-.5l1.4 1a.3.3 0 010 .4L72 92H72zM77.7 92h-.2L76 91a.3.3 0 010-.5l1.4-.9a.3.3 0 01.3.5l-1 .7 1 .7a.3.3 0 01-.1.6z" clip-rule="evenodd"/>
    <path fill="#004357" fill-rule="evenodd" d="M74.4 88.8c.2 0 .3.1.3.3v.9l.4-.1.5.1v-.9c0-.2.2-.3.3-.3h3.9c.2 0 .3.1.3.3v1.7c0 .9-.7 1.6-1.6 1.6h-1.6c-.7 0-1.3-.5-1.3-1.2v-.5l-.5-.2c-.2 0-.3.2-.4.3v.4c0 .7-.5 1.2-1.2 1.2h-1.8c-.9 0-1.6-.7-1.6-1.6v-.5l-2 .4h-.2a.3.3 0 010-.6l2.2-.5v-.5c0-.2.1-.3.3-.3h4zm-.3.6h-3.4v1.4c0 .5.5 1 1 1h1.8c.3 0 .6-.3.6-.6v-1.8zm5.4 0h-3.2v1.8c0 .3.2.6.6.6h1.6c.5 0 1-.5 1-1v-1.4zM314.8 235.3a62 62 0 0014.3-1.5c6.1-1.4 11-3.9 14.7-7.5 5.2-4.9 8.3-11.7 9.7-21.4 1.1-8.2 1-17.5.8-27.4l-.2-9.6h-7.4l.1 9.7c.4 18.8.7 35-8 43.4-6 5.6-16.3 7.8-31.4 6.6l-.6 7.4 8 .3z" clip-rule="evenodd"/>
    <path fill="#fff" fill-rule="evenodd" d="M316.1 212.4H345c3.6 0 6.5-2.9 6.5-6.5v-46.6c0-3.6-3-6.5-6.5-6.5H316c-3.6 0-6.5 3-6.5 6.5V206c0 3.6 3 6.5 6.5 6.5z" clip-rule="evenodd"/>
    <path fill="#004357" fill-rule="evenodd" d="M345 153.2c3.4 0 6.1 2.7 6.1 6.1V206c0 3.4-2.7 6.2-6.1 6.2H316a6.2 6.2 0 01-6.1-6.2v-46.6c0-3.4 2.7-6.1 6.1-6.1H345zM316 212.8H345c3.7 0 6.8-3 6.8-6.9v-46.6c0-3.8-3-6.8-6.8-6.8H316c-3.8 0-6.8 3-6.8 6.8V206c0 3.8 3 6.9 6.8 6.9zM302 300.1h-7.7v-63.9h7.8v64z" clip-rule="evenodd"/>
    <path fill="#004357" fill-rule="evenodd" d="M317.6 302.1c0-3.2-2.6-5.8-5.8-5.8h-27.2a5.8 5.8 0 00-5.9 5.8h39z" clip-rule="evenodd"/>
    <path fill="#fff" fill-rule="evenodd" d="M281.7 241.3h33c11.9.1 12-20 0-19.9h-33c-5 0-9 4-9 9-.7 5.5 3.1 10.9 9 10.8z" clip-rule="evenodd"/>
    <path fill="#004357" fill-rule="evenodd" d="M314.8 221.8c3 0 5.5 1.4 7 4 2 3.2 2 7.8 0 11.1-1.5 2.6-4 4-7.2 4h-33c-2.4 0-4.6-1-6.2-2.8a9.9 9.9 0 01-2.4-7.7c0-4.8 4-8.6 8.7-8.6h33zm0 19.8c3.3 0 6-1.5 7.6-4.3 2-3.5 2-8.4 0-12a8.5 8.5 0 00-7.8-4.3h-32.9a9.3 9.3 0 00-9.4 9.3c-.3 3 .6 6 2.5 8.3a9 9 0 006.8 3h33.2zM317.6 304h-1.8V302h1.8v1.8zM299.1 304h-1.8V302h1.8v1.8zM280.6 304h-1.9V302h1.9v1.8z" clip-rule="evenodd"/>
    <path fill="#fff" fill-rule="evenodd" d="M314.7 305.7c0 4 6 4 6 0 0-3.9-6-3.9-6 0z" clip-rule="evenodd"/>
    <path fill="#004357" fill-rule="evenodd" d="M317.6 303.1c1.3 0 2.7.9 2.7 2.6 0 1.8-1.4 2.6-2.7 2.6-1.2 0-2.6-.8-2.6-2.6 0-1.7 1.4-2.6 2.6-2.6zm0 5.9c1.7 0 3.4-1.1 3.4-3.3 0-2.1-1.7-3.3-3.4-3.3-1.6 0-3.3 1.2-3.3 3.3 0 2.2 1.7 3.3 3.3 3.3z" clip-rule="evenodd"/>
    <path fill="#fff" fill-rule="evenodd" d="M295.2 305.7c0 4 6 4 6 0 0-3.9-6-3.9-6 0z" clip-rule="evenodd"/>
    <path fill="#004357" fill-rule="evenodd" d="M298.1 303.1c1.3 0 2.7.9 2.7 2.6 0 1.8-1.4 2.6-2.7 2.6-1.2 0-2.6-.8-2.6-2.6 0-1.7 1.4-2.6 2.6-2.6zm0 5.9c1.7 0 3.4-1.1 3.4-3.3 0-2.1-1.7-3.3-3.4-3.3-1.6 0-3.3 1.2-3.3 3.3 0 2.2 1.7 3.3 3.3 3.3z" clip-rule="evenodd"/>
    <path fill="#fff" fill-rule="evenodd" d="M275.7 305.7c0 4 6 4 6 0 0-3.9-6-3.9-6 0z" clip-rule="evenodd"/>
    <path fill="#004357" fill-rule="evenodd" d="M278.7 303.1c1.3 0 2.6.9 2.6 2.6 0 1.8-1.3 2.6-2.6 2.6s-2.6-.8-2.6-2.6c0-1.7 1.3-2.6 2.6-2.6zm0 5.9c1.7 0 3.3-1.1 3.3-3.3 0-2.1-1.6-3.3-3.3-3.3-1.6 0-3.3 1.2-3.3 3.3 0 2.2 1.7 3.3 3.3 3.3z" clip-rule="evenodd"/>
    <path fill="#fff" fill-rule="evenodd" d="M237.2 308.4v-1.7h4.8c.6 0 .3 1.5.4 1.8h5c.2-12 .4-24.3.4-36.4l-15.4-.1-.3 28c0 .1-.2.3-.4.3-3.7-.3-9 2.5-8.9 7.8l14.3.3z" clip-rule="evenodd"/>
    <path fill="#004357" fill-rule="evenodd" d="M232 271.7c0 9.3-.1 19-.3 28.2-4.2-.2-9.4 2.8-9.3 8.5l15 .3.1-1.7h4.5v1.8l5.7.2c.3-12.2.4-25.1.5-37.2l-16.2-.1zm.7.6l14.8.1-.4 35.8h-4.4c0-.6.2-1.8-.7-1.8l-4.4-.1c-1 0-.8 1.1-.8 1.7l-13.6-.3c0-4.8 5.1-7.3 8.5-7 .4 0 .7-.4.7-.8.2-9 .2-18.4.3-27.6z" clip-rule="evenodd"/>
    <path fill="#004357" fill-rule="evenodd" d="M247.4 307.1v-.7l-24.2-.4v.7l24.2.4z" clip-rule="evenodd"/>
    <path fill="#004357" fill-rule="evenodd" d="M231.7 306.8v-.7a4.7 4.7 0 01-4.6-4.7h-.7c0 3 2.3 5.4 5.3 5.4z" clip-rule="evenodd"/>
    <path fill="#fff" fill-rule="evenodd" d="M232.4 294s2.8-.1 2.8 2.5c0 1 1 .9 3 1h9.2" clip-rule="evenodd"/>
    <path fill="#004357" fill-rule="evenodd" d="M247.4 297.9a.4.4 0 000-.7l-9.2-.1h-.7c-1 0-1.7 0-1.9-.3v-.3c0-.9-.3-1.5-.8-2-1-.9-2.4-.8-2.4-.8a.4.4 0 100 .7s1.2 0 1.9.6c.4.4.5.8.5 1.4 0 .4 0 .7.3 1 .4.4 1.2.4 2.4.4h.7l9.2.1z" clip-rule="evenodd"/>
    <path fill="#BED73C" fill-rule="evenodd" d="M227 292.4l24.3.3c.2-16.5.2-34 .3-50.4-.7-15.3 17.4-18.2 29.4-18.5 14-1.3 15.3-24.3-.5-24.2-22.7.1-48.2 9.6-52.5 34.7-.5 2.7-.7 5.6-.7 8.4 0 16.2 0 33.4-.3 49.7z" clip-rule="evenodd"/>
    <path fill="#004357" fill-rule="evenodd" d="M242.8 306.7c0-2.6 2.1-4.6 4.7-4.6v-.7c-3 0-5.4 2.3-5.4 5.3h.7z" clip-rule="evenodd"/>
    <path fill="#fff" fill-rule="evenodd" d="M255.6 309l.1-1.7h4.7c.6 0 .3 1.4.4 1.7l5 .1.5-35.4h-15.5c-.5 9 .5 18.9-.7 27.4-3.5-.2-9 2.4-8.9 7.5l14.4.3z" clip-rule="evenodd"/>
    <path fill="#004357" fill-rule="evenodd" d="M250.4 273.3l-.3 27.5c-4-.2-9.4 2.5-9.2 8.1l15 .4v-1.7h4.5v1.8h5.8l.4-36-16.2-.1zm.7.7H266c0 11.6-.2 23.2-.4 34.8l-4.4-.1c0-.6.2-1.7-.7-1.7l-4.4-.1c-1 0-.7 1.1-.8 1.7l-13.6-.3c0-4.7 5.3-7 8.5-6.8.4 0 .7-.3.7-.7l.3-26.8z" clip-rule="evenodd"/>
    <path fill="#004357" fill-rule="evenodd" d="M265.9 307.7v-.7l-24.3-.4v.7l24.3.4z" clip-rule="evenodd"/>
    <path fill="#004357" fill-rule="evenodd" d="M261.2 307.3a4.6 4.6 0 014.8-4.4v-.7h-.1c-3 0-5.4 2.2-5.4 5l.7.1zM250.1 307.4v-.7c-2.5 0-4.6-2-4.6-4.5h-.7c0 2.8 2.4 5.2 5.3 5.2z" clip-rule="evenodd"/>
    <path fill="#fff" fill-rule="evenodd" d="M250.8 295.1s2.9-.1 2.8 2.4c0 1 1 .8 3 .9l9.2.1" clip-rule="evenodd"/>
    <path fill="#004357" fill-rule="evenodd" d="M265.8 298.9a.4.4 0 000-.7l-9.2-.2h-.7c-1 0-1.7 0-1.9-.2v-.3c0-.8-.3-1.4-.7-2-1-.8-2.5-.7-2.5-.7-.2 0-.4.1-.4.3 0 .2.2.4.4.4 0 0 1.3 0 2 .6.3.3.5.8.4 1.3 0 .4.1.7.3.9.4.4 1.2.4 2.4.4h.7l9.2.2zM269.6 293.8c.5-17.6 0-36.3.6-54 1.6-13 18-15.1 29.1-15.6 14.2-1.4 15.4-24.2-.6-24.1-18.3.3-39.9 6.2-48.7 24-3.1 6.1-4.4 13-4.3 19.7 0 16.2 0 33.6-.3 49.7l24.2.3z" clip-rule="evenodd"/>
    <path fill="#004357" fill-rule="evenodd" d="M319.6 204.5c0-26.1-46.8-26.1-46.9 0 0 26.2 46.9 26.2 47 0z" clip-rule="evenodd"/>
    <path fill="#004357" fill-rule="evenodd" d="M319.5 185h-23.4v39.2h13c5.8 0 10.4-4.7 10.4-10.5V185z" clip-rule="evenodd"/>
    <path fill="#fff" fill-rule="evenodd" d="M207.5 155.3c.6.1 1.2.5 1.5 1.2.6 1.7 1.4 3.4 2.2 5 2.7 5.3 6.4 8.2 10.6 9.3 11.8 3 27.6-7.3 37.2-14l12.2 16.8c-30 22.7-68.5 30.7-82.8-12.9 1.7-.3 17.7-6.4 19-5.4z" clip-rule="evenodd"/>
    <path fill="#004357" fill-rule="evenodd" d="M270.7 173.5a99 99 0 01-28.4 15.4 45.7 45.7 0 01-27.8 1.2c-11.8-3.7-20.4-13.5-25.6-29.1l4.4-1.5c2.7-1 6-2 8.8-2.9 4.3-1.3 5-1.1 5.2-1 .5.1 1.1.4 1.3 1 .7 1.7 1.4 3.4 2.3 5 2.5 5.1 6.2 8.4 10.9 9.6 5.2 1.3 11.8.1 19.6-3.4 6.5-3 12.7-7.2 17.5-10.5l11.8 16.2zm-45 19c5.2 0 10.9-1 16.8-3a100 100 0 0029-15.6v-.5l-12.3-16.8a.4.4 0 00-.4-.1c-4.8 3.4-11.1 7.6-17.7 10.6-7.6 3.5-14 4.7-19.1 3.4-4.5-1.2-8-4.3-10.5-9.2-.8-1.6-1.6-3.3-2.2-5-.2-.6-.8-1.1-1.7-1.4-1-.5-5.7 1-14.5 4a69.9 69.9 0 01-5 1.7v.2c5.2 16.1 14 26.2 26.2 30 3.5 1 7.3 1.6 11.3 1.6z" clip-rule="evenodd"/>
    <path fill="#fff" fill-rule="evenodd" d="M200.6 157.8c-.6-2.4-2.7-6.9-1.8-9.1.9-1.8 3.4-1 3.8.8.7 3 1.5 5.8 2.5 8.5" clip-rule="evenodd"/>
    <path fill="#004357" fill-rule="evenodd" d="M205 158.3h.2c.2 0 .3-.3.2-.5-1-2.5-1.8-5.3-2.5-8.3-.2-1.1-1-2-2.2-2.2-1-.1-1.8.3-2.3 1.2-.7 1.8.3 4.6 1.1 7l.8 2.4a.4.4 0 10.7-.2l-.8-2.4c-.8-2.2-1.7-5-1.1-6.5.3-.6.9-.9 1.5-.8a2 2 0 011.7 1.6 68.8 68.8 0 002.8 8.7z" clip-rule="evenodd"/>
    <path fill="#fff" fill-rule="evenodd" d="M200.6 157.8a74 74 0 01-2-7.3c-.2-.7-.6-1.2-1-1.6-1-.8-2.4-.5-3 .6-.8 2.5 1.4 7 2 9.7" clip-rule="evenodd"/>
    <path fill="#004357" fill-rule="evenodd" d="M196.7 159.5c.2 0 .4-.2.3-.4l-.8-2.6c-.8-2.3-1.8-5.2-1.2-6.8.2-.4.6-.7 1-.8.5-.1 1 0 1.3.3.5.3.8.8.9 1.4l2 7.3a.4.4 0 10.7-.2l-2-7.3c-.2-.7-.6-1.3-1.1-1.8a2.2 2.2 0 00-3.4.8c-.7 1.9.3 4.8 1.1 7.3.3 1 .7 1.8.8 2.5 0 .2.2.3.4.3z" clip-rule="evenodd"/>
    <path fill="#fff" fill-rule="evenodd" d="M196.7 159.2c-.9-2.6-1.6-5.2-2.2-7.8a3 3 0 00-1-1.6c-1.7-1.4-3.6.4-3 2.6.5 2.7 1.3 5.4 2.2 8.1" clip-rule="evenodd"/>
    <path fill="#004357" fill-rule="evenodd" d="M192.7 160.9h.1c.2-.1.3-.3.3-.5-1-2.6-1.7-5.3-2.3-8.1-.3-1.1.2-2 .7-2.4.6-.4 1.2-.3 1.8.2.4.3.7.8.8 1.4a79 79 0 002.2 7.8.4.4 0 00.7-.3c-.8-2.4-1.6-5-2.2-7.7-.1-.7-.5-1.3-1-1.8-.9-.6-1.8-.7-2.6-.2-1 .6-1.4 1.9-1.1 3.2a82.8 82.8 0 002.6 8.4z" clip-rule="evenodd"/>
    <path fill="#fff" fill-rule="evenodd" d="M206 160c-.6-1.6-2-3.5-1.4-5.2.6-1.4 2.6-1.5 3.5-.4 1.3 2.6 2 5.5 3.5 7.8" clip-rule="evenodd"/>
    <path fill="#004357" fill-rule="evenodd" d="M211.6 162.5h.2c.1-.1.2-.4 0-.5l-2-4.4-1.4-3.3v-.1c-.5-.7-1.4-1-2.3-.9-.8.1-1.5.6-1.8 1.3-.5 1.4.1 2.9.7 4.1l.6 1.5a.4.4 0 00.7-.2l-.7-1.6c-.5-1.2-1-2.4-.6-3.5.2-.5.6-.8 1.2-.9.6 0 1.2.2 1.6.6l1.4 3.3a27 27 0 002 4.4c.1.2.3.2.4.2z" clip-rule="evenodd"/>
    <path fill="#fff" fill-rule="evenodd" d="M192.7 160.5c-1.2-2.2-1.3-9-4.5-8.4-3.3 1 0 7.3.6 9.7" clip-rule="evenodd"/>
    <path fill="#004357" fill-rule="evenodd" d="M188.8 162.2c.2 0 .4-.2.3-.4l-.7-2.4c-.8-2.2-1.7-4.8-1-6.2.1-.4.4-.7.9-.8 1.7-.3 2.4 2 3.2 5.2.2 1.2.5 2.3 1 3 0 .2.2.3.4.2.2 0 .2-.3.1-.5-.3-.6-.6-1.7-.9-2.9-.6-2.7-1.4-6.1-4-5.7-.6.2-1.1.6-1.4 1.2-.8 1.7.2 4.5 1 6.7l.7 2.3c0 .2.2.3.4.3zM256.2 156c2.9-2 5.7-4.1 8.5-6.4 5-4 9.8-4.3 13.5-4.3 6.5 0 7.6 19 2.3 23.5-3.2 2.6-6.5 5.1-10 7.6L256.3 156z" clip-rule="evenodd"/>
    <path fill="#fff" fill-rule="evenodd" d="M194.8 165.1l8.6-2.2a3 3 0 002-3.6l-4.5-17.7a3 3 0 00-3.6-2.1l-8.5 2.2a3 3 0 00-2.1 3.6l4.5 17.7a3 3 0 003.6 2.1z" clip-rule="evenodd"/>
    <path fill="#004357" fill-rule="evenodd" d="M198 139.8a2.6 2.6 0 012.6 1.9l4.5 17.7c.4 1.4-.5 2.8-1.8 3.2l-8.6 2.2a2.6 2.6 0 01-3.1-1.9l-4.6-17.7c-.4-1.4.5-2.8 1.9-3.2l8.5-2.2h.7zm-4 25.8l.9-.1 8.5-2.2a3.3 3.3 0 002.4-4l-4.6-17.8a3.3 3.3 0 00-4-2.3l-8.5 2.2a3.3 3.3 0 00-2.4 4L191 163a3.3 3.3 0 003.2 2.5z" clip-rule="evenodd"/>
    <path fill="#BED73C" fill-rule="evenodd" d="M193.6 161.8l9.2-2.4c.5-.1.8-.7.7-1.2l-4.2-16.4a1 1 0 00-1.2-.7l-9.2 2.4a1 1 0 00-.7 1.2l4.2 16.4c.1.5.7.8 1.2.7zM198.2 161.2c-.8.8.6 2 1.4 1.1.7-.8-.6-2-1.4-1.1zM265.2 202.7c-.2 2 1.4 3.6 3.3 3.6h52.2c1.7 0 3.1-1.3 3.3-3l-2.7-47.2a9.4 9.4 0 00-9.3-10.7h-34.1a13 13 0 00-12.7 14v43.3z" clip-rule="evenodd"/>
    <path fill="#BED73C" fill-rule="evenodd" d="M280.6 145.4c4.3-18 36-5.3 15.4 9.7a1 1 0 01-1.3 0l-2.4-2.5-2.4-2.4-4.8 4.6c-1.8 1.9-4.7-7.1-4.5-9.4z" clip-rule="evenodd"/>
    <path fill="#004357" fill-rule="evenodd" d="M295.2 155.5c.3 0 .7 0 1.1-.3 2.7-1.4 7.2-7 6.8-9.8a.3.3 0 10-.5 0c.1 1.2-.7 3-2.2 5.1a15.6 15.6 0 01-4.3 4.2c-.3.2-1 .4-1.2.2l-2.7-2.7-2.2-2.2a.3.3 0 00-.3 0l-4.8 4.6c-.1.2-.3.2-.5.1-1.5-.6-3.7-7.3-3.6-9.3 0-.1 0-.3-.2-.3s-.3.1-.3.3c-.1 2 2 9 3.9 9.8.4.2.8.1 1.1-.2l4.6-4.4 2 2 2.7 2.7.6.2z" clip-rule="evenodd"/>
    <path fill="#fff" fill-rule="evenodd" d="M241 190.6c9.7-19.6 2.5-18.2 22-11 10.5 3.4 26.8 9.2 37.1 4.2 4.4-2.8 4.2-8.8 4-13.8l16.6-1.5c1 0 1.8.8 1.8 2 .7 9.4-1.8 20.4-9.6 26.8-18.3 14.6-48.6 2.7-67.8-5l4.1 1.8c-1.7 4.5-10.1 1-8.1-3.5z" clip-rule="evenodd"/>
    <path fill="#004357" fill-rule="evenodd" d="M321.6 169.2c.3.3.6.7.6 1.3.3 5-.2 10-1.6 14.4-1.7 5-4.3 9.2-8 12.1-18.2 14.6-49 2.4-67.3-5a.4.4 0 00-.3.7l3.8 1.5c-.6 1.1-1.5 1.5-2.3 1.6-1.7.2-3.7-.7-4.7-2-.5-.7-1-1.7-.4-3 2.2-4.5 3.5-8 4.5-10.4l1-2.7c.7-1.4.6-2.4 1.3-2.7 1.1-.5 3.3.5 7.4 2 2 .8 4.2 1.8 7.2 2.9l1.6.5c5.2 1.7 11.7 3.9 18.1 5a29.3 29.3 0 0017.8-1.3c4.6-3 4.4-9.4 4.1-13.8l16.3-1.4a1 1 0 01.9.3zm-8.5 28.4a26 26 0 008.1-12.5c1.5-4.5 2-9.5 1.7-14.7 0-.7-.4-1.3-.8-1.8-.5-.3-1-.5-1.4-.4l-16.7 1.5c-.2 0-.3.1-.3.3.3 5.4.3 10.9-3.8 13.5-9.7 4.7-25-.4-35.3-3.8l-1.5-.5c-3-1-5.4-2-7.3-2.8-4-1.7-6.5-2.7-7.9-2-.9.3-1 1.5-1.6 3l-1 2.7c-1 2.5-2.3 5.9-4.5 10.4-.6 1.2-.4 2.6.4 3.7a6 6 0 005.4 2.3c1.3-.2 2.3-1 2.8-2 11.8 4.6 27.2 10 41.3 10a35 35 0 0022.4-7z" clip-rule="evenodd"/>
    <path fill="#fff" fill-rule="evenodd" d="M248.3 178.3c-2.4-1-4.7-2-7-3.2-1.3-.5-1.9-1.8-1.4-2.9.5-1 1.9-1.4 3.1-.8l8.5 3.7" clip-rule="evenodd"/>
    <path fill="#004357" fill-rule="evenodd" d="M248.3 178.6c.1 0 .2 0 .3-.2 0-.2 0-.4-.2-.4l-7-3.2c-.6-.2-1-.7-1.2-1.2v-1.2c.4-.9 1.6-1.2 2.7-.7l8.4 3.7a.4.4 0 10.3-.6c-2.7-1.2-5.6-2.4-8.4-3.8-1.4-.6-3-.2-3.6 1-.3.6-.3 1.2 0 1.8a3 3 0 001.5 1.7 344.4 344.4 0 007.2 3.1zM301.3 172l-.6-10.7c-.5-6.8.9-12.4 6.8-15 4.8-2.3 10.5-.3 13.7 4 4 5.8 4.2 13.2 5 20.5l-25 1.1zM273 122.4a17.8 17.8 0 1035.5 0 17.8 17.8 0 00-35.5 0z" clip-rule="evenodd"/>
    <path fill="#fff" fill-rule="evenodd" d="M278.7 129.4a2.7 2.7 0 105.4 0 2.7 2.7 0 00-5.4 0z" clip-rule="evenodd"/>
    <path fill="#004357" fill-rule="evenodd" d="M281.4 127a2.3 2.3 0 110 4.7 2.3 2.3 0 010-4.6zm0 5.4a3 3 0 100-6 3 3 0 000 6z" clip-rule="evenodd"/>
    <path fill="#fff" fill-rule="evenodd" d="M290.4 147c3.4 0 6.4-2.6 6.4-5.7l-2.8-10.5c0-3 .8-5.5-2.5-5.5h-3.6c-3.3 0-2.5 2.4-2.5 5.5v10.6c0 3 1.7 5.6 5 5.6z" clip-rule="evenodd"/>
    <path fill="#004357" fill-rule="evenodd" d="M296.5 141.4c0 2.8-2.9 5.2-6 5.2-3.5 0-4.7-2.7-4.7-5.2v-10.6-1.5c-.1-1.4-.2-2.6.4-3.2.3-.3.9-.5 1.7-.5h3.6c.8 0 1.4.2 1.8.5.5.6.5 1.8.4 3.2v1.5l2.8 10.6zm-6 6c3.5 0 6.7-2.9 6.7-6v-.1l-2.8-10.5v-1.5c0-1.5.1-2.8-.6-3.6-.5-.5-1.3-.8-2.3-.8h-3.6c-1 0-1.8.3-2.2.8-.8.8-.8 2-.7 3.6v12.1c0 3.6 2.2 6 5.4 6z" clip-rule="evenodd"/>
    <path fill="#fff" fill-rule="evenodd" d="M288.4 137.8c3 0 5.8-1.9 7-4.7l.2-.2a7.7 7.7 0 00-4-10.2 7.7 7.7 0 00-10.2 4l-.1.3a7.7 7.7 0 007 10.8z" clip-rule="evenodd"/>
    <path fill="#004357" fill-rule="evenodd" d="M288.5 121.7a8 8 0 017.5 5.1 8 8 0 01-.1 6.2l-.1.3a8 8 0 11-14.8-6.4v-.3a8 8 0 017.5-4.9zm0 .7a7.4 7.4 0 00-6.8 4.5v.2A7.4 7.4 0 10295 133l.1-.3a7.4 7.4 0 00-6.7-10.3z" clip-rule="evenodd"/>
    <path fill="#fff" fill-rule="evenodd" d="M295.6 132a2.7 2.7 0 10-.5-5.2" clip-rule="evenodd"/>
    <path fill="#004357" fill-rule="evenodd" d="M295.6 132.4a3 3 0 10-.6-6 .4.4 0 00.1.7h.5a2.3 2.3 0 010 4.6.4.4 0 000 .7z" clip-rule="evenodd"/>
    <path fill="#004357" d="M293.9 127.4a2.5 2.5 0 110-5 2.5 2.5 0 010 5z"/>
    <path fill="#004357" d="M289.8 125.3a2.5 2.5 0 110-5 2.5 2.5 0 010 5z"/>
    <path fill="#004357" d="M285 125.3a2.5 2.5 0 110-5 2.5 2.5 0 010 5z"/>
    <path fill="#004357" d="M281 127.2a2.5 2.5 0 110-5 2.5 2.5 0 010 5z"/>
    <path fill="#BED73C" fill-rule="evenodd" d="M287.3 132.5H286c-.4 0-.7-.5-.6-1l.6-4c.1-.8 1-.9 1 0l.9 3.8c0 .6-.2 1.2-.6 1.2z" clip-rule="evenodd"/>
    <path fill="#004357" fill-rule="evenodd" d="M286.7 136a1.4 1.4 0 10.3-2.8 1.4 1.4 0 00-.3 2.8zM288 128c.3 0 .4-.1.4-.3 0-.3.3-.7.7-.7.4 0 .7.4.7.7a.4.4 0 10.7 0c0-.6-.6-1.4-1.4-1.4-.8 0-1.4.8-1.4 1.4 0 .2.2.3.4.3zM283.5 128c.2 0 .3-.1.3-.3 0-.3.3-.7.7-.7.4 0 .7.4.7.7a.4.4 0 10.7 0c0-.6-.6-1.4-1.4-1.4-.8 0-1.4.8-1.4 1.4 0 .2.2.3.4.3zM269 233.2h-.2a.3.3 0 010-.5l17.3-17.3a.3.3 0 11.4.5l-17.3 17.3h-.2zM130.8 192.6l-.2-.1a.3.3 0 010-.4l58.6-58.7a.3.3 0 11.4.5L131 192.5h-.2zM160.2 246.6h-.2a.3.3 0 010-.5l95.8-100a.3.3 0 01.5.5l-96 100h-.1zM129 209.2l-.1-.1a.3.3 0 010-.4l54.8-54.9a.3.3 0 11.4.5L129.3 209h-.2zM201.2 242l-.2-.1a.3.3 0 010-.5l59.1-59a.3.3 0 11.4.3l-59 59.2h-.3zM230.7 225.8h-.2a.3.3 0 010-.5l28.1-28.1a.3.3 0 11.4.4l-28 28.1-.3.1z" clip-rule="evenodd"/>
    <path fill="#BED73C" d="M102 287.5l10.5-10.5 10.5 10.5-10.5 10.5-10.5-10.5z"/>
    <path fill="#8EBC41" fill-rule="evenodd" d="M153.5 238.5a14.4 14.4 0 11-20.3-20.3 14.4 14.4 0 0120.3 20.3z" clip-rule="evenodd"/>
    <path fill="#BED73C" fill-rule="evenodd" d="M261.3 225.8a7.3 7.3 0 11-10.4-10.3 7.3 7.3 0 0110.4 10.3z" clip-rule="evenodd"/>
    <path fill="#004357" fill-rule="evenodd" d="M151.8 175.4a.6.6 0 111 .8.6.6 0 01-1-.8zM145.3 182a.6.6 0 111 .8.6.6 0 01-1-.8zM150.6 167.8a.6.6 0 111 .8.6.6 0 01-1-.8zM143.8 174.5a.6.6 0 111 .8.6.6 0 01-1-.8zM143.2 166.5a.6.6 0 111 .8.6.6 0 01-1-.8zM136.4 173a.6.6 0 111 .8.6.6 0 01-1-.8zM141.6 159a.6.6 0 111 .7.6.6 0 01-1-.8zM134.8 165.6a.6.6 0 111 .8.6.6 0 01-1-.8zM134 157.4a.6.6 0 111 .8.6.6 0 01-1-.8zM168.8 186.1a.6.6 0 111 .8.6.6 0 01-1-.8zM161.3 184.6a.6.6 0 111 .8.6.6 0 01-1-.8zM159.8 177.2a.6.6 0 111 .8.6.6 0 01-1-.8zM153.2 183.8a.6.6 0 111 .8.6.6 0 01-1-.8zM182.4 172.6a.6.6 0 111 .8.6.6 0 01-1-.8zM175.6 179.2a.6.6 0 111 .8.6.6 0 01-1-.8zM174.8 171.1a.6.6 0 111 .8.6.6 0 01-1-.8zM168.2 177.8a.6.6 0 111 .8.6.6 0 01-1-.8zM173.5 163.6a.6.6 0 111 .8.6.6 0 01-1-.8zM166.7 170.2a.6.6 0 111 .8.6.6 0 01-1-.8zM256.7 223.3a.6.6 0 111 .8.6.6 0 01-1-.8zM255.2 215.7a.6.6 0 111 .8.6.6 0 01-1-.8zM235.6 175.8a.6.6 0 111 .8.6.6 0 01-1-.8zM228.8 182.6a.6.6 0 111 .8.6.6 0 01-1-.8zM228 174.5a.6.6 0 111 .8.6.6 0 01-1-.8zM221.4 181a.6.6 0 111 .9.6.6 0 01-1-.8zM176.6 175.8a.6.6 0 111 .8.6.6 0 01-1-.8zM170 182.6a.6.6 0 111 .8.6.6 0 01-1-.8zM151.8 228.7a.6.6 0 111 .9.6.6 0 01-1-.9zM145 235.4a.6.6 0 111 .8.6.6 0 01-1-.8zM144.3 227.4a.6.6 0 111 .8.6.6 0 01-1-.8zM137.6 234a.6.6 0 111 .8.6.6 0 01-1-.8zM136.2 226.5a.6.6 0 111 .8.6.6 0 01-1-.8zM135.3 218.4a.6.6 0 111 .8.6.6 0 01-1-.8z" clip-rule="evenodd"/>
    <path fill="#BED73C" fill-rule="evenodd" d="M27.2 175.6A7.3 7.3 0 1117 165.3a7.3 7.3 0 0110.3 10.3z" clip-rule="evenodd"/>
  </g>
</svg>
