<svg xmlns="http://www.w3.org/2000/svg" fill="none" viewBox="0 0 355 328">
  <mask id="mask0" width="355" height="328" x="0" y="0" maskUnits="userSpaceOnUse">
    <path fill="#fff" d="M0 0h355v328H0z"/>
  </mask>
  <g mask="url(#mask0)">
    <path fill="#BED73C" fill-rule="evenodd" d="M234 206.3l32.7-5.3-1.2-4.1-1.2-4.2-.5-2-.6-2-1.3-4.2c-1.6-5.5-3.2-11-5-16.3a13 13 0 00-5.5-8.3 12.5 12.5 0 00-9.6-1.8 13 13 0 00-10 10c-.3 1.7-.3 3.4 0 5 .5 5.6 1 11.1 1.3 16.6l.3 4.2.1 2 .1 2.1.2 4.1.2 4.2z" clip-rule="evenodd"/>
    <path fill="#004357" fill-rule="evenodd" d="M246.7 166c.5 0 .8-.5.7-1 0-.5-.4-.8-1-.8-.4 0-.7.5-.7 1s.5.8 1 .8zM235 168.4c.4 0 .8-.5.7-1 0-.4-.5-.8-1-.7-.4 0-.8.5-.7 1 0 .4.5.7 1 .7zM253.6 172.8c.5 0 .9-.5.8-1 0-.4-.5-.8-1-.7-.4 0-.8.4-.7 1 0 .4.4.8 1 .7zM241.9 175.1a.9.9 0 10-.2-1.7c-.5 0-.8.5-.8 1 0 .4.5.8 1 .7zM249.8 181.8c.4 0 .8-.5.8-1a.9.9 0 10-1.8.2c0 .4.5.8 1 .8zM238 184c.5 0 .8-.5.8-1s-.5-.8-1-.8c-.4 0-.8.5-.8 1s.5.8 1 .8zM256.6 188.7c.5 0 .8-.4.8-1 0-.4-.5-.8-1-.7-.4 0-.8.4-.7 1 0 .4.4.8.9.7zM244.8 190.8a.9.9 0 10-.1-1.7.9.9 0 000 1.7zM252.6 197.6c.5 0 .8-.4.8-1 0-.4-.5-.8-1-.7-.4 0-.8.4-.8.9s.5.8 1 .8zM240.8 199.6c.4 0 .8-.5.8-1 0-.4-.5-.8-1-.7-.5 0-.8.4-.8.9s.5.8 1 .8z" clip-rule="evenodd"/>
    <path fill="#004357" fill-rule="evenodd" d="M280.6 166.5c0-11.6-11-21-24.7-21s-24.8 9.4-24.8 21c0 11.7 11 21.1 24.8 21.1 13.7 0 24.7-9.4 24.7-21z" clip-rule="evenodd"/>
    <path fill="#004357" fill-rule="evenodd" d="M297 194.2l-31 11.6-9.5-34.8c-2.4-6.3 1-13.5 7.7-16 6.6-2.4 14 .7 16.3 7l16.5 32.2z" clip-rule="evenodd"/>
    <path fill="#fff" fill-rule="evenodd" stroke="#004357" stroke-width=".8" d="M256.1 40a86.9 86.9 0 100 173.8 86.9 86.9 0 000-173.8zm0 14.7a72.1 72.1 0 110 144.3 72.1 72.1 0 010-144.3z" clip-rule="evenodd"/>
    <path fill="#fff" fill-rule="evenodd" d="M162.6 61.8c1.6 1 18.6 7 19 8.8.4.6.6 1.3.4 2-.7 1.8-1.3 3.6-1.7 5.4-6 23.3 24.7 27.6 41.4 29.2l-1.8 22c-39.6-2.6-76-22.7-57.3-67.4z" clip-rule="evenodd"/>
    <path fill="#004357" fill-rule="evenodd" d="M221.3 107.6l-1.7 21.2c-12.4-.9-24-3.4-33.3-7.4a48.3 48.3 0 01-23-18.2c-7-11-7.1-24.8-.5-40.9l4.6 1.9c2.7 1 6.2 2.5 9 3.7 4.3 2 4.8 2.6 4.9 2.8.3.5.6 1.1.3 1.7a45 45 0 00-1.6 5.5c-1.6 5.9-.9 11 2 15.2 3.3 4.7 9.4 8.3 18.1 10.8 7.3 2.1 15.1 3 21.2 3.7zm-1.4 22c.2 0 .4-.2.4-.4l1.8-22c0-.1-.2-.3-.4-.3-6-.6-14-1.6-21.4-3.7-8.5-2.5-14.5-6-17.6-10.5a17 17 0 01-2-14.6c.4-1.8 1-3.7 1.6-5.4.3-.7.2-1.5-.3-2.3-.5-1.2-5.3-3.3-14.4-6.9a73.8 73.8 0 01-5.1-2l-.3.1c-6.8 16.5-6.7 30.6.4 42a49 49 0 0023.4 18.5c9.6 4 21.3 6.6 33.9 7.4z" clip-rule="evenodd"/>
    <path fill="#fff" fill-rule="evenodd" d="M174.4 67.9c1.2-2.3 2.5-7.5 4.8-8.6 2-.8 3.5 1.5 2.4 3.3a72 72 0 00-3.8 8.5" clip-rule="evenodd"/>
    <path fill="#004357" fill-rule="evenodd" d="M177.8 71.4c.2 0 .3 0 .4-.2 1-2.7 2.3-5.5 3.8-8.4.6-1 .5-2.3-.3-3.2a2.3 2.3 0 00-2.7-.7c-1.7 1-2.9 3.8-4 6.4-.3.9-.6 1.8-1 2.4a.4.4 0 00.7.3l1-2.4c1-2.3 2.1-5.2 3.6-6 .7-.2 1.4 0 1.8.4.5.6.7 1.5.2 2.4a72.5 72.5 0 00-3.8 8.5.4.4 0 00.3.5z" clip-rule="evenodd"/>
    <path fill="#fff" fill-rule="evenodd" d="M174.4 67.9a78 78 0 013.4-7.3 3 3 0 00.3-2 2 2 0 00-2.8-1.4c-2.3 1.3-3.7 6.5-5 9" clip-rule="evenodd"/>
    <path fill="#004357" fill-rule="evenodd" d="M174.4 68.2c.1 0 .2 0 .3-.2 1-2.4 2.1-4.8 3.4-7.2.3-.7.5-1.5.3-2.2a2.3 2.3 0 00-3.3-1.8c-1.8 1-3 4-4 6.7a34 34 0 01-1.2 2.5.4.4 0 10.7.4l1.2-2.6c1-2.4 2.1-5.4 3.7-6.3.4-.2 1-.2 1.4 0 .4.3.7.7.8 1.2 0 .6 0 1.2-.3 1.7-1.3 2.5-2.4 5-3.4 7.3a.4.4 0 00.4.5z" clip-rule="evenodd"/>
    <path fill="#fff" fill-rule="evenodd" d="M170.3 66.2c1-2.6 2.2-5.2 3.6-7.7.3-.6.4-1.3.3-2-.4-2.2-3.2-2.1-4.2 0a86.6 86.6 0 00-3.8 8" clip-rule="evenodd"/>
    <path fill="#004357" fill-rule="evenodd" d="M170.3 66.6l.3-.2c1-2.6 2.2-5.1 3.6-7.7.4-.7.5-1.5.4-2.2-.2-1.1-1-1.8-2-2-1.1-.1-2.4.6-3 1.8a87.7 87.7 0 00-3.7 8.1.4.4 0 00.6.3 87 87 0 013.8-8c.5-1.1 1.6-1.5 2.3-1.4.6 0 1.1.5 1.2 1.3.1.6 0 1.2-.3 1.8A83.2 83.2 0 00170 66a.4.4 0 00.4.5z" clip-rule="evenodd"/>
    <path fill="#fff" fill-rule="evenodd" d="M177 73.3c.6-1.5 1-3.2 2-4.6 1-1.2 3-.7 3.5.7.2.6.2 1.2 0 1.8-1 2.6-1.9 5.2-2.4 7.7" clip-rule="evenodd"/>
    <path fill="#004357" fill-rule="evenodd" d="M180.1 79.3c.2 0 .4-.2.4-.3.5-2.4 1.2-5 2.4-7.7.2-.6.2-1.3 0-2-.3-.8-1-1.4-1.9-1.6a2.4 2.4 0 00-2.4.8c-.7 1-1 2.2-1.4 3.4l-.5 1.3a.4.4 0 10.7.3l.5-1.4a11 11 0 011.3-3.1c.4-.5 1-.7 1.7-.5.6 0 1 .5 1.3 1 .2.5.1 1 0 1.5-1.2 2.8-2 5.4-2.4 7.8a.4.4 0 00.3.5z" clip-rule="evenodd"/>
    <path fill="#fff" fill-rule="evenodd" d="M166.2 64.6c.6-2.6 5.2-8.2 2.2-9.9-3.4-1.4-5 6-6.3 8.2" clip-rule="evenodd"/>
    <path fill="#004357" fill-rule="evenodd" d="M166.2 65c.2 0 .3-.2.4-.3.1-.8.7-1.9 1.3-3 1.3-2.6 3-6 .7-7.3-.7-.3-1.3-.3-2 0-1.7.7-2.9 3.7-3.8 6l-1 2.4a.4.4 0 10.6.3c.4-.6.7-1.4 1-2.4 1-2.1 2-5 3.6-5.7h1.3c1.6 1 .2 3.9-1 6.4-.7 1.1-1.3 2.2-1.5 3.1a.4.4 0 00.4.5z" clip-rule="evenodd"/>
    <path fill="#fff" fill-rule="evenodd" d="M164.6 74.5l8.8 3a3 3 0 004-1.9l6.2-18.3a3 3 0 00-2-4l-8.7-3a3 3 0 00-4 2l-6.2 18.3a3 3 0 001.9 3.9z" clip-rule="evenodd"/>
    <path fill="#004357" fill-rule="evenodd" d="M171.9 50.6l.8.1 8.9 3a2.7 2.7 0 011.7 3.5L177 75.5c-.5 1.4-2 2.2-3.5 1.7l-8.8-3c-1.4-.5-2.2-2-1.7-3.5l6.3-18.3a2.7 2.7 0 012.6-1.8zm2.5 27.5c1.5 0 2.8-1 3.3-2.4l6.3-18.3a3.4 3.4 0 00-2.2-4.4l-8.8-3a3.4 3.4 0 00-4.4 2.2l-6.3 18.2c-.6 1.9.4 3.8 2.2 4.4v-.3.3l8.8 3 1.1.3z" clip-rule="evenodd"/>
    <path fill="#BED73C" fill-rule="evenodd" d="M165.5 70.8l9.5 3.3a1 1 0 001.3-.6l5.8-17a1 1 0 00-.7-1.2L172 52a1 1 0 00-1.3.7l-5.8 16.8a1 1 0 00.7 1.3zM170 73c-1.3.3-.8 2.2.4 1.8 1.2-.3.7-2.1-.5-1.8z" clip-rule="evenodd"/>
    <path fill="#004357" fill-rule="evenodd" d="M220 104.8c3.7.3 12.2.2 19 .2 6.7 0 3.7 6.7 4.1 13.4.6 7.2-5.1 13.4-12.4 13.3-4.4-.1-8.8-.4-13.2-.8l2.5-26.1z" clip-rule="evenodd"/>
    <path fill="#BED73C" fill-rule="evenodd" d="M224.3 165.5c-.2 2 1.4 3.8 3.4 3.8h55.1c1.8 0 3.3-1.4 3.6-3.2l-2.9-49.8c.8-6-4-11.4-10-11.4h-35.9c-7.8.2-14 7.1-13.3 15v45.6z" clip-rule="evenodd"/>
    <path fill="#BED73C" fill-rule="evenodd" d="M240.5 105c4.5-19 38-5.6 16.3 10.3a1 1 0 01-1.3 0l-2.6-2.7-2.6-2.5-5 4.8c-2 2-5-7.5-4.8-9.9z" clip-rule="evenodd"/>
    <path fill="#004357" fill-rule="evenodd" d="M256 115.7c.3 0 .7-.1 1.1-.4 2.8-1.5 7.6-7.4 7.2-10.3a.3.3 0 00-.6 0c.2 1.2-.7 3.2-2.3 5.4-1.4 2-3.2 3.7-4.5 4.4-.4.2-1 .5-1.3.2l-2.8-2.8-2.3-2.3a.3.3 0 00-.4 0l-5 4.8c-.2.2-.4.3-.6.2-1.6-.8-3.9-7.7-3.7-9.9 0-.1-.1-.3-.3-.3-.1 0-.3.1-.3.3-.1 2.2 2.2 9.5 4.1 10.4.4.2.8 0 1.2-.3l4.8-4.7 2.1 2.2 2.9 2.8c.1.2.4.3.7.3z" clip-rule="evenodd"/>
    <path fill="#fff" fill-rule="evenodd" d="M308.2 86.4l16.6-.7c1.5 0 2.9 1.2 3 2.8.2 10 .3 19.8-.8 29.9-1.2 13.5-5.8 32.9-22.3 34-14.1.2-24.6-12.6-32.7-22.7l14-10.8c.8-.6 1.9-.5 2.4.2l4.4 5.2c2.3 2.2 8.5 10.2 11.5 6.3 4.8-9.2 4.2-29 4-39.8l.1 4.4c-5 .2-5.2-8.7-.2-8.8z" clip-rule="evenodd"/>
    <path fill="#004357" fill-rule="evenodd" d="M324.9 86c.6 0 1.2.3 1.6.7.5.5.8 1.2.9 1.8.2 8.7.4 19-.7 29.9-.9 8.8-2.7 16-5.4 21.5-3.8 7.5-9.4 11.6-16.6 12-14 .3-24.5-12.6-32.2-22.2l13.8-10.5c.6-.4 1.4-.4 1.8.1l4.4 5.3 1.4 1.4c2.3 2.4 5.8 6.2 8.5 6a2.9 2.9 0 002.3-1.3c4.2-8 4.2-24 4-35.4l.1-.1v-4.4a.4.4 0 00-.8 0v4a3 3 0 01-2.4-1.5c-.9-1.4-1-3.4-.1-4.9a3 3 0 012.7-1.6l16.6-.7zm-20.6 66.7h.5c7.4-.5 13.2-4.7 17.1-12.5a61.6 61.6 0 005.5-21.8c1.1-10.8 1-21.2.7-29.9a3.2 3.2 0 00-3.4-3.2l-16.5.7c-1.5 0-2.7.8-3.4 2a6 6 0 00.2 5.7 3.8 3.8 0 003 1.8c.1 10.9 0 27-4 34.9-.4.5-1 .8-1.6.9-2.4.1-5.9-3.6-8-5.8l-1.3-1.4a97.8 97.8 0 01-4.4-5.2c-.6-.9-2-1-2.9-.3l-14 10.8a.4.4 0 000 .5c7.6 9.6 18.1 22.8 32.5 22.8z" clip-rule="evenodd"/>
    <path fill="#fff" fill-rule="evenodd" d="M323.3 86.9l-.4-8.4c-.2-3.5 4.1-3.8 4.4-.2l.4 10.3" clip-rule="evenodd"/>
    <path fill="#004357" fill-rule="evenodd" d="M327.7 89c.2 0 .4-.2.4-.4a427 427 0 00-.5-10.4c0-1.5-1-3-2.7-2.8-1.3 0-2.5 1.2-2.4 3.1l.4 8.4c0 .2.2.3.4.3s.3-.1.3-.3c0-2.7-.2-5.4-.4-8.4 0-1.6.8-2.3 1.7-2.4.9 0 1.9.6 2 2.2l.4 10.3c0 .2.2.4.4.4z" clip-rule="evenodd"/>
    <path fill="#fff" fill-rule="evenodd" d="M323.3 86.9l-3.5-8.5c-1.5-3.1-5.4-1.3-4 1.8l2.6 6.4" clip-rule="evenodd"/>
    <path fill="#004357" fill-rule="evenodd" d="M323.3 87.2h.1c.2 0 .3-.3.2-.5l-3.5-8.4c-.6-1.3-2-2.3-3.5-1.7-1.2.6-2 2-1.2 3.8l2.7 6.3a.4.4 0 00.7-.2L316 80c-.6-1.4 0-2.4.8-2.8.8-.3 2 0 2.5 1.3a416.6 416.6 0 013.9 8.6zM273.6 136.5c-3-3.6-6-7-8.3-10.9-5.5-9.4.2-19.8 6.7-20.5 11.4-1.2 20.3 12.9 21.6 14.5l-20 16.9zM238.7 83.6c0 6 5.2 11 11.7 11 6.4 0 11.6-5 11.6-11s-5.2-11-11.6-11c-6.5 0-11.7 5-11.7 11z" clip-rule="evenodd"/>
    <path fill="#004357" fill-rule="evenodd" d="M245.4 84.8h-3.7a7.6 7.6 0 00-7.5 7.6v3.7h7c2.3 0 4.2-2 4.2-4.3v-7zM257 84.8h3.7c4.2 0 7.6 3.4 7.6 7.6v3.7h-7c-2.3 0-4.3-2-4.3-4.3v-7z" clip-rule="evenodd"/>
    <path fill="#fff" fill-rule="evenodd" d="M238.2 87.6a2.8 2.8 0 105.6 0 2.8 2.8 0 00-5.6 0z" clip-rule="evenodd"/>
    <path fill="#004357" fill-rule="evenodd" d="M241 85.2a2.5 2.5 0 110 4.9 2.5 2.5 0 010-5zm0 5.6a3.2 3.2 0 100-6.4 3.2 3.2 0 000 6.4z" clip-rule="evenodd"/>
    <path fill="#fff" fill-rule="evenodd" d="M250.5 106.1c3.5 0 6.8-2.7 6.8-5.9l-3-11.1c0-3.2.9-5.9-2.7-5.9H248c-3.5 0-2.7 2.7-2.7 5.9v11.2c0 3.2 1.8 5.8 5.3 5.8z" clip-rule="evenodd"/>
    <path fill="#004357" fill-rule="evenodd" d="M257 100.3c-.1 2.9-3 5.5-6.5 5.5-3.6 0-4.9-2.9-4.9-5.5V89v-1.6c-.1-1.5-.2-2.7.4-3.3.4-.4 1-.6 2-.6h3.6c1 0 1.6.2 2 .6.5.6.4 1.8.4 3.3V89l3 11.2zm-6.5 6.2c3.8 0 7.2-3 7.2-6.3l-3-11.2v-1.5c.1-1.6.2-3-.7-3.8-.5-.6-1.2-.8-2.4-.8H248c-1.1 0-2 .2-2.4.8-.8.8-.8 2.2-.7 3.8V100.3c0 3.8 2.3 6.2 5.7 6.2z" clip-rule="evenodd"/>
    <path fill="#fff" fill-rule="evenodd" d="M248.4 96.4c3.2 0 6.1-1.9 7.4-4.9l.2-.2a8 8 0 00-4.3-10.8 8 8 0 00-10.7 4.3l-.1.3a8 8 0 004.2 10.7 8 8 0 003.3.6z" clip-rule="evenodd"/>
    <path fill="#004357" fill-rule="evenodd" d="M248.5 79.5a8.5 8.5 0 017.9 5.4c.8 2.1.8 4.4-.1 6.5l-.1.3a8.5 8.5 0 11-15.7-6.8l.2-.3a8.5 8.5 0 017.8-5.1zm0 .7c-3 0-5.9 1.8-7.2 4.7v.3c-1.8 4 0 8.5 4 10.2a7.7 7.7 0 0010.2-4l.1-.3a7.7 7.7 0 00-7.1-10.9z" clip-rule="evenodd"/>
    <path fill="#fff" fill-rule="evenodd" d="M256 90.4a2.8 2.8 0 10-.6-5.6" clip-rule="evenodd"/>
    <path fill="#004357" fill-rule="evenodd" d="M256 90.8a3.2 3.2 0 10-.7-6.3.4.4 0 10.2.7h.5a2.5 2.5 0 010 4.9.4.4 0 100 .7z" clip-rule="evenodd"/>
    <path fill="#004357" d="M254.2 85.6a2.6 2.6 0 110-5.2 2.6 2.6 0 010 5.2z"/>
    <path fill="#004357" d="M246 83.6c-4 0-7.3-1.9-7.3-4.1 0-2.3 3.3-4.1 7.3-4.1s7.2 1.8 7.2 4c0 2.3-3.2 4.2-7.2 4.2z"/>
    <path fill="#BED73C" fill-rule="evenodd" d="M247.3 90.8h-1.5c-.3 0-.6-.5-.5-1.1l.5-4c.2-1 1-1 1.2-.1l.8 4c.1.6-.1 1.2-.6 1.2z" clip-rule="evenodd"/>
    <path fill="#004357" fill-rule="evenodd" d="M246.9 93c1 0 2-.4 2.7-1.1a.4.4 0 00-.5-.6 3 3 0 01-4.4 0 .4.4 0 00-.5.6c.8.7 1.7 1 2.7 1zM249.1 86.4a.9.9 0 10.2-1.7.9.9 0 00-.2 1.7zM244.4 86.4a.9.9 0 10.1-1.7.9.9 0 00-.1 1.7z" clip-rule="evenodd"/>
    <path fill="#fff" fill-rule="evenodd" stroke="#004357" stroke-linejoin="round" stroke-width="1.7" d="M236.8 83.1l-6-7.3h-33a2 2 0 01-2.1-2v-30c0-1 1-2 2-2h37.1c1.1 0 2 1 2 2v39.3z" clip-rule="evenodd"/>
    <path fill="#BED73C" d="M206.5 51H226a1.1 1.1 0 110 2.2h-19.5a1.1 1.1 0 010-2.2zM206.5 57.5H226a1.1 1.1 0 110 2.2h-19.5a1.1 1.1 0 010-2.2zM206.5 64H226a1.1 1.1 0 010 2.2h-19.5a1.1 1.1 0 010-2.2z"/>
    <path fill="#004357" fill-rule="evenodd" d="M54.8 228.2c-5.7 0-10.7-.5-15.2-1.6a33 33 0 01-15.4-7.9A36.4 36.4 0 0114 196.1c-1.3-8.6-1-18.5-.8-29l.1-10h7.8l-.1 10.2c-.4 19.8-.8 37 8.5 45.7 6.3 6 17.2 8.3 33.1 7l.6 7.9-8.4.3z" clip-rule="evenodd"/>
    <path fill="#fff" fill-rule="evenodd" d="M53.4 204H23c-3.8 0-6.9-3-6.9-6.8V148c0-3.8 3-6.9 6.9-6.9h30.4c3.8 0 6.8 3 6.8 6.9v49.2c0 3.8-3 6.9-6.8 6.9z" clip-rule="evenodd"/>
    <path fill="#004357" fill-rule="evenodd" d="M23 141.5c-3.6 0-6.5 2.9-6.5 6.5v49.2c0 3.6 2.9 6.5 6.5 6.5h30.4c3.6 0 6.5-3 6.5-6.5V148c0-3.6-3-6.5-6.5-6.5H23zm30.4 63H23c-4 0-7.3-3.3-7.3-7.3V148c0-4 3.3-7.3 7.3-7.3h30.4c4 0 7.2 3.3 7.2 7.3v49.2c0 4-3.2 7.2-7.2 7.2zM68.2 296.6h8.2v-67.5h-8.2v67.5z" clip-rule="evenodd"/>
    <path fill="#004357" fill-rule="evenodd" d="M51.8 298.7c0-3.4 2.8-6.2 6.2-6.2h28.7c3.4 0 6.2 2.8 6.2 6.2H51.8z" clip-rule="evenodd"/>
    <path fill="#fff" fill-rule="evenodd" d="M89.8 234.5H55c-12.7.1-12.7-21.2 0-21h34.8c5.2 0 9.4 4.2 9.4 9.5.8 5.8-3.3 11.5-9.4 11.5z" clip-rule="evenodd"/>
    <path fill="#004357" fill-rule="evenodd" d="M54.8 213.9a8.3 8.3 0 00-7.4 4.2c-2 3.5-2 8.3 0 11.8A8.3 8.3 0 0055 234h34.8c2.6 0 5-1 6.6-3 2-2 2.8-5.1 2.5-8v-.1c0-5-4.1-9.1-9.1-9.1H55h-.2zm0 21a9 9 0 01-8-4.6 13 13 0 010-12.6 9 9 0 018.2-4.6h34.8c5.4 0 9.8 4.4 9.8 9.8a11 11 0 01-2.6 8.7 9.4 9.4 0 01-7.2 3.2H55h-.2zM51.8 300.6h2v-2h-2v2zM71.4 300.6h2v-2h-2v2zM91 300.6h1.9v-2h-2v2z" clip-rule="evenodd"/>
    <path fill="#fff" fill-rule="evenodd" d="M55 302.7c0 4.1-6.3 4.1-6.4 0 0-4.1 6.3-4.1 6.3 0z" clip-rule="evenodd"/>
    <path fill="#004357" fill-rule="evenodd" d="M51.8 300c-1.3 0-2.8.8-2.8 2.7 0 1.8 1.5 2.7 2.8 2.7 1.3 0 2.8-.9 2.8-2.7 0-1.9-1.5-2.7-2.8-2.7zm0 6.1c-1.8 0-3.5-1.1-3.5-3.4s1.7-3.5 3.5-3.5c1.7 0 3.5 1.2 3.5 3.5s-1.8 3.4-3.5 3.4z" clip-rule="evenodd"/>
    <path fill="#fff" fill-rule="evenodd" d="M75.5 302.7c0 4.1-6.3 4.1-6.3 0s6.3-4.1 6.3 0z" clip-rule="evenodd"/>
    <path fill="#004357" fill-rule="evenodd" d="M72.4 300c-1.4 0-2.8.8-2.8 2.7 0 1.8 1.4 2.7 2.8 2.7 1.3 0 2.7-.9 2.7-2.7 0-1.9-1.4-2.7-2.7-2.7zm0 6.1c-1.8 0-3.6-1.1-3.6-3.4s1.8-3.5 3.6-3.5c1.7 0 3.5 1.2 3.5 3.5S74 306 72.4 306z" clip-rule="evenodd"/>
    <path fill="#fff" fill-rule="evenodd" d="M96 302.7c0 4.1-6.3 4.1-6.3 0s6.3-4.1 6.3 0z" clip-rule="evenodd"/>
    <path fill="#004357" fill-rule="evenodd" d="M92.9 300c-1.4 0-2.8.8-2.8 2.7 0 1.8 1.4 2.7 2.8 2.7 1.3 0 2.7-.9 2.8-2.7 0-1.9-1.5-2.7-2.8-2.7zm0 6.1c-1.8 0-3.5-1.1-3.5-3.4s1.7-3.5 3.5-3.5c1.7 0 3.5 1.2 3.5 3.5s-1.8 3.4-3.5 3.4z" clip-rule="evenodd"/>
    <path fill="#fff" fill-rule="evenodd" d="M136.7 305.2c0-.2.1-1.6-.1-1.7l-.3-.1-4.7.1c-.6 0-.3 1.5-.4 1.9H126a3030 3030 0 01-.4-38.4l16.3-.1.3 29.4c0 .2.2.4.4.4 4-.2 9.5 2.7 9.4 8.2l-15.2.3z" clip-rule="evenodd"/>
    <path fill="#004357" fill-rule="evenodd" d="M142.2 266.5c0 9.8.1 20 .3 29.8 4.4-.2 10 3 9.8 9l-16 .3v-1.8h-4.7v2h-6c-.3-12.7-.4-26.4-.5-39.2h17zm-.8.7l-15.6.1c.1 12.6.2 25.2.5 37.8l4.6-.1c0-.6-.2-1.9.7-1.9h4.7c1-.1.8 1.2.8 1.8l14.4-.3c0-5.1-5.5-7.7-9-7.5a.8.8 0 01-.8-.8l-.3-29z" clip-rule="evenodd"/>
    <path fill="#004357" fill-rule="evenodd" d="M125.9 304v-.8l25.6-.5v.8l-25.6.4z" clip-rule="evenodd"/>
    <path fill="#004357" fill-rule="evenodd" d="M142.5 303.6v-.7a5 5 0 004.8-5h.8c0 3-2.5 5.7-5.6 5.7z" clip-rule="evenodd"/>
    <path fill="#fff" fill-rule="evenodd" d="M141.8 290.1s-3-.1-3 2.6c0 1.1-1 1-3.2 1l-9.7.1" clip-rule="evenodd"/>
    <path fill="#004357" fill-rule="evenodd" d="M126 294.2a.4.4 0 010-.7l9.6-.2h.8c1 0 1.7 0 2-.2v-.4c0-.9.3-1.6.8-2 1-1 2.5-1 2.6-1 .2 0 .4.2.4.4s-.2.4-.4.4c0 0-1.3 0-2 .7a2 2 0 00-.6 1.5c0 .4 0 .7-.3.9-.4.5-1.2.5-2.5.5h-.7l-9.8.1z" clip-rule="evenodd"/>
    <path fill="#BED73C" fill-rule="evenodd" d="M147.4 288.4l-25.6.3c-.2-17.4-.2-35.8-.3-53.2.7-16.1-18.3-19.1-31-19.5-14.8-1.4-16.2-25.6.5-25.6 24 .2 51 10.2 55.3 36.6.6 3 .8 6 .8 9 0 17 .1 35.2.3 52.4z" clip-rule="evenodd"/>
    <path fill="#004357" fill-rule="evenodd" d="M130.8 303.5a5 5 0 00-5-5v-.7c3.2 0 5.7 2.5 5.8 5.7h-.8z" clip-rule="evenodd"/>
    <path fill="#fff" fill-rule="evenodd" d="M117.3 305.8c0-.2 0-1.5-.2-1.7h-4.9c-.7 0-.3 1.5-.4 1.8l-5.3.1c-.3-12-.4-25.3-.5-37.3l16.4-.1c.4 9.5-.6 20 .7 29 3.7-.2 9.4 2.5 9.3 7.9l-15.1.3z" clip-rule="evenodd"/>
    <path fill="#004357" fill-rule="evenodd" d="M122.7 268.2c0 9.7.2 19.4.3 29 4.3-.1 10 2.7 9.8 8.6l-15.9.4v-1.8l-4.7.1v1.8l-6 .1c-.3-12.4-.5-25.6-.6-38l17.1-.2zm-.7.7l-15.6.1c0 12.3.2 24.4.4 36.7l4.6-.1c0-.6-.2-1.8.8-1.8l4.7-.1c.9 0 .7 1.2.8 1.8l14.3-.3c0-5-5.5-7.5-9-7.2-.3 0-.7-.3-.7-.8-.2-9.4-.3-18.8-.3-28.3z" clip-rule="evenodd"/>
    <path fill="#004357" fill-rule="evenodd" d="M106.4 304.6v-.8l25.6-.4v.7l-25.6.5z" clip-rule="evenodd"/>
    <path fill="#004357" fill-rule="evenodd" d="M111.4 304.1c0-2.6-2.3-4.7-5-4.7v-.7c3.1 0 5.7 2.4 5.7 5.4h-.7zM123 304.3v-.8c2.8 0 5-2.2 4.9-4.8h.7c0 3-2.4 5.5-5.6 5.6z" clip-rule="evenodd"/>
    <path fill="#fff" fill-rule="evenodd" d="M122.3 291.3s-3-.2-3 2.4c.1 1.1-1 1-3 1l-9.8.1" clip-rule="evenodd"/>
    <path fill="#004357" fill-rule="evenodd" d="M106.5 295.2a.4.4 0 010-.7l9.7-.2h.7c1 0 1.8 0 2-.2l.1-.4c0-.8.2-1.4.7-2 1-.9 2.6-.8 2.7-.8.2 0 .3.2.3.4s-.2.3-.4.3c0 0-1.3 0-2 .7-.4.3-.6.8-.5 1.4 0 .4-.1.7-.3 1-.5.4-1.3.4-2.5.4h-.8l-9.7.1zM102.4 290c-.4-18.7.1-38.4-.5-57-1.8-14-19.1-16.1-30.8-16.6-15-1.4-16.2-25.5.6-25.4 19.4.3 42.2 6.5 51.5 25.3a44.8 44.8 0 014.5 20.8c0 17.1.1 35.5.3 52.5l-25.6.3z" clip-rule="evenodd"/>
    <path fill="#004357" fill-rule="evenodd" d="M49.7 195.7c0-27.6 49.4-27.6 49.5 0 0 27.5-49.4 27.5-49.5 0z" clip-rule="evenodd"/>
    <path fill="#004357" fill-rule="evenodd" d="M49.9 175h24.7v41.3H61c-6.1 0-11-4.9-11-11V175z" clip-rule="evenodd"/>
    <path fill="#fff" fill-rule="evenodd" d="M131.4 117.1l16.6-.6c1.6-.1 3 1.1 3 2.8v3.6l.1 3.6v7.2l-17.6-.3c-1 0-1.8-.8-1.8-1.7a259 259 0 000-5.8c-1.3 0-2.2-.4-2.9-1.2l-.7-1.4c-.2-.5-.3-1-.3-1.7a5 5 0 01.9-3c.6-.9 1.5-1.4 2.7-1.5z" clip-rule="evenodd"/>
    <path stroke="#004357" stroke-linecap="round" stroke-linejoin="round" stroke-width="1.1" d="M131.4 117.1l16.6-.6c1.6-.1 3 1.1 3 2.8v3.6l.1 3.6v7.2l-17.6-.3c-1 0-1.8-.8-1.8-1.7a259 259 0 000-5.8c-1.3 0-2.2-.4-2.9-1.2l-.7-1.4c-.2-.5-.3-1-.3-1.7a5 5 0 01.9-3c.6-.9 1.5-1.4 2.7-1.5z" clip-rule="evenodd"/>
    <path fill="#fff" fill-rule="evenodd" d="M146.5 117.6c0-2.8-.2-5.6-.4-8.3 0-1.5.8-2.8 2-2.9 1.3 0 2.3 1.1 2.4 2.6l.5 10.3" clip-rule="evenodd"/>
    <path stroke="#004357" stroke-linecap="round" stroke-linejoin="round" stroke-width="1.1" d="M146.5 117.6c0-2.8-.2-5.6-.4-8.3 0-1.5.8-2.8 2-2.9 1.3 0 2.3 1.1 2.4 2.6l.5 10.3"/>
    <path fill="#004357" fill-rule="evenodd" d="M154.2 133.3a178.6 178.6 0 01-2.4 26l-1.2 5.1-.2.7-.3.7-.3 1-.3 1-.4 1-.4 1-.4.9-.2.5-.2.4-1 1.9-.5.9-.6.8-1.1 1.7-.7.8-.6.8a23 23 0 01-9.7 6.5 21.4 21.4 0 01-11.8.6 29 29 0 01-7.6-3l-.9-.5-.9-.5-.9-.6a49.7 49.7 0 01-1.7-1.2l-.4-.3-.4-.3-.8-.6-.3-.2-.3-.3a64 64 0 01-7.5-7 117.8 117.8 0 01-11.7-14.8c-2.1-3-2.7-6.7-2-10 .7-3.3 3-12.5 10-12.5 6.8 0 11.7 4.8 13.5 7.5a138.6 138.6 0 0011.9 14.3l2.3 2.1.2.2.2.1.1.1h.3l.1-.2v-.2l.1-.2.2-.4.7-3.1a153 153 0 001.8-21l26.3.3z" clip-rule="evenodd"/>
    <path fill="#BED73C" fill-rule="evenodd" d="M96.4 132.6c0 4.7-6 8.5-15.8 8.5s-19.8-3.8-19.8-8.5 8-8.5 17.8-8.5 17.8 3.8 17.8 8.5z" clip-rule="evenodd"/>
    <path fill="#BED73C" fill-rule="evenodd" d="M107.3 193.9c.2 2-1.4 3.8-3.4 3.8H48.8a3.6 3.6 0 01-3.6-3.1l2.9-50c-.4-2.4-3.4-4.6-1.7-6 2.5-2 8-5.2 11.5-5.2h36l1.5.1c7.2.9 12.4 7.4 11.9 14.7V194z" clip-rule="evenodd"/>
    <path stroke="#004357" stroke-linecap="round" stroke-linejoin="round" stroke-width="1.1" d="M96.3 133.6c-.8 4.2-6.6 7.5-15.7 7.5-9.2 0-18.6-3.3-19.7-7.6M69 170l-1.8 17.4H101L99.1 170M81.1 144.4v19.8M88.1 144.4v19.8"/>
    <path fill="#fff" fill-rule="evenodd" d="M18.9 246.6l14.7-1.3a2.9 2.9 0 002.6-3c-.2-2.3-.4-4.5-.4-6.8l-.1-3.4c0-1-.2-2.2-.1-3.3L18 229v2.2l.1 2.1.2 4.4v1.1l.1 1.1.2 2.2.3 4.4z" clip-rule="evenodd"/>
    <path stroke="#004357" stroke-linecap="round" stroke-linejoin="round" stroke-width="1.1" d="M18.9 246.6l14.7-1.3a2.9 2.9 0 002.6-3c-.2-2.3-.4-4.5-.4-6.8l-.1-3.4c0-1-.2-2.2-.1-3.3L18 229v2.2l.1 2.1.2 4.4v1.1l.1 1.1.2 2.2.3 4.4z" clip-rule="evenodd"/>
    <path fill="#fff" fill-rule="evenodd" d="M32 244.4l.1 2 .2 2 .4 4.1c.2 1.5 1.3 2.5 2.5 2.4 1.2-.2 2-1.4 1.9-2.8l-.5-5-.1-1.2-.1-1.2-.2-2.5" clip-rule="evenodd"/>
    <path stroke="#004357" stroke-linecap="round" stroke-linejoin="round" stroke-width="1.1" d="M32 244.4l.1 2 .2 2 .4 4.1c.2 1.5 1.3 2.5 2.5 2.4 1.2-.2 2-1.4 1.9-2.8l-.5-5-.1-1.2-.1-1.2-.2-2.5"/>
    <path fill="#fff" fill-rule="evenodd" d="M32 244.4l.1 2 .2 2 .4 4.1c.2 1.5-.7 2.8-1.9 3-1.2 0-2.3-1-2.4-2.5l-.5-4.1-.2-2-.1-2.2" clip-rule="evenodd"/>
    <path stroke="#004357" stroke-linecap="round" stroke-linejoin="round" stroke-width="1.1" d="M32 244.4l.1 2 .2 2 .4 4.1c.2 1.5-.7 2.8-1.9 3-1.2 0-2.3-1-2.4-2.5l-.5-4.1-.2-2-.1-2.2"/>
    <path fill="#fff" fill-rule="evenodd" d="M27.6 244.7l.1 2.1.2 2 .5 4.2c.1 1.5-.7 2.8-2 3-1.2 0-2.3-1-2.4-2.5l-.4-4.2-.3-2-.1-2.2" clip-rule="evenodd"/>
    <path stroke="#004357" stroke-linecap="round" stroke-linejoin="round" stroke-width="1.1" d="M27.6 244.7l.1 2.1.2 2 .5 4.2c.1 1.5-.7 2.8-2 3-1.2 0-2.3-1-2.4-2.5l-.4-4.2-.3-2-.1-2.2"/>
    <path fill="#fff" fill-rule="evenodd" d="M33.7 229.2h1.8c.7-.1 1.3 0 1.9.2.6.2 1 .5 1.5.8a4 4 0 011.5 3l.2 3v1.4l.1 1.5a4.7 4.7 0 01-4.4 5l-2.2-3.8" clip-rule="evenodd"/>
    <path fill="#fff" fill-rule="evenodd" d="M35.6 228.8H40v1a1775.2 1775.2 0 01.1 3.4l.1 3v1.4l.2 1.5a4.5 4.5 0 01-4 5l-.4-4" clip-rule="evenodd"/>
    <path stroke="#004357" stroke-linecap="round" stroke-linejoin="round" stroke-width="1.1" d="M35.6 228.8H40v1a1775.2 1775.2 0 01.1 3.4l.1 3v1.4l.2 1.5a4.5 4.5 0 01-4 5l-.4-4"/>
    <path fill="#fff" fill-rule="evenodd" d="M36 239.6l.3 4.4c0 .7.4 1.3.8 1.8.4.4 1 .6 1.6.6a2 2 0 001.5-.9c.4-.5.6-1.1.5-1.8l-.3-4.9-.1-1.2v-1.2L40 234" clip-rule="evenodd"/>
    <path stroke="#004357" stroke-linecap="round" stroke-linejoin="round" stroke-width="1.1" d="M36 239.6l.3 4.4c0 .7.4 1.3.8 1.8.4.4 1 .6 1.6.6a2 2 0 001.5-.9c.4-.5.6-1.1.5-1.8l-.3-4.9-.1-1.2v-1.2L40 234"/>
    <path fill="#fff" fill-rule="evenodd" d="M23.2 245.1c.1 2.2.4 4.3.6 6.5.1 1.5-.7 2.8-2 3-1.1 0-2.2-1-2.4-2.5l-.6-6.6" clip-rule="evenodd"/>
    <path stroke="#004357" stroke-linecap="round" stroke-linejoin="round" stroke-width="1.1" d="M23.2 245.1c.1 2.2.4 4.3.6 6.5.1 1.5-.7 2.8-2 3-1.1 0-2.2-1-2.4-2.5l-.6-6.6"/>
    <path fill="#004357" fill-rule="evenodd" d="M16 229.5l26.3-.5v-5.3-5.3l.1-1.8v-.8l.1-.9.3-4.1v-1l.2-1 .2-2.1.2-2 .1-1 .2-1 .6-4c1-5.3 2.2-10.5 3.8-15.4 1.6-4.9 6.2-12.3 11.2-20.9 5-8.6 10.7-15 3.7-23.1-7-8-16.6-.8-17.5 0l-1 1-.3.2-.3.2-.5.5-1 1-.4.5-.5.5-1.9 2-1.7 2.1-.4.6-.5.5-.8 1-.8 1.2-.8 1-1.4 2.3-.4.5-.2.3-.1.3-.7 1.1c-3.6 6.1-6.4 12.4-8.6 18.8a134 134 0 00-4.8 19.3l-.7 4.8-.2 1.2-.1 1.2-.3 2.4-.3 2.4v1.2l-.2 1.2-.3 4.8v1l-.1 1v2l-.2 4v8zM92.3 112.9c0 5.8-5 10.5-11.3 10.5-6.3 0-11.3-4.7-11.3-10.5 0-5.9 5-10.6 11.3-10.6 6.2 0 11.3 4.7 11.3 10.6z" clip-rule="evenodd"/>
    <path fill="#fff" fill-rule="evenodd" d="M92.9 116.4a2.8 2.8 0 11-5.7 0 2.8 2.8 0 015.7 0z" clip-rule="evenodd"/>
    <path fill="#004357" fill-rule="evenodd" d="M90 114a2.5 2.5 0 100 5 2.5 2.5 0 000-5zm0 5.7a3.2 3.2 0 110-6.5 3.2 3.2 0 010 6.5z" clip-rule="evenodd"/>
    <path fill="#fff" fill-rule="evenodd" d="M80.5 135c-3.5 0-6.8-2.7-6.8-6l3-11c0-3.3-.8-6 2.7-6h3.7c3.6 0 2.7 2.7 2.7 6V129c0 3.3-1.7 5.9-5.3 5.9z" clip-rule="evenodd"/>
    <path fill="#004357" fill-rule="evenodd" d="M74.1 129c0 3 3 5.6 6.4 5.6 3.6 0 5-2.8 5-5.5V118v-1.6c0-1.4.1-2.7-.5-3.3-.3-.4-1-.6-1.9-.6h-3.7c-.9 0-1.5.2-1.9.6-.6.6-.5 1.9-.4 3.3v1.6l-3 11.2zm6.4 6.3c-3.8 0-7.1-2.9-7.1-6.3l3-11.1v-1.6c-.2-1.6-.2-3 .6-3.8.5-.5 1.3-.8 2.4-.8h3.7c1.2 0 2 .3 2.5.8.8.8.7 2.2.6 3.8V129.1c0 3.8-2.2 6.3-5.7 6.3z" clip-rule="evenodd"/>
    <path fill="#fff" fill-rule="evenodd" d="M82.7 125.3c-3.3 0-6.2-2-7.5-5l-.1-.2a8.2 8.2 0 0115-6.5v.3a8.2 8.2 0 01-7.4 11.4z" clip-rule="evenodd"/>
    <path fill="#004357" fill-rule="evenodd" d="M82.6 108.3a8.5 8.5 0 00-8 5.4c-.8 2.1-.8 4.4.2 6.5v.3a8.5 8.5 0 1015.7-6.7l-.1-.3a8.5 8.5 0 00-7.8-5.2zm0 .8c3 0 5.8 1.7 7.1 4.7l.1.3a7.8 7.8 0 01-14.2 6.1l-.2-.3a7.8 7.8 0 017.2-10.8z" clip-rule="evenodd"/>
    <path fill="#fff" fill-rule="evenodd" d="M75 119.3a2.8 2.8 0 11.6-5.6" clip-rule="evenodd"/>
    <path fill="#004357" fill-rule="evenodd" d="M75 119.7a3.2 3.2 0 11.7-6.4.4.4 0 11-.1.7H75a2.5 2.5 0 000 5 .4.4 0 010 .7z" clip-rule="evenodd"/>
    <path fill="#004357" d="M76.9 114.5a2.6 2.6 0 100-5.3 2.6 2.6 0 000 5.3z"/>
    <path fill="#004357" d="M85.3 112.4c4 0 7.2-1.8 7.2-4 0-2.3-3.2-4.2-7.2-4.2s-7.3 1.9-7.3 4.1c0 2.3 3.2 4.1 7.3 4.1z"/>
    <path fill="#BED73C" fill-rule="evenodd" d="M83.8 119.7h1.4c.4 0 .7-.6.6-1.2l-.6-4c-.1-1-1-1-1.2-.1l-.8 4c-.1.7.2 1.3.6 1.3z" clip-rule="evenodd"/>
    <path fill="#004357" fill-rule="evenodd" d="M75 103.8l-4.6 10.5c-1 2.4-2.5 3.6-4.5 3.5v-5.7c0-2.3 0-6 2.2-8.1 2.6-2.6 5-2.6 7-.2zM90.3 113.2c.6 0 1 .4 1 1V119.3c-.2 1.7-1.6 8.8-8.1 8.8-6.8 0-8-7.5-8.2-8.7v-5.2a1 1 0 112.1 0v4.2c0 1 .7 2.3 1.7 3.5-.1-1.1-.1-2.3.4-3 .4-.6 1-.8 1.6-.8a5 5 0 012.4.5l.4.2c.5.2 1 .3 2-.2h.1c1.3-.6 2.1-.7 2.7-.3.7.5.6 1.5.4 3a5 5 0 00.4-2.3v-4.8c0-.6.5-1 1.1-1zm-4 6.4h-.1c-1.7.8-2.4.5-3.3 0h-.1a4 4 0 00-2-.4c-.4 0-.6.1-.6.3-.5.7-.3 2.4 0 3.8l1.7 1 1.3-1.3a1 1 0 011.3 0l1.3 1.3 1.7-1.2.2-1.4v-.7c.1-.8.2-1.6 0-1.8 0 0-.3-.1-1.4.4z" clip-rule="evenodd"/>
    <path fill="#004357" fill-rule="evenodd" d="M82 115.3a.9.9 0 11-.2-1.8.9.9 0 01.1 1.8zM86.7 115.3a.9.9 0 11-.2-1.8.9.9 0 01.2 1.8zM84.4 123.3a1.5 1.5 0 11-.2-2.9 1.5 1.5 0 01.2 3z" clip-rule="evenodd"/>
    <path fill="#fff" d="M83.6 112.4H79v3.2h4.5v-3.2zM90 112.4h-4.6v3.2H90v-3.2z"/>
    <path fill="#004357" fill-rule="evenodd" d="M83.7 112c.2 0 .3.2.3.4v1h1.1v-1c0-.2.2-.4.4-.4H90c.2 0 .3.2.3.4v2c0 1-.9 2-2 2h-1.8c-.8 0-1.5-.7-1.5-1.5v-.6l-.6-.2c-.2 0-.4.2-.5.3v.5c0 .8-.6 1.5-1.4 1.5h-2.1c-1.1 0-2-1-2-2v-.6l-2.5.6a.4.4 0 01-.1-.8l2.6-.5v-.7c0-.2.2-.4.4-.4h4.8zm-4.5.7v.5l3.4 2.3a.4.4 0 00.5 0v-.6l-3.4-2.3a.4.4 0 00-.5 0zm6.7 0c-.2.2-.1.4 0 .5l3.2 2.3a.4.4 0 00.5-.1c.2-.2.1-.4 0-.5l-3.2-2.3a.4.4 0 00-.5.1z" clip-rule="evenodd"/>
    <path fill="#fff" fill-rule="evenodd" stroke="#004357" stroke-linejoin="round" stroke-width="1.7" d="M103.7 119.5l6.1-7.4h33c1.1 0 2-.9 2-2V80c0-1-.9-2-2-2h-37a2 2 0 00-2.1 2v39.4z" clip-rule="evenodd"/>
    <path fill="#BED73C" d="M134 87.3h-19.5a1.1 1.1 0 000 2.2h19.6a1.1 1.1 0 000-2.2zM134 93.8h-19.5a1.1 1.1 0 000 2.2h19.6a1.1 1.1 0 000-2.2zM134 100.3h-19.5a1.1 1.1 0 100 2.2h19.6a1.1 1.1 0 100-2.2z"/>
    <path fill="#004357" fill-rule="evenodd" d="M282 221.2h-.2a.3.3 0 010-.5l17.3-17.3a.3.3 0 11.4.5l-17.3 17.3h-.2zM143.8 180.6l-.2-.1a.3.3 0 010-.4l58.6-58.7a.3.3 0 11.4.5L144 180.5h-.2zM173.2 234.6a.3.3 0 01-.2-.5l95.8-100a.3.3 0 01.5.5l-96 100h-.1zM142 197.2l-.1-.1a.3.3 0 010-.4l54.8-54.9a.3.3 0 11.4.5L142.3 197h-.2zM214.2 230l-.2-.1a.3.3 0 010-.5l59.1-59a.3.3 0 11.4.3l-59 59.2h-.3zM243.7 213.8h-.2a.3.3 0 010-.5l28.1-28.1a.3.3 0 11.4.4l-28 28.1-.3.1z" clip-rule="evenodd"/>
    <path fill="#BED73C" d="M195 236l10-10 10 10-10 10-10-10z"/>
    <path fill="#8EBC41" fill-rule="evenodd" d="M158.5 226.5a14.4 14.4 0 11-20.3-20.3 14.4 14.4 0 0120.3 20.3z" clip-rule="evenodd"/>
    <path fill="#BED73C" fill-rule="evenodd" d="M274.3 213.8a7.3 7.3 0 11-10.4-10.3 7.3 7.3 0 0110.4 10.3z" clip-rule="evenodd"/>
    <path fill="#004357" fill-rule="evenodd" d="M164.8 163.4a.6.6 0 111 .8.6.6 0 01-1-.8zM158.3 170a.6.6 0 111 .8.6.6 0 01-1-.8zM163.6 155.8a.6.6 0 111 .8.6.6 0 01-1-.8zM156.8 162.5a.6.6 0 111 .8.6.6 0 01-1-.8zM156.2 154.5a.6.6 0 111 .8.6.6 0 01-1-.8zM149.4 161a.6.6 0 111 .8.6.6 0 01-1-.8zM154.6 147a.6.6 0 111 .7.6.6 0 01-1-.8zM147.8 153.6a.6.6 0 111 .8.6.6 0 01-1-.8zM147 145.4a.6.6 0 111 .8.6.6 0 01-1-.8zM181.8 174.1a.6.6 0 111 .8.6.6 0 01-1-.8zM174.3 172.6a.6.6 0 111 .8.6.6 0 01-1-.8zM172.8 165.2a.6.6 0 111 .8.6.6 0 01-1-.8zM166.2 171.8a.6.6 0 111 .8.6.6 0 01-1-.8zM195.4 160.6a.6.6 0 111 .8.6.6 0 01-1-.8zM188.6 167.2a.6.6 0 111 .8.6.6 0 01-1-.8zM187.8 159.1a.6.6 0 111 .8.6.6 0 01-1-.8zM181.2 165.8a.6.6 0 111 .8.6.6 0 01-1-.8zM186.5 151.6a.6.6 0 111 .8.6.6 0 01-1-.8zM179.7 158.2a.6.6 0 111 .8.6.6 0 01-1-.8zM269.7 211.3a.6.6 0 111 .8.6.6 0 01-1-.8zM268.2 203.7a.6.6 0 111 .8.6.6 0 01-1-.8zM248.6 163.8a.6.6 0 111 .8.6.6 0 01-1-.8zM241.8 170.6a.6.6 0 111 .8.6.6 0 01-1-.8zM241 162.5a.6.6 0 111 .8.6.6 0 01-1-.8zM234.4 169a.6.6 0 111 .9.6.6 0 01-1-.8zM189.6 163.8a.6.6 0 111 .8.6.6 0 01-1-.8zM183 170.6a.6.6 0 111 .8.6.6 0 01-1-.8zM164.8 216.7a.6.6 0 111 .9.6.6 0 01-1-.9zM158 223.4a.6.6 0 111 .8.6.6 0 01-1-.8zM157.3 215.4a.6.6 0 111 .8.6.6 0 01-1-.8zM150.6 222a.6.6 0 111 .8.6.6 0 01-1-.8zM149.2 214.5a.6.6 0 111 .8.6.6 0 01-1-.8zM148.3 206.4a.6.6 0 111 .8.6.6 0 01-1-.8z" clip-rule="evenodd"/>
    <path fill="#BED73C" fill-rule="evenodd" d="M91.2 293.6A7.3 7.3 0 1181 283.3a7.3 7.3 0 0110.3 10.3z" clip-rule="evenodd"/>
  </g>
</svg>
