<svg xmlns="http://www.w3.org/2000/svg" fill="none" viewBox="0 0 214 216">
  <path fill="#145164" d="M177.8 32v-9l4.5 4.5-4.5 4.5zM187.5 27.5L192 23l4.5 4.5L192 32l-4.5-4.5zM182.4 22.5L187 18l4.5 4.5-4.5 4.5-4.5-4.5zM177.5 17.5L182 13l4.4 4.5-4.4 4.4-4.5-4.4zM182.4 32.6L187 28l4.5 4.5-4.5 4.4-4.5-4.4zM177.5 37.7l4.5-4.5 4.4 4.5-4.4 4.5-4.5-4.5zM128.7 22.5l4.5-4.5 4.4 4.5-4.4 4.5-4.5-4.5zM123.8 17.5l4.4-4.5 4.5 4.5-4.5 4.4-4.4-4.4zM128.7 32.5l4.5-4.5 4.4 4.5-4.4 4.5-4.5-4.5zM123.8 37.7l4.4-4.5 4.5 4.5-4.5 4.5-4.4-4.5zM80.3 27.5l4.5-4.5 4.5 4.5-4.5 4.5-4.5-4.5zM134 27.5l4.5-4.5 4.5 4.5-4.5 4.5-4.4-4.5zM75.3 22.4l4.5-4.4 4.4 4.4-4.4 4.5-4.5-4.5zM75.3 32.5l4.5-4.5 4.5 4.5-4.5 4.5-4.5-4.5zM27.1 27.6l4.5-4.5 4.5 4.5-4.5 4.5-4.5-4.5zM17.4 85.4v-9L22 81l-4.5 4.5zM27.1 81l4.5-4.5 4.5 4.5-4.5 4.4-4.5-4.4zM22.1 76l4.5-4.5 4.5 4.4-4.5 4.5L22 76zM17.1 71l4.5-4.6L26 71l-4.5 4.5-4.5-4.5zM22.1 86l4.5-4.5L31 86l-4.5 4.5L22 86zM17.1 91.2l4.5-4.5 4.5 4.5-4.5 4.5-4.5-4.5zM182.2 76l4.4-4.5 4.5 4.4-4.5 4.5-4.4-4.5zM177.2 71l4.4-4.5 4.5 4.5-4.5 4.4-4.4-4.4zM182.2 86l4.5-4.5L191 86l-4.4 4.5-4.5-4.5zM177.2 91.2l4.4-4.4 4.5 4.4-4.5 4.5-4.4-4.5zM133.7 81l4.5-4.5 4.5 4.4-4.5 4.5-4.5-4.5zM187.5 81l4.4-4.5 4.5 4.4-4.5 4.5-4.4-4.5zM128.7 76l4.5-4.5 4.4 4.4-4.4 4.5-4.5-4.5zM128.7 86l4.5-4.5 4.5 4.5-4.5 4.5-4.5-4.5zM80.6 81l4.4-4.5 4.5 4.4-4.5 4.5-4.4-4.5zM70.9 138.9v-9l4.4 4.5-4.4 4.5zM80.6 134.4l4.4-4.5 4.5 4.5-4.5 4.5-4.4-4.5zM75.6 129.4l4.5-4.5 4.4 4.5-4.4 4.5-4.5-4.5zM70.6 124.4l4.5-4.5 4.4 4.5-4.5 4.4-4.4-4.4zM75.6 139.4l4.5-4.5 4.5 4.5L80 144l-4.5-4.5zM70.6 144.7l4.5-4.5 4.4 4.5-4.4 4.5-4.5-4.5zM21.8 129.4l4.5-4.5 4.5 4.5-4.5 4.4-4.5-4.4zM16.9 124.4l4.4-4.5 4.5 4.5-4.5 4.5-4.4-4.5zM21.9 139.4l4.5-4.5 4.4 4.5-4.4 4.4-4.5-4.4zM16.9 144.7l4.4-4.5 4.5 4.5-4.5 4.5-4.4-4.5zM27.1 134.4l4.5-4.4 4.5 4.4-4.5 4.5-4.5-4.5zM187.2 134.4l4.5-4.5 4.5 4.5-4.5 4.5-4.5-4.5zM182.2 129.4l4.4-4.5 4.5 4.5-4.5 4.5-4.4-4.5zM182.2 139.4l4.4-4.4 4.5 4.4-4.5 4.5-4.4-4.5zM134 134.4l4.5-4.5 4.5 4.5-4.5 4.5-4.5-4.5zM124 192.3v-8.9l4.5 4.4-4.5 4.5zM133.7 187.8l4.5-4.5 4.5 4.5-4.5 4.5-4.5-4.5zM128.7 182.9l4.5-4.5 4.4 4.5-4.4 4.4-4.5-4.4zM123.7 177.9l4.5-4.5 4.5 4.5-4.5 4.5-4.5-4.5zM128.7 192.9l4.5-4.5 4.4 4.5-4.4 4.5-4.5-4.5zM123.7 198.1l4.5-4.4 4.5 4.4-4.5 4.5-4.5-4.5zM75 182.9l4.4-4.5 4.5 4.5-4.5 4.4L75 183zM70 177.9l4.5-4.5 4.4 4.5-4.4 4.5-4.5-4.5zM75 192.9l4.4-4.5L84 193l-4.5 4.5-4.4-4.5zM70 198.1l4.5-4.4 4.4 4.4-4.4 4.5-4.5-4.5zM26.5 187.8l4.5-4.5 4.5 4.5-4.5 4.5-4.5-4.5zM80.3 187.8l4.4-4.5 4.5 4.5-4.5 4.5-4.4-4.5zM21.5 182.9l4.5-4.5 4.5 4.5-4.5 4.4-4.5-4.4zM21.5 192.9l4.5-4.5 4.5 4.5-4.5 4.5-4.5-4.5zM187.1 187.8l4.5-4.4 4.5 4.4-4.5 4.5-4.5-4.5z"/>
</svg>
