<svg xmlns="http://www.w3.org/2000/svg" fill="none" viewBox="0 0 128 137">
  <path fill="#FFCD41" d="M0 127h128v10H0v-10z"/>
  <path fill="#D71E28" d="M0 0h128v127H0V0z"/>
  <path fill="#fff" d="M18.4 57.7L13.2 40H11v-2.5h9.4V40h-2.7L21 52.2l4-14.7h4.3l4.1 14.6L36.7 40H34v-2.5h24.6V44h-2l-.2-.7C55.7 40.8 55 40 53 40h-4.8v6.1H54c.2.5.3 1 .2 1.4 0 .5 0 1-.2 1.4h-6v6.3h5.2c1.8 0 2.7-.8 3.2-3.4l.3-1h2v7H41.4v-2.6H44V40h-4l-5.1 17.6h-4l-4.2-14.6-4.2 14.6h-4zm59-7h-2.1l-.2 1c-.6 2.6-1.4 3.4-3.4 3.4h-4v-15h2.8v-2.6H61V40h2.5v15H61v2.7h16.5l-.1-7zm18.3 0h-2.1l-.2 1c-.6 2.6-1.4 3.4-3.4 3.4h-4v-15h2.8v-2.6h-9.6V40h2.5v15h-2.5v2.7h16.5v-7zm18.6 1.3c0-3.1-2-5.3-5.6-6.2L105 45c-2.1-.5-3-1.4-3-2.8 0-1.6 1.3-2.8 4-2.8s4.3 1 4.8 3.3l.3 1h2v-5a16.4 16.4 0 00-7.3-1.8c-5 0-8.1 2.3-8.1 6.1 0 3 1.8 5.1 5.4 6l3.7.7c2.3.6 3.2 1.5 3.2 3 0 1.9-1.4 2.9-4.3 2.9-3.2 0-4.8-1.2-5.6-3.7l-.4-1.2h-2v5.6c2.7 1.3 5.6 2 8.6 2 4.9 0 8-2.5 8-6.2V52zM26 70.6c2 0 2.6.8 3.3 3.3l.2.7h2.1v-6.5H14.1v2.5h2.5v15.1h-2.5v2.6h9.7v-2.6H21v-5.9h6c.2-.4.3-.9.3-1.4 0-.5 0-1-.3-1.4h-6v-6.4H26zM70.3 86a2.8 2.8 0 010 2.4h-2.2c-2.9 0-4.2-1-4.6-3.7v-1c-.5-3-1.4-4-4.6-4h-1.6v6H60v2.6H41.8v-2.6h2.4l-1.3-3.6h-7.5L34 85.7h2.4v2.6h-7.6v-2.6h2L38 68.1h3.8L49 85.7h4V70.6h-2.4v-2.5h11.7c4.2 0 6.9 2 6.9 5.3s-2.7 5-5.4 5.1v.1c2.7.2 3.8 1.7 4 4l.1 1c.2 1.7.6 2.5 1.9 2.5l.6-.1zM42 79.6L39 71.9l-2.8 7.7H42zm22.7-5.9c0-2-1.3-3.2-4-3.2h-3.3V77h3.4c2.6 0 4-1.2 4-3.3zM82.4 79c0 .4 0 1 .3 1.4H86v5a9 9 0 01-3.4.7c-4.1 0-6.3-3-6.3-8 0-5.1 2.2-8.2 6.1-8.2 2.6 0 4.2 1.3 5.1 3.6l.3.8h2v-5.2a17 17 0 00-7.6-1.7c-6.4 0-10.7 4.2-10.7 10.7 0 6.5 4.2 10.6 10.7 10.6 2.8 0 5.6-.8 8.1-2.1v-9h-7.7c-.2.4-.3.9-.3 1.4zm32.7-1c0 6.3-4.6 10.7-10.9 10.7-6.3 0-10.8-4.4-10.8-10.6 0-6.3 4.5-10.7 10.8-10.7 6.3 0 10.9 4.4 10.9 10.6zm-4.8 0c0-5-2.1-8-6-8-4 0-6.1 3-6.1 8 0 5.2 2 8.1 6 8.1s6-3 6-8z"/>
</svg>
