<svg xmlns="http://www.w3.org/2000/svg" fill="none" viewBox="0 0 134 65">
  <path fill="#8CBA43" d="M99.6 20.4v8.9h-5.1l5.1-8.9z"/>
  <path fill="#8CBA43" fill-rule="evenodd" d="M78.8 27.2a27.2 27.2 0 1154.4 0 27.2 27.2 0 01-54.4 0zm20.8 9.7h4v-4.4h2.4v-3.2h-2.4V16.4h-4.5L91.5 29v3.6h8.1v4.4zm6 0h14.2v-3.6h-9a33 33 0 013-2.7l1.6-1.1c1.4-1 2.4-1.9 3-2.6.9-1.2 1.3-2.6 1.3-4.1 0-2-.6-3.6-1.9-4.8a7.3 7.3 0 00-5.2-1.8c-2.8 0-4.7 1-5.8 3a10 10 0 00-1 4.3h4c0-1.1.2-2 .5-2.5.4-1 1.3-1.4 2.5-1.4.9 0 1.6.3 2 .9.5.6.8 1.3.8 2.2 0 1-.4 2-1.3 3a30 30 0 01-3.6 2.8c-2.2 1.5-3.5 3-4.1 4.3-.6 1.3-1 2.6-1 4.1z" clip-rule="evenodd"/>
  <path fill="#F4F4F4" d="M6.2 37.3H0v-5.6h6.2v5.6zM0 40h6.2v23.4H0V40.1z"/>
  <path fill="#F4F4F4" fill-rule="evenodd" d="M21 40.5c1.1.6 2 1.4 2.7 2.5V32h6.2v31.4h-6v-3.2a8.6 8.6 0 01-3 3 8.7 8.7 0 01-11-2.4c-1.8-2.2-2.8-5-2.8-8.5 0-4 1-7 2.8-9.3a9 9 0 017.3-3.5c1.4 0 2.7.3 3.8 1zM22.5 57c.9-1.3 1.3-3 1.3-5 0-2.9-.7-4.9-2.1-6.1-.9-.8-2-1.1-3.1-1.1-1.8 0-3 .6-4 2-.8 1.3-1.2 3-1.2 5 0 2.1.4 3.9 1.3 5.2.8 1.2 2.1 1.9 3.9 1.9 1.7 0 3-.6 3.9-2zM51.1 44a9.5 9.5 0 00-4-3.4c-1.7-.8-3.5-1.1-5.5-1.1-3.4 0-6.2 1-8.4 3.2C31.1 44.9 30 48 30 52c0 4.3 1.2 7.4 3.6 9.3 2.4 2 5.1 2.9 8.2 2.9a11.3 11.3 0 009.8-4.7c.4 1.1 1 2 1.8 2.8a7.7 7.7 0 005.3 1.8c1.6 0 3.1-.3 4.4-1.1 1.2-.6 2.1-1.4 3-2.3l.1 1.4.4 1.3h6.7v-.9l-1-.7c-.1-.3-.3-.8-.3-1.6v-3.5c.1 2 1 3.8 2.6 5.2 1.7 1.5 4.4 2.3 8.1 2.3 3.6 0 6.3-.7 8-2.2a7 7 0 002.6-5.7c0-1.7-.6-3.2-1.8-4.3-1.2-1.2-3-2-5.5-2.6a39 39 0 01-6.4-1.7c-.6-.3-.9-.8-.9-1.5 0-.6.3-1 .9-1.5.6-.4 1.5-.6 2.8-.6 1.6 0 2.8.4 3.5 1.2.3.5.5 1.1.6 1.9h6.1c-.2-2.9-1.3-4.9-3.1-6a13.2 13.2 0 00-7.2-1.8c-3 0-5.4.8-7.1 2.3a7.3 7.3 0 00-2.6 5.6c0 1.8.6 3.2 1.7 4.2 1 1 3 1.8 5.6 2.4a35 35 0 016.4 1.9c.5.3.8.9.8 1.5 0 .8-.3 1.3-1 1.7-.8.3-1.7.5-3 .5-2 0-3.4-.4-4.1-1.2-.5-.5-.8-1.3-.9-2.3H72v-9.2c0-2.8-1-4.7-3-5.7s-4.3-1.6-6.9-1.6c-3.9 0-6.7 1-8.3 3.1-.8 1-1.3 2.2-1.5 3.6-.3-.8-.7-1.5-1.2-2.2zm1 9.5c-.4.8-.7 1.9-.8 3h-4.7c-.3.8-.8 1.3-1.2 1.7-1 .7-2 1-3.4 1-1.3 0-2.5-.2-3.4-.8-1.5-1-2.3-2.6-2.4-5h16zm2.6-2.5c-.6.3-1.1.7-1.5 1.1a24 24 0 00-.5-4.5H58c.1-.9.4-1.6.8-2 .6-.8 1.7-1.2 3.1-1.2 1.3 0 2.3.2 3 .6.7.3 1 1 1 2 0 .7-.4 1.3-1.3 1.7-.5.2-1.3.4-2.4.5l-2.1.3a15 15 0 00-5.4 1.5zm-18.4-1.6c.2-1.5.8-2.7 1.6-3.6 1-.9 2.1-1.3 3.7-1.3 1.4 0 2.6.4 3.6 1.3a5 5 0 011.6 3.6H36.3zM66 52.1a6.7 6.7 0 01-2.8 1l-1.4.2c-1.3.3-2.3.5-2.8.9-1 .5-1.5 1.4-1.5 2.6 0 1 .3 1.7 1 2.2.5.5 1.2.7 2 .7 1.4 0 2.6-.4 3.7-1.1 1.2-.8 1.7-2.2 1.8-4.3v-2.2z" clip-rule="evenodd"/>
</svg>

