<svg xmlns="http://www.w3.org/2000/svg" fill="none" viewBox="0 0 88 42">
  <path fill="white" d="M66 13.4v5.8h-3.4l3.4-5.8z"/>
  <path fill="white" fill-rule="evenodd" d="M52.3 17.8a17.8 17.8 0 1135.6 0 17.8 17.8 0 01-35.6 0zM66 24.1h2.6v-2.9H70v-2h-1.5v-8.5h-3l-5 8.2v2.3H66v3zm3.9 0h9.2v-2.3h-5.8c.1-.3.3-.5.6-.7l1.3-1 1.1-.8a9 9 0 002-1.7c.5-.8.8-1.7.8-2.7 0-1.3-.4-2.3-1.2-3.1-.9-.8-2-1.2-3.5-1.2-1.8 0-3 .7-3.7 2-.4.7-.6 1.6-.7 2.8h2.6c0-.8.2-1.3.3-1.7.3-.6.9-.9 1.7-.9.6 0 1 .2 1.3.6.3.4.5.9.5 1.4 0 .7-.3 1.4-.8 2l-2.4 1.8c-1.4 1-2.3 2-2.7 2.9-.4.8-.6 1.7-.6 2.6z" clip-rule="evenodd"/>
  <path fill="white" d="M4.8 24.4h-4v-3.7h4v3.7zM.8 26.2h4v15.3h-4V26.2z"/>
  <path fill="white" fill-rule="evenodd" d="M14.5 26.5c.7.4 1.3 1 1.8 1.7v-7.3h4v20.6h-3.9v-2.1c-.5.9-1.2 1.5-2 2-.6.4-1.5.6-2.6.6-1.8 0-3.3-.8-4.5-2.2a8.3 8.3 0 01-1.9-5.6c0-2.6.6-4.6 1.8-6a5.9 5.9 0 014.9-2.3c.9 0 1.7.2 2.4.6zm1 10.8c.6-.8.9-1.9.9-3.2 0-1.9-.5-3.2-1.4-4a3 3 0 00-2-.7c-1.2 0-2 .4-2.6 1.3-.6.9-.8 2-.8 3.3a6 6 0 00.8 3.3c.6.9 1.4 1.3 2.5 1.3a3 3 0 002.6-1.3zM34.2 28.8c-.7-1-1.6-1.8-2.6-2.3-1-.4-2.3-.7-3.6-.7-2.2 0-4 .7-5.5 2.1-1.4 1.5-2 3.5-2 6.1 0 2.8.7 4.9 2.3 6.1A8.3 8.3 0 0028 42a7.4 7.4 0 006.5-3c.2.7.6 1.3 1.1 1.8a5 5 0 003.5 1.2c1 0 2-.3 2.9-.8l2-1.5v1l.3.8h4.3v-.6l-.6-.5-.2-1V37c0 1.3.6 2.5 1.7 3.4 1.1 1 2.9 1.5 5.3 1.5 2.3 0 4-.5 5.2-1.4 1.1-1 1.7-2.2 1.7-3.7 0-1.2-.4-2.1-1.2-2.9-.8-.8-2-1.3-3.5-1.7-2.4-.5-3.8-.9-4.2-1.1a1 1 0 01-.6-1c0-.4.2-.7.6-1 .3-.2 1-.4 1.8-.4 1 0 1.8.3 2.3.9l.4 1.2h4c-.2-1.9-.9-3.2-2-4a8.6 8.6 0 00-4.7-1.1c-2 0-3.6.5-4.7 1.5a4.7 4.7 0 00-1.7 3.6c0 1.2.4 2.2 1 2.8.8.6 2 1.2 3.7 1.6l4.2 1.2c.4.2.6.6.6 1 0 .5-.3.8-.7 1-.5.3-1.1.4-1.9.4-1.3 0-2.3-.2-2.8-.8-.2-.3-.4-.8-.5-1.5h-4v-6c0-1.8-.7-3-2-3.7-1.3-.7-2.8-1-4.5-1-2.5 0-4.4.6-5.4 2-.5.6-.9 1.4-1 2.3a7 7 0 00-.8-1.4zM35 35c-.3.6-.5 1.2-.5 2h-3.1c-.3.5-.5.8-.8 1-.6.5-1.3.8-2.3.8a4 4 0 01-2.2-.6c-1-.6-1.5-1.7-1.6-3.2H35zm1.6-1.6l-1 .7a15.8 15.8 0 00-.2-3h3.4c.1-.5.3-1 .6-1.3.4-.5 1-.7 2-.7.9 0 1.5.1 2 .3.4.3.6.7.6 1.3 0 .5-.3 1-.9 1.2l-1.6.3-1.3.2c-1.6.2-2.8.5-3.6 1zm-12-1c.2-1 .5-1.8 1.1-2.4.6-.6 1.4-.9 2.4-.9s1.7.3 2.4.8c.6.6 1 1.4 1 2.4h-6.9zM44 34a4.4 4.4 0 01-1.9.6l-.9.2a6 6 0 00-1.8.5c-.6.4-1 1-1 1.7s.2 1.2.6 1.5c.4.3.9.5 1.4.5.9 0 1.7-.3 2.4-.8.8-.5 1.2-1.4 1.2-2.7V34z" clip-rule="evenodd"/>
</svg>
