<svg xmlns="http://www.w3.org/2000/svg" fill="none" viewBox="0 0 150 55">
  <title id="shared-prosperity-logo-title">Go to Shared Prosperity Catalyst home</title>
  <desc id="shared-prosperity-logo-desc">The Shared Prosperity Catalyst logomark</desc>
  <path fill="#BED73B" d="M113.9 36.2V18.1l9 9-9 9.1z"/>
  <path class="logo-base-mid" fill="#004357" d="M141 18l-9.2 9.2 9.1 9 9.1-9-9-9.1z"/>
  <path fill="#1C8A70" d="M131.8 9l-9 9 9 9.2L141 18 132 9z"/>
  <path fill="#09B0A5" d="M122.8 0l-9 9 9 9.2L132 9 123 0z"/>
  <path fill="#1C8B70" d="M131.9 27.2l-9.1 9 9 9.1 9.1-9-9-9.1z"/>
  <path fill="#09B0A5" d="M122.8 36.1l-9 9.1 9 9.1 9.1-9-9-9.2z"/>
  <path class="logo-base-mid" fill="#3C3E3E" d="M3.7 15.8c1.3 0 2.3-.7 2.3-2 0-1.1-1-1.7-2-2.2L2.4 11C1 10.4.5 9.5.5 8.2.5 6.3 2.2 5.3 4 5.3s2.8 1.2 3 1.5l-.7.8a3.1 3.1 0 00-2.4-1.2C2.7 6.4 1.7 7 1.7 8s.8 1.6 1.6 1.9l1.5.6c1.4.6 2.4 1.4 2.4 3 0 2-1.5 3.2-3.7 3.2a4.3 4.3 0 01-3.4-2l.8-.8c.5.8 1.6 1.8 2.8 1.8zM16.7 11.2h-6.4v5.4H9V5.5h1.3v4.7h6.4V5.5h1.2v11.1h-1.2v-5.4zM26.8 13.5h-5.1l-1.3 3.1h-1.2l4.6-11.2h1l4.6 11.2H28l-1.2-3zm-2.6-6.4l-2.1 5.3h4.2l-2-5.3zM34.4 11.6l3.4 5h-1.5l-3.1-5h-1.4v5h-1.2V5.5h3c2 0 3.5 1 3.5 3 0 1.7-1.1 2.7-2.7 3zm-2.6-5v4H33c1.5 0 2.9-.3 2.9-2s-1.3-2-2.7-2h-1.4zM39 5.5h6.3v1h-5.1v3.7H45v1h-4.8v4.4h5.2v1H39V5.5zM47 5.5h3.3c3.3 0 5.8 2.1 5.8 5.6 0 3.3-2.6 5.5-5.8 5.5H47V5.5zM55 11c0-2.9-1.9-4.6-4.6-4.6h-2v9h2c2.6 0 4.6-1.7 4.6-4.4z"/>
  <path class="logo-color-accent" fill="#004357" d="M40.6 33c1.4 0 2.6-.3 3.6-1s1.5-1.9 1.4-3.1c0-2.1-1.3-3-3-3.6a20.3 20.3 0 00-1.6-.5c-.3-.1-.7-.2-.7-.5 0-.4.4-.5 1-.5s2 .3 2.8 1.1l1.5-2.7c-1-1-2.7-1.5-4.2-1.5-1.6 0-2.8.4-3.6 1-.7.6-1.4 1.6-1.4 3 0 2 1.1 2.7 2.8 3.4l1.7.6c.5.1.9.2.9.6 0 .3-.4.5-.9.5s-2-.4-3.2-1.3l-1.7 3a7.7 7.7 0 004.6 1.5z"/>
  <path class="logo-color-accent" fill="#004357" fill-rule="evenodd" d="M5.4 29.1H4.1v3.7H.2v-12h5.2c2.7 0 4.7 1.3 4.7 4.2 0 2.9-2 4.1-4.7 4.1zm-.6-5.3H4v2.4h.7c.8 0 1.3-.3 1.3-1.2 0-1-.5-1.2-1.3-1.2zM17.6 32.8l-1.9-4h-.5v4h-3.9v-12h5.2c1.5 0 2.6.3 3.5 1 .8.5 1.4 1.6 1.4 2.9 0 2.4-1.4 3.3-2 3.6l2.7 4.5h-4.5zm-.5-8.8l-1-.2h-.9v2h1c.7 0 1.3-.2 1.3-1 0-.5-.3-.6-.4-.8zM52.5 29.1h-1.3v3.7h-3.9v-12h5.2c2.7 0 4.7 1.3 4.7 4.2 0 2.9-2 4.1-4.7 4.1zm-.6-5.3h-.7v2.4h.7c.8 0 1.4-.3 1.4-1.2 0-1-.6-1.2-1.4-1.2z" clip-rule="evenodd"/>
  <path class="logo-color-accent" fill="#004357" d="M58.4 20.9v12H67v-3.2h-4.8v-1.4h4.3v-3h-4.3v-1.4h4.6v-3h-8.5z"/>
  <path class="logo-color-accent" fill="#004357" fill-rule="evenodd" d="M75.3 32.8l-1.9-4H73v4h-4v-12h5.3c1.4 0 2.6.3 3.4 1 1 .5 1.5 1.6 1.5 2.9 0 2.4-1.5 3.3-2 3.6l2.7 4.5h-4.5zm-.5-8.8l-1-.2H73v2h1c.7 0 1.3-.2 1.3-1 0-.5-.3-.7-.4-.8z" clip-rule="evenodd"/>
  <path class="logo-color-accent" fill="#004357" d="M81 20.9h3.8v12H81v-12zM92.6 24v8.8h-4V24h-2.8v-3h9.6v3h-2.8zM104 32.8v-4.6l4.1-7.3h-4.3l-1.8 4-1.8-4H96l4.1 7.3v4.6h4z"/>
  <path class="logo-base-mid" fill="#3C3E3E" d="M0 43.4c0 3.5 2.3 5.8 5.6 5.8 2.1 0 3.4-.8 4.2-1.7l-.6-.8c-.8.8-2 1.4-3.5 1.4-2.5 0-4.4-1.9-4.4-4.7 0-2.8 1.8-4.6 4.4-4.6 1.6 0 2.9.7 3.4 1.4l.6-1c-.7-.7-2-1.5-4-1.5A5.5 5.5 0 000 43.4z"/>
  <path class="logo-base-mid" fill="#3C3E3E" fill-rule="evenodd" d="M12.9 45.9h5l1.3 3.1h1.4l-4.7-11.2H15L10.4 49h1.2L13 46zm.4-1l2.1-5.4 2.2 5.3h-4.3z" clip-rule="evenodd"/>
  <path class="logo-base-mid" fill="#3C3E3E" d="M22.8 38.9h-3.3v-1h7.7v1H24V49h-1.2V39z"/>
  <path class="logo-base-mid" fill="#3C3E3E" fill-rule="evenodd" d="M28.7 45.9h5.1l1.3 3.1h1.3l-4.6-11.2h-1L26.3 49h1.3l1.2-3.1zm.4-1l2.2-5.4 2.1 5.3h-4.3z" clip-rule="evenodd"/>
  <path class="logo-base-mid" fill="#3C3E3E" d="M37.7 37.8h1.2V48h4V49h-5.2V37.8zM41.5 37.8l3.8 6.5V49h1.3v-4.7l3.9-6.5H49L46 43.2l-3.2-5.4h-1.3zM54.3 48.2c1.3 0 2.3-.7 2.3-2 0-1.2-1-1.7-2-2.2l-1.6-.7c-1.3-.5-2-1.4-2-2.7 0-2 1.8-2.9 3.5-2.9 1.8 0 2.8 1.1 3 1.4h.1l-.7.9a3.1 3.1 0 00-2.4-1.3c-1.2 0-2.2.7-2.2 1.8s.8 1.6 1.6 1.9l1.5.6c1.3.6 2.4 1.4 2.4 3 0 2-1.5 3.2-3.7 3.2a4.3 4.3 0 01-3.4-2l.8-.8c.5.8 1.6 1.8 2.8 1.8zM58.6 38.9H62V49H63V39h3.2v-1h-7.7v1z"/>
  <path fill="#BED73B" d="M30.2 21.7l-2.5-1.5.1.5c-1.3.2-2.5.7-3.4 1.7-.7.7-1.3 1.7-1.6 2.6l3.1 1a2.9 2.9 0 012.7-2.2l.1.4 1.5-2.5z"/>
  <path fill="#8EBC41" d="M25.9 26h.4l-1.4-2.5-2.5 1.4.4.2a6 6 0 001.6 6l2.3-2.3a3 3 0 01-.8-2.9z"/>
  <path fill="#09B0A5" d="M30.4 32.6l-.9-3.1a3 3 0 01-2.8-.7l.2-.3H24l.1 3 .4-.4a6.1 6.1 0 005.9 1.5z"/>
  <path fill="#1C8B70" d="M29.4 29L28 31.7l2.5 1.4-.1-.5a6 6 0 004.3-4.7l-3.1-.5c-.1.5-.4 1-.8 1.4-.4.4-.8.7-1.3.8"/>
  <path class="logo-color-accent" fill="#004357" d="M34.7 27.8c.4-2-.3-4-1.7-5.4l-2.2 2.2c.7.7 1 1.7.8 2.6H31l1.6 2.3 2.4-1.5"/>
</svg>
