<?xml version="1.0" encoding="utf-8"?>
<!-- Generator: Adobe Illustrator 25.0.1, SVG Export Plug-In . SVG Version: 6.00 Build 0)  -->
<svg version="1.1" id="Layer_1" xmlns="http://www.w3.org/2000/svg" xmlns:xlink="http://www.w3.org/1999/xlink" x="0px" y="0px"
	 viewBox="0 0 100 100" style="enable-background:new 0 0 100 100;" xml:space="preserve">
<style type="text/css">
	.st0{fill:#004358;}
	.st1{fill:#FFFFFF;stroke:#004358;stroke-width:0.5;stroke-miterlimit:10;}
	.st2{fill:#B7DB00;stroke:#004358;stroke-width:0.5;stroke-miterlimit:10;}
	.st3{fill-rule:evenodd;clip-rule:evenodd;fill:#004358;}
	.st4{fill-rule:evenodd;clip-rule:evenodd;fill:#B7DB00;}
	.st5{fill-rule:evenodd;clip-rule:evenodd;fill:#89BD36;}
	.st6{fill:none;stroke:#004358;stroke-width:0.5;stroke-miterlimit:10;}
</style>
<path class="st0" d="M86.72,97.54H13.76c-0.77,0-1.39-0.62-1.39-1.39V3.84c0-0.77,0.62-1.39,1.39-1.39h72.96
	c0.77,0,1.39,0.62,1.39,1.39v92.3C88.12,96.91,87.49,97.54,86.72,97.54z"/>
<path class="st1" d="M76.02,88.61H24.46c-1.24,0-2.25-1.01-2.25-2.25V13.63c0-1.24,1.01-2.25,2.25-2.25h51.56
	c1.24,0,2.25,1.01,2.25,2.25v72.73C78.27,87.6,77.27,88.61,76.02,88.61z"/>
<path class="st2" d="M60.55,17.14H42.81c-3.86,0-7-3.13-7-7v-8.7h31.73v8.7C67.54,14.01,64.41,17.14,60.55,17.14z"/>
<g>
	
		<rect x="29.25" y="36.26" transform="matrix(-1 -1.224647e-16 1.224647e-16 -1 69.5811 83.6001)" class="st3" width="11.08" height="11.08"/>
	
		<rect x="29.25" y="36.26" transform="matrix(-1 -1.224647e-16 1.224647e-16 -1 69.5811 83.6001)" class="st3" width="11.08" height="11.08"/>
	<path class="st4" d="M32.19,70.14h5.19c1.63,0,2.94,1.32,2.94,2.94v5.19c0,1.63-1.32,2.94-2.94,2.94h-5.19
		c-1.63,0-2.94-1.32-2.94-2.94v-5.19C29.25,71.46,30.57,70.14,32.19,70.14z"/>
	<circle class="st4" cx="34.79" cy="27.04" r="5.53"/>
	<g>
		<circle class="st0" cx="36.78" cy="30.83" r="0.33"/>
		<circle class="st0" cx="32.93" cy="30.83" r="0.33"/>
		<circle class="st0" cx="38.71" cy="28.86" r="0.33"/>
		<circle class="st0" cx="34.85" cy="28.86" r="0.33"/>
		<circle class="st0" cx="31" cy="28.86" r="0.33"/>
		<circle class="st0" cx="36.81" cy="27" r="0.33"/>
		<circle class="st0" cx="32.96" cy="27" r="0.33"/>
		<circle class="st0" cx="34.88" cy="25.03" r="0.33"/>
		<circle class="st0" cx="38.74" cy="25.03" r="0.33"/>
		<circle class="st0" cx="31.03" cy="25.03" r="0.33"/>
		<circle class="st0" cx="36.76" cy="23.2" r="0.33"/>
		<circle class="st0" cx="32.91" cy="23.2" r="0.33"/>
	</g>
	
		<rect x="30.09" y="52.98" transform="matrix(0.7071 -0.7071 0.7071 0.7071 -30.5987 41.4958)" class="st5" width="9.4" height="9.4"/>
	<g>
		<circle class="st0" cx="40.44" cy="62.14" r="0.26"/>
		<circle class="st0" cx="38.31" cy="64.27" r="0.26"/>
		<circle class="st0" cx="40.41" cy="59.99" r="0.26"/>
		<circle class="st0" cx="38.28" cy="62.12" r="0.26"/>
		<circle class="st0" cx="36.15" cy="64.25" r="0.26"/>
		<circle class="st0" cx="38.34" cy="60.01" r="0.26"/>
		<circle class="st0" cx="36.21" cy="62.14" r="0.26"/>
		<circle class="st0" cx="36.19" cy="59.99" r="0.26"/>
		<circle class="st0" cx="38.32" cy="57.86" r="0.26"/>
		<circle class="st0" cx="34.06" cy="62.12" r="0.26"/>
		<circle class="st0" cx="36.21" cy="57.94" r="0.26"/>
		<circle class="st0" cx="34.08" cy="60.07" r="0.26"/>
		<circle class="st0" cx="36.19" cy="55.78" r="0.26"/>
		<circle class="st0" cx="34.06" cy="57.91" r="0.26"/>
		<circle class="st0" cx="31.93" cy="60.04" r="0.26"/>
		<circle class="st0" cx="34.15" cy="55.85" r="0.26"/>
		<circle class="st0" cx="32.02" cy="57.98" r="0.26"/>
		<circle class="st0" cx="34.12" cy="53.7" r="0.26"/>
		<circle class="st0" cx="31.99" cy="55.83" r="0.26"/>
		<circle class="st0" cx="29.86" cy="57.96" r="0.26"/>
	</g>
</g>
<line class="st6" x1="45.28" y1="25.24" x2="71.3" y2="25.24"/>
<line class="st6" x1="45.28" y1="27.99" x2="71.3" y2="27.99"/>
<line class="st6" x1="45.28" y1="53.91" x2="71.3" y2="53.91"/>
<line class="st6" x1="45.28" y1="56.66" x2="71.3" y2="56.66"/>
<line class="st6" x1="45.28" y1="59.4" x2="71.3" y2="59.4"/>
<line class="st6" x1="45.28" y1="62.09" x2="71.3" y2="62.09"/>
<line class="st6" x1="45.28" y1="38.83" x2="71.3" y2="38.83"/>
<line class="st6" x1="45.28" y1="41.8" x2="71.3" y2="41.8"/>
<line class="st6" x1="45.28" y1="44.77" x2="71.3" y2="44.77"/>
<line class="st6" x1="45.28" y1="71.51" x2="71.3" y2="71.51"/>
<line class="st6" x1="45.28" y1="74.48" x2="71.3" y2="74.48"/>
<line class="st6" x1="45.28" y1="77.45" x2="71.3" y2="77.45"/>
<line class="st6" x1="37.89" y1="6.96" x2="65.46" y2="6.96"/>
<line class="st6" x1="37.89" y1="5" x2="65.46" y2="5"/>
</svg>
