<?xml version="1.0" encoding="utf-8"?>
<!-- Generator: Adobe Illustrator 25.0.1, SVG Export Plug-In . SVG Version: 6.00 Build 0)  -->
<svg version="1.1" id="Layer_1" xmlns="http://www.w3.org/2000/svg" xmlns:xlink="http://www.w3.org/1999/xlink" x="0px" y="0px"
	 viewBox="0 0 100 100" style="enable-background:new 0 0 100 100;" xml:space="preserve">
<style type="text/css">
	.st0{fill:none;stroke:#004358;stroke-width:1.5;stroke-miterlimit:10;}
	.st1{fill:#FFFFFF;stroke:#004358;stroke-width:0.5;stroke-miterlimit:10;}
	.st2{fill:#B7DB00;stroke:#004358;stroke-width:0.5;stroke-miterlimit:10;}
	.st3{fill-rule:evenodd;clip-rule:evenodd;fill:#004358;}
	.st4{fill-rule:evenodd;clip-rule:evenodd;fill:#B7DB00;}
	.st5{fill:#004358;}
	.st6{fill-rule:evenodd;clip-rule:evenodd;fill:#89BD36;}
	.st7{fill:none;stroke:#004358;stroke-width:0.5;stroke-miterlimit:10;}
</style>
<path class="st0" d="M86.72,97.54H13.76c-0.77,0-1.39-0.62-1.39-1.39V3.84c0-0.77,0.62-1.39,1.39-1.39h72.96
	c0.77,0,1.39,0.62,1.39,1.39v92.3C88.12,96.91,87.49,97.54,86.72,97.54z"/>
<rect x="22.21" y="11.38" class="st1" width="56.06" height="77.23"/>
<path class="st2" d="M60.55,17.14H42.81c-3.86,0-7-3.13-7-7v-8.7h31.73v8.7C67.54,14.01,64.41,17.14,60.55,17.14z"/>
<g>
	
		<rect x="29.25" y="36.26" transform="matrix(-1 -1.224647e-16 1.224647e-16 -1 69.5811 83.6001)" class="st3" width="11.08" height="11.08"/>
	
		<rect x="29.25" y="36.26" transform="matrix(-1 -1.224647e-16 1.224647e-16 -1 69.5811 83.6001)" class="st3" width="11.08" height="11.08"/>
	<path class="st4" d="M32.19,70.14h5.19c1.63,0,2.94,1.32,2.94,2.94v5.19c0,1.63-1.32,2.94-2.94,2.94h-5.19
		c-1.63,0-2.94-1.32-2.94-2.94v-5.19C29.25,71.46,30.57,70.14,32.19,70.14z"/>
	<circle class="st4" cx="34.79" cy="27.04" r="5.53"/>
	<g>
		<circle class="st5" cx="36.7" cy="31.51" r="0.48"/>
		<circle class="st5" cx="31.15" cy="31.51" r="0.48"/>
		<circle class="st5" cx="39.52" cy="28.83" r="0.48"/>
		<circle class="st5" cx="33.97" cy="28.83" r="0.48"/>
		<circle class="st5" cx="36.75" cy="25.99" r="0.48"/>
		<circle class="st5" cx="31.19" cy="25.99" r="0.48"/>
	</g>
	
		<rect x="30.09" y="52.98" transform="matrix(0.7071 -0.7071 0.7071 0.7071 -30.5987 41.4958)" class="st6" width="9.4" height="9.4"/>
	<g>
		<circle class="st5" cx="34.4" cy="64.46" r="0.48"/>
		<circle class="st5" cx="37.2" cy="61.6" r="0.48"/>
		<circle class="st5" cx="31.61" cy="61.6" r="0.48"/>
		<circle class="st5" cx="40.02" cy="59.02" r="0.48"/>
		<circle class="st5" cx="34.43" cy="59.02" r="0.48"/>
		<circle class="st5" cx="37.23" cy="56.16" r="0.48"/>
		<circle class="st5" cx="31.63" cy="56.16" r="0.48"/>
	</g>
</g>
<line class="st7" x1="45.28" y1="25.24" x2="71.3" y2="25.24"/>
<line class="st7" x1="45.28" y1="28.99" x2="71.3" y2="28.99"/>
<line class="st7" x1="45.28" y1="53.91" x2="71.3" y2="53.91"/>
<line class="st7" x1="45.28" y1="57.4" x2="71.3" y2="57.4"/>
<line class="st7" x1="45.28" y1="38.83" x2="71.3" y2="38.83"/>
<line class="st7" x1="45.28" y1="42.77" x2="71.3" y2="42.77"/>
<line class="st7" x1="45.28" y1="71.51" x2="71.3" y2="71.51"/>
<line class="st7" x1="45.28" y1="75.45" x2="71.3" y2="75.45"/>
<line class="st7" x1="37.89" y1="6.96" x2="65.46" y2="6.96"/>
<line class="st7" x1="37.89" y1="5" x2="65.46" y2="5"/>
</svg>
