<?xml version="1.0" encoding="utf-8"?>
<!-- Generator: Adobe Illustrator 25.0.1, SVG Export Plug-In . SVG Version: 6.00 Build 0)  -->
<svg version="1.1" id="Layer_1" xmlns="http://www.w3.org/2000/svg" xmlns:xlink="http://www.w3.org/1999/xlink" x="0px" y="0px"
	 viewBox="0 0 100 100" style="enable-background:new 0 0 100 100;" xml:space="preserve">
<style type="text/css">
	.st0{fill:none;stroke:#004358;stroke-width:1.0685;stroke-linecap:round;stroke-miterlimit:10;}
	.st1{fill:#8EBC41;stroke:#004358;stroke-width:1.0685;stroke-miterlimit:10;}
	.st2{fill:none;stroke:#004358;stroke-width:0.8014;stroke-linecap:round;stroke-linejoin:round;stroke-miterlimit:10;}
	.st3{fill:#004358;}
	.st4{fill:#BBD927;stroke:#BBD927;stroke-width:1.0685;stroke-miterlimit:10;}
</style>
<path class="st0" d="M49.9,40.17"/>
<g>
	<line class="st1" x1="19.49" y1="16.91" x2="80" y2="34.01"/>
	<path class="st1" d="M24.28,51.61H14.9c-2.63,0-4.77-2.13-4.77-4.77v-6.67h18.92v6.67C29.05,49.47,26.91,51.61,24.28,51.61z"/>
	<path class="st1" d="M84.9,69.11h-9.38c-2.63,0-4.77-2.13-4.77-4.77v-6.75h18.92v6.75C89.67,66.98,87.54,69.11,84.9,69.11z"/>
	<polyline class="st2" points="10.13,40.17 19.49,16.91 29.05,40.17 	"/>
	<polyline class="st2" points="70.75,57.59 80.12,34.32 89.67,57.59 	"/>
</g>
<path class="st3" d="M47.33,77.71h-26c-5.26,0-9.52,4.26-9.52,9.52v2.03c0,0.41,0.33,0.75,0.75,0.75h74.69
	c0.41,0,0.75-0.33,0.75-0.75v-2.03c0-5.26-4.26-9.52-9.52-9.52h-26"/>
<line class="st2" x1="10.13" y1="43.96" x2="29.05" y2="43.96"/>
<line class="st2" x1="70.75" y1="61.37" x2="89.67" y2="61.37"/>
<path class="st4" d="M52.48,77.71V13.49c0-1.42-1.15-2.58-2.58-2.58c-1.42,0-2.58,1.15-2.58,2.58v64.22"/>
</svg>
