<?xml version="1.0" encoding="utf-8"?>
<!-- Generator: Adobe Illustrator 25.0.1, SVG Export Plug-In . SVG Version: 6.00 Build 0)  -->
<svg version="1.1" id="Layer_1" xmlns="http://www.w3.org/2000/svg" xmlns:xlink="http://www.w3.org/1999/xlink" x="0px" y="0px"
	 viewBox="0 0 93.78 65.19" style="enable-background:new 0 0 93.78 65.19;" xml:space="preserve">
<style type="text/css">
	.st0{fill-rule:evenodd;clip-rule:evenodd;fill:none;stroke:#004357;stroke-miterlimit:10;}
	.st1{fill-rule:evenodd;clip-rule:evenodd;fill:#BBD927;}
	.st2{fill:#074357;}
	.st3{fill:#BBD927;stroke:#004358;stroke-width:0.5;stroke-miterlimit:10;}
	.st4{fill:none;stroke:#004358;stroke-width:0.25;stroke-miterlimit:10;}
	.st5{fill-rule:evenodd;clip-rule:evenodd;fill:#8EBC41;}
</style>
<rect x="33.18" y="3.11" transform="matrix(-1.836970e-16 1 -1 -1.836970e-16 59.6108 -30.0702)" class="st0" width="23.32" height="23.32"/>
<circle class="st1" cx="13.78" cy="14.77" r="11.64"/>
<g>
	<circle class="st2" cx="22.11" cy="17.15" r="0.34"/>
	<circle class="st2" cx="22.11" cy="21.13" r="0.34"/>
	<circle class="st2" cx="20.07" cy="15.15" r="0.34"/>
	<circle class="st2" cx="20.07" cy="19.14" r="0.34"/>
	<circle class="st2" cx="20.07" cy="23.12" r="0.34"/>
	<circle class="st2" cx="18.15" cy="17.12" r="0.34"/>
	<circle class="st2" cx="18.15" cy="21.1" r="0.34"/>
	<circle class="st2" cx="16.11" cy="19.11" r="0.34"/>
	<circle class="st2" cx="16.11" cy="15.12" r="0.34"/>
	<circle class="st2" cx="16.11" cy="23.09" r="0.34"/>
	<circle class="st2" cx="14.22" cy="17.17" r="0.34"/>
	<circle class="st2" cx="14.22" cy="21.15" r="0.34"/>
	<circle class="st2" cx="12.18" cy="15.17" r="0.34"/>
	<circle class="st2" cx="12.18" cy="19.16" r="0.34"/>
	<circle class="st2" cx="12.18" cy="23.14" r="0.34"/>
	<circle class="st2" cx="10.34" cy="17.15" r="0.34"/>
	<circle class="st2" cx="10.34" cy="21.13" r="0.34"/>
	<circle class="st2" cx="8.3" cy="15.15" r="0.34"/>
	<circle class="st2" cx="8.3" cy="19.14" r="0.34"/>
	<circle class="st2" cx="8.3" cy="23.12" r="0.34"/>
</g>
<g>
	<path class="st3" d="M10.59,47.35c7.35-4.38,14.24-11.52,19.36-16.62c4.24-4.57,8.23-9.21,8.23-9.21l-0.01,0l5.91-7.14
		c0.8-1.08,2.23-1.35,3.13-0.69c0.94,0.75,1,2.19,0.06,3.22c-1.15,1.61-2.36,3.12-3.62,4.62c2.07,1.7,5.17,4.78,10.89,9.06l0,0
		c3.82,3.11-2.18,10.07-5.73,6.83l2.84-3.46c-7.82,8.92-18.28,20.72-30.1,28.27"/>
	<line class="st4" x1="43.82" y1="21.2" x2="39.39" y2="26.17"/>
	<line class="st4" x1="46.49" y1="24.08" x2="43.45" y2="27.49"/>
	<line class="st4" x1="49.47" y1="26.24" x2="46.44" y2="29.64"/>
	<line class="st4" x1="52.14" y1="28.77" x2="49.1" y2="32.17"/>
</g>
<rect x="68.37" y="4.87" transform="matrix(-0.7071 -0.7071 0.7071 -0.7071 123.1739 80.5609)" class="st5" width="19.79" height="19.79"/>
<g>
	<circle class="st2" cx="84.39" cy="11.44" r="0.34"/>
	<circle class="st2" cx="87.21" cy="14.26" r="0.34"/>
	<circle class="st2" cx="81.54" cy="11.48" r="0.34"/>
	<circle class="st2" cx="84.36" cy="14.29" r="0.34"/>
	<circle class="st2" cx="87.18" cy="17.11" r="0.34"/>
	<circle class="st2" cx="81.58" cy="14.22" r="0.34"/>
	<circle class="st2" cx="84.39" cy="17.04" r="0.34"/>
	<circle class="st2" cx="81.54" cy="17.07" r="0.34"/>
	<circle class="st2" cx="78.73" cy="14.25" r="0.34"/>
	<circle class="st2" cx="84.36" cy="19.89" r="0.34"/>
	<circle class="st2" cx="78.83" cy="17.04" r="0.34"/>
	<circle class="st2" cx="81.65" cy="19.86" r="0.34"/>
	<circle class="st2" cx="75.98" cy="17.07" r="0.34"/>
	<circle class="st2" cx="78.8" cy="19.89" r="0.34"/>
	<circle class="st2" cx="81.61" cy="22.71" r="0.34"/>
	<circle class="st2" cx="76.07" cy="19.77" r="0.34"/>
	<circle class="st2" cx="78.89" cy="22.59" r="0.34"/>
	<circle class="st2" cx="73.22" cy="19.8" r="0.34"/>
	<circle class="st2" cx="76.04" cy="22.62" r="0.34"/>
	<circle class="st2" cx="78.85" cy="25.44" r="0.34"/>
</g>
</svg>
