<?xml version="1.0" encoding="utf-8"?>
<!-- Generator: Adobe Illustrator 25.0.1, SVG Export Plug-In . SVG Version: 6.00 Build 0)  -->
<svg version="1.1" id="Layer_1" xmlns="http://www.w3.org/2000/svg" xmlns:xlink="http://www.w3.org/1999/xlink" x="0px" y="0px"
	 viewBox="0 0 100 100" style="enable-background:new 0 0 100 100;" xml:space="preserve">
<style type="text/css">
	.st0{fill:none;stroke:#004358;stroke-linecap:round;stroke-miterlimit:10;}
	.st1{fill:#BCDA27;stroke:#004358;stroke-linejoin:round;stroke-miterlimit:10;}
	.st2{fill:none;stroke:#004358;stroke-width:0.75;stroke-linecap:round;stroke-linejoin:round;stroke-miterlimit:10;}
	.st3{fill:#004358;}
	.st4{fill:none;stroke:#004358;stroke-miterlimit:10;}
	.st5{fill:none;stroke:#004358;stroke-width:0.25;stroke-miterlimit:10;}
</style>
<path class="st0" d="M50.37,39.3"/>
<g>
	<line class="st0" x1="21.91" y1="17.52" x2="78.53" y2="33.53"/>
	<path class="st1" d="M26.09,50h-8.17c-2.63,0-4.77-2.13-4.77-4.77V39.3h17.71v5.94C30.85,47.87,28.72,50,26.09,50z"/>
	<path class="st1" d="M82.82,66.38h-8.17c-2.63,0-4.77-2.13-4.77-4.77V55.6h17.71v6.02C87.59,64.25,85.46,66.38,82.82,66.38z"/>
	<polyline class="st2" points="13.15,39.3 21.91,17.52 30.85,39.3 	"/>
	<polyline class="st2" points="69.89,55.6 78.65,33.82 87.59,55.6 	"/>
</g>
<g>
	<path class="st3" d="M50.37,11.91L50.37,11.91c-1.33,0-2.41,1.08-2.41,2.41V83.9h4.82V14.32C52.78,12.99,51.7,11.91,50.37,11.91z"
		/>
	<path class="st3" d="M85.32,86.47h-69.9c-0.39,0-0.7-0.31-0.7-0.7v-1.9c0-4.92,3.99-8.91,8.91-8.91h53.48
		c4.92,0,8.91,3.99,8.91,8.91v1.9C86.02,86.15,85.71,86.47,85.32,86.47z"/>
</g>
<path class="st4" d="M77.11,74.96H52.78V14.32c0-1.33-1.08-2.41-2.41-2.41c-1.33,0-2.41,1.08-2.41,2.41v60.64H23.63
	c-4.92,0-8.91,3.99-8.91,8.91v1.9c0,0.39,0.31,0.7,0.7,0.7h69.9c0.39,0,0.7-0.31,0.7-0.7v-1.9C86.02,78.95,82.03,74.96,77.11,74.96z
	"/>
<line class="st5" x1="13.15" y1="41.84" x2="30.85" y2="41.84"/>
<line class="st5" x1="69.89" y1="58.13" x2="87.59" y2="58.13"/>
<g>
	<circle class="st3" cx="73.21" cy="59.97" r="0.64"/>
	<circle class="st3" cx="80.67" cy="59.97" r="0.64"/>
	<circle class="st3" cx="76.89" cy="63.55" r="0.64"/>
	<circle class="st3" cx="84.34" cy="63.55" r="0.64"/>
</g>
<circle class="st3" cx="14.18" cy="44.21" r="0.64"/>
<circle class="st3" cx="21.63" cy="44.21" r="0.64"/>
<circle class="st3" cx="29.08" cy="44.21" r="0.64"/>
<circle class="st3" cx="17.85" cy="47.79" r="0.64"/>
<circle class="st3" cx="25.3" cy="47.79" r="0.64"/>
</svg>
